<?xml version="1.0" encoding="utf-8" standalone="no"?>
<!DOCTYPE svg PUBLIC "-//W3C//DTD SVG 1.1//EN"
  "http://www.w3.org/Graphics/SVG/1.1/DTD/svg11.dtd">
<svg xmlns:xlink="http://www.w3.org/1999/xlink" width="687.96pt" height="339.84pt" viewBox="0 0 687.96 339.84" xmlns="http://www.w3.org/2000/svg" version="1.1">
 <metadata>
  <rdf:RDF xmlns:dc="http://purl.org/dc/elements/1.1/" xmlns:cc="http://creativecommons.org/ns#" xmlns:rdf="http://www.w3.org/1999/02/22-rdf-syntax-ns#">
   <cc:Work>
    <dc:type rdf:resource="http://purl.org/dc/dcmitype/StillImage"/>
    <dc:date>2026-05-20T18:48:16.024026</dc:date>
    <dc:format>image/svg+xml</dc:format>
    <dc:creator>
     <cc:Agent>
      <dc:title>Matplotlib v3.7.2, https://matplotlib.org/</dc:title>
     </cc:Agent>
    </dc:creator>
   </cc:Work>
  </rdf:RDF>
 </metadata>
 <defs>
  <style type="text/css">*{stroke-linejoin: round; stroke-linecap: butt}</style>
 </defs>
 <g id="figure_1">
  <g id="patch_1">
   <path d="M 0 339.84 
L 687.96 339.84 
L 687.96 0 
L 0 0 
z
" style="fill: #ffffff"/>
  </g>
  <g id="axes_1">
   <g id="line2d_1">
    <path d="M 30.8304 56.8224 
L 657.1296 56.8224 
" clip-path="url(#pc3573e1060)" style="fill: none; stroke: #000000; stroke-width: 1.35; stroke-linecap: square"/>
   </g>
   <g id="line2d_2">
    <path d="M 30.8304 104.38992 
L 657.1296 104.38992 
" clip-path="url(#pc3573e1060)" style="fill: none; stroke: #000000; stroke-width: 1.15; stroke-linecap: square"/>
   </g>
   <g id="line2d_3">
    <path d="M 30.8304 294.66 
L 657.1296 294.66 
" clip-path="url(#pc3573e1060)" style="fill: none; stroke: #000000; stroke-width: 1.35; stroke-linecap: square"/>
   </g>
   <g id="line2d_4">
    <path d="M 30.8304 294.66 
L 30.8304 56.8224 
" clip-path="url(#pc3573e1060)" style="fill: none; stroke: #000000; stroke-width: 0.78; stroke-linecap: square"/>
   </g>
   <g id="line2d_5">
    <path d="M 187.4052 294.66 
L 187.4052 56.8224 
" clip-path="url(#pc3573e1060)" style="fill: none; stroke: #000000; stroke-width: 0.78; stroke-linecap: square"/>
   </g>
   <g id="line2d_6">
    <path d="M 300.139056 294.66 
L 300.139056 56.8224 
" clip-path="url(#pc3573e1060)" style="fill: none; stroke: #000000; stroke-width: 0.78; stroke-linecap: square"/>
   </g>
   <g id="line2d_7">
    <path d="M 425.398896 294.66 
L 425.398896 56.8224 
" clip-path="url(#pc3573e1060)" style="fill: none; stroke: #000000; stroke-width: 0.78; stroke-linecap: square"/>
   </g>
   <g id="line2d_8">
    <path d="M 531.86976 294.66 
L 531.86976 56.8224 
" clip-path="url(#pc3573e1060)" style="fill: none; stroke: #000000; stroke-width: 0.78; stroke-linecap: square"/>
   </g>
   <g id="line2d_9">
    <path d="M 657.1296 294.66 
L 657.1296 56.8224 
" clip-path="url(#pc3573e1060)" style="fill: none; stroke: #000000; stroke-width: 0.78; stroke-linecap: square"/>
   </g>
   <g id="line2d_10">
    <path d="M 30.8304 142.443936 
L 657.1296 142.443936 
" clip-path="url(#pc3573e1060)" style="fill: none; stroke: #000000; stroke-width: 0.55; stroke-linecap: square"/>
   </g>
   <g id="line2d_11">
    <path d="M 30.8304 180.497952 
L 657.1296 180.497952 
" clip-path="url(#pc3573e1060)" style="fill: none; stroke: #000000; stroke-width: 0.55; stroke-linecap: square"/>
   </g>
   <g id="line2d_12">
    <path d="M 30.8304 218.551968 
L 657.1296 218.551968 
" clip-path="url(#pc3573e1060)" style="fill: none; stroke: #000000; stroke-width: 0.55; stroke-linecap: square"/>
   </g>
   <g id="line2d_13">
    <path d="M 30.8304 256.605984 
L 657.1296 256.605984 
" clip-path="url(#pc3573e1060)" style="fill: none; stroke: #000000; stroke-width: 0.55; stroke-linecap: square"/>
   </g>
   <g id="line2d_14">
    <path d="M 30.8304 294.66 
L 657.1296 294.66 
" clip-path="url(#pc3573e1060)" style="fill: none; stroke: #000000; stroke-width: 0.55; stroke-linecap: square"/>
   </g>
   <g id="text_1">
    <!-- Final HalluGuard Delta Results -->
    <g style="fill: #111111" transform="translate(30.8304 28.463681) scale(0.174 -0.174)">
     <defs>
      <path id="DejaVuSerif-Bold-46" d="M 300 0 
L 300 378 
L 897 378 
L 897 4288 
L 300 4288 
L 300 4666 
L 4459 4666 
L 4459 3566 
L 4031 3566 
L 4031 4238 
L 2106 4238 
L 2106 2741 
L 3291 2741 
L 3291 3334 
L 3719 3334 
L 3719 1722 
L 3291 1722 
L 3291 2316 
L 2106 2316 
L 2106 378 
L 2841 378 
L 2841 0 
L 300 0 
z
" transform="scale(0.015625)"/>
      <path id="DejaVuSerif-Bold-69" d="M 588 4263 
Q 588 4516 763 4689 
Q 938 4863 1191 4863 
Q 1438 4863 1611 4689 
Q 1784 4516 1784 4263 
Q 1784 4016 1611 3842 
Q 1438 3669 1191 3669 
Q 938 3669 763 3841 
Q 588 4013 588 4263 
z
M 1797 378 
L 2272 378 
L 2272 0 
L 219 0 
L 219 378 
L 691 378 
L 691 2944 
L 219 2944 
L 219 3322 
L 1797 3322 
L 1797 378 
z
" transform="scale(0.015625)"/>
      <path id="DejaVuSerif-Bold-6e" d="M 219 0 
L 219 378 
L 691 378 
L 691 2944 
L 219 2944 
L 219 3322 
L 1797 3322 
L 1797 2853 
Q 1997 3150 2253 3281 
Q 2509 3413 2900 3413 
Q 3459 3413 3745 3083 
Q 4031 2753 4031 2113 
L 4031 378 
L 4506 378 
L 4506 0 
L 2522 0 
L 2522 378 
L 2925 378 
L 2925 2144 
Q 2925 2566 2817 2730 
Q 2709 2894 2444 2894 
Q 2109 2894 1953 2648 
Q 1797 2403 1797 1869 
L 1797 378 
L 2203 378 
L 2203 0 
L 219 0 
z
" transform="scale(0.015625)"/>
      <path id="DejaVuSerif-Bold-61" d="M 3525 2041 
L 3525 378 
L 4000 378 
L 4000 0 
L 2419 0 
L 2419 422 
Q 2200 159 1931 34 
Q 1663 -91 1319 -91 
Q 809 -91 536 182 
Q 263 456 263 966 
Q 263 1525 655 1803 
Q 1047 2081 1838 2081 
L 2419 2081 
L 2419 2278 
Q 2419 2681 2228 2873 
Q 2038 3066 1638 3066 
Q 1306 3066 1126 2930 
Q 947 2794 872 2484 
L 519 2484 
L 519 3200 
Q 816 3306 1134 3359 
Q 1453 3413 1806 3413 
Q 2697 3413 3111 3081 
Q 3525 2750 3525 2041 
z
M 2419 1044 
L 2419 1709 
L 2003 1709 
Q 1694 1709 1528 1540 
Q 1363 1372 1363 1056 
Q 1363 741 1483 584 
Q 1603 428 1850 428 
Q 2106 428 2262 597 
Q 2419 766 2419 1044 
z
" transform="scale(0.015625)"/>
      <path id="DejaVuSerif-Bold-6c" d="M 1797 378 
L 2272 378 
L 2272 0 
L 219 0 
L 219 378 
L 691 378 
L 691 4488 
L 219 4488 
L 219 4863 
L 1797 4863 
L 1797 378 
z
" transform="scale(0.015625)"/>
      <path id="DejaVuSerif-Bold-20" transform="scale(0.015625)"/>
      <path id="DejaVuSerif-Bold-48" d="M 300 0 
L 300 378 
L 897 378 
L 897 4288 
L 300 4288 
L 300 4666 
L 2700 4666 
L 2700 4288 
L 2100 4288 
L 2100 2719 
L 3956 2719 
L 3956 4288 
L 3359 4288 
L 3359 4666 
L 5759 4666 
L 5759 4288 
L 5159 4288 
L 5159 378 
L 5759 378 
L 5759 0 
L 3359 0 
L 3359 378 
L 3956 378 
L 3956 2291 
L 2100 2291 
L 2100 378 
L 2700 378 
L 2700 0 
L 300 0 
z
" transform="scale(0.015625)"/>
      <path id="DejaVuSerif-Bold-75" d="M 3963 3322 
L 3963 378 
L 4434 378 
L 4434 0 
L 2853 0 
L 2853 469 
Q 2656 172 2400 40 
Q 2144 -91 1753 -91 
Q 1194 -91 908 239 
Q 622 569 622 1209 
L 622 2944 
L 147 2944 
L 147 3322 
L 1728 3322 
L 1728 1381 
Q 1728 763 1831 595 
Q 1934 428 2209 428 
Q 2544 428 2698 675 
Q 2853 922 2853 1459 
L 2853 2944 
L 2450 2944 
L 2450 3322 
L 3963 3322 
z
" transform="scale(0.015625)"/>
      <path id="DejaVuSerif-Bold-47" d="M 4403 3200 
Q 4263 3819 3934 4095 
Q 3606 4372 3009 4372 
Q 2284 4372 1945 3880 
Q 1606 3388 1606 2328 
Q 1606 1278 1931 783 
Q 2256 288 2944 288 
Q 3206 288 3431 347 
Q 3656 406 3841 525 
L 3841 1806 
L 3278 1806 
L 3278 2181 
L 4959 2181 
L 4959 391 
Q 4434 147 3911 28 
Q 3388 -91 2841 -91 
Q 1641 -91 955 556 
Q 269 1203 269 2328 
Q 269 3456 955 4103 
Q 1641 4750 2841 4750 
Q 3341 4750 3825 4650 
Q 4309 4550 4800 4347 
L 4800 3200 
L 4403 3200 
z
" transform="scale(0.015625)"/>
      <path id="DejaVuSerif-Bold-72" d="M 3438 3359 
L 3438 2369 
L 3084 2369 
Q 3066 2634 2941 2764 
Q 2816 2894 2578 2894 
Q 2216 2894 2006 2575 
Q 1797 2256 1797 1691 
L 1797 378 
L 2400 378 
L 2400 0 
L 219 0 
L 219 378 
L 691 378 
L 691 2944 
L 184 2944 
L 184 3322 
L 1797 3322 
L 1797 2731 
Q 1959 3078 2226 3245 
Q 2494 3413 2881 3413 
Q 2978 3413 3117 3398 
Q 3256 3384 3438 3359 
z
" transform="scale(0.015625)"/>
      <path id="DejaVuSerif-Bold-64" d="M 2747 1497 
L 2747 1825 
Q 2747 2406 2597 2665 
Q 2447 2925 2119 2925 
Q 1775 2925 1636 2651 
Q 1497 2378 1497 1663 
Q 1497 947 1637 672 
Q 1778 397 2119 397 
Q 2447 397 2597 656 
Q 2747 916 2747 1497 
z
M 3853 378 
L 4325 378 
L 4325 0 
L 2747 0 
L 2747 422 
Q 2606 163 2367 36 
Q 2128 -91 1778 -91 
Q 1072 -91 667 378 
Q 263 847 263 1663 
Q 263 2481 667 2947 
Q 1072 3413 1778 3413 
Q 2128 3413 2367 3286 
Q 2606 3159 2747 2900 
L 2747 4488 
L 2272 4488 
L 2272 4863 
L 3853 4863 
L 3853 378 
z
" transform="scale(0.015625)"/>
      <path id="DejaVuSerif-Bold-44" d="M 2100 378 
L 2534 378 
Q 3266 378 3605 847 
Q 3944 1316 3944 2338 
Q 3944 3353 3606 3820 
Q 3269 4288 2534 4288 
L 2100 4288 
L 2100 378 
z
M 300 0 
L 300 378 
L 897 378 
L 897 4288 
L 300 4288 
L 300 4666 
L 2694 4666 
Q 3950 4666 4615 4066 
Q 5281 3466 5281 2338 
Q 5281 1203 4614 601 
Q 3947 0 2694 0 
L 300 0 
z
" transform="scale(0.015625)"/>
      <path id="DejaVuSerif-Bold-65" d="M 2566 1875 
Q 2566 2531 2444 2795 
Q 2322 3059 2028 3059 
Q 1744 3059 1620 2800 
Q 1497 2541 1497 1931 
L 1497 1875 
L 2566 1875 
z
M 3781 1503 
L 1497 1503 
L 1497 1478 
Q 1497 834 1690 548 
Q 1884 263 2316 263 
Q 2675 263 2897 453 
Q 3119 644 3181 1006 
L 3700 1006 
Q 3566 441 3166 175 
Q 2766 -91 2047 -91 
Q 1184 -91 723 364 
Q 263 819 263 1663 
Q 263 2488 734 2950 
Q 1206 3413 2047 3413 
Q 2872 3413 3312 2927 
Q 3753 2441 3781 1503 
z
" transform="scale(0.015625)"/>
      <path id="DejaVuSerif-Bold-74" d="M 634 2944 
L 153 2944 
L 153 3322 
L 634 3322 
L 634 4353 
L 1741 4353 
L 1741 3322 
L 2663 3322 
L 2663 2944 
L 1741 2944 
L 1741 909 
Q 1741 475 1809 369 
Q 1878 263 2059 263 
Q 2259 263 2356 397 
Q 2453 531 2459 813 
L 2925 813 
Q 2897 313 2651 111 
Q 2406 -91 1806 -91 
Q 1122 -91 878 123 
Q 634 338 634 909 
L 634 2944 
z
" transform="scale(0.015625)"/>
      <path id="DejaVuSerif-Bold-52" d="M 3397 2278 
Q 3675 2238 3865 2094 
Q 4056 1950 4197 1678 
L 4878 378 
L 5356 378 
L 5356 0 
L 3822 0 
L 3078 1409 
Q 2863 1847 2711 1967 
Q 2559 2088 2291 2088 
L 2100 2088 
L 2100 378 
L 2700 378 
L 2700 0 
L 300 0 
L 300 378 
L 897 378 
L 897 4288 
L 300 4288 
L 300 4666 
L 2963 4666 
Q 3775 4666 4217 4339 
Q 4659 4013 4659 3413 
Q 4659 2925 4345 2642 
Q 4031 2359 3397 2278 
z
M 2100 2463 
L 2509 2463 
Q 2947 2463 3183 2700 
Q 3419 2938 3419 3378 
Q 3419 3819 3183 4053 
Q 2947 4288 2509 4288 
L 2100 4288 
L 2100 2463 
z
" transform="scale(0.015625)"/>
      <path id="DejaVuSerif-Bold-73" d="M 300 97 
L 300 1025 
L 653 1025 
Q 697 653 931 458 
Q 1166 263 1569 263 
Q 1906 263 2086 380 
Q 2266 497 2266 716 
Q 2266 916 2152 1025 
Q 2038 1134 1709 1216 
L 1253 1331 
Q 738 1459 506 1698 
Q 275 1938 275 2344 
Q 275 2884 650 3148 
Q 1025 3413 1806 3413 
Q 2100 3413 2433 3364 
Q 2766 3316 3169 3213 
L 3169 2375 
L 2816 2375 
Q 2788 2716 2573 2887 
Q 2359 3059 1959 3059 
Q 1622 3059 1448 2951 
Q 1275 2844 1275 2638 
Q 1275 2469 1375 2372 
Q 1475 2275 1734 2209 
L 2188 2094 
Q 2841 1928 3091 1684 
Q 3341 1441 3341 1006 
Q 3341 444 2939 176 
Q 2538 -91 1691 -91 
Q 1381 -91 1034 -44 
Q 688 3 300 97 
z
" transform="scale(0.015625)"/>
     </defs>
     <use xlink:href="#DejaVuSerif-Bold-46"/>
     <use xlink:href="#DejaVuSerif-Bold-69" x="70.996094"/>
     <use xlink:href="#DejaVuSerif-Bold-6e" x="108.984375"/>
     <use xlink:href="#DejaVuSerif-Bold-61" x="181.689453"/>
     <use xlink:href="#DejaVuSerif-Bold-6c" x="246.484375"/>
     <use xlink:href="#DejaVuSerif-Bold-20" x="284.472656"/>
     <use xlink:href="#DejaVuSerif-Bold-48" x="319.287109"/>
     <use xlink:href="#DejaVuSerif-Bold-61" x="413.769531"/>
     <use xlink:href="#DejaVuSerif-Bold-6c" x="478.564453"/>
     <use xlink:href="#DejaVuSerif-Bold-6c" x="516.552734"/>
     <use xlink:href="#DejaVuSerif-Bold-75" x="554.541016"/>
     <use xlink:href="#DejaVuSerif-Bold-47" x="627.246094"/>
     <use xlink:href="#DejaVuSerif-Bold-75" x="712.646484"/>
     <use xlink:href="#DejaVuSerif-Bold-61" x="785.351562"/>
     <use xlink:href="#DejaVuSerif-Bold-72" x="850.146484"/>
     <use xlink:href="#DejaVuSerif-Bold-64" x="902.832031"/>
     <use xlink:href="#DejaVuSerif-Bold-20" x="972.753906"/>
     <use xlink:href="#DejaVuSerif-Bold-44" x="1007.568359"/>
     <use xlink:href="#DejaVuSerif-Bold-65" x="1094.287109"/>
     <use xlink:href="#DejaVuSerif-Bold-6c" x="1157.910156"/>
     <use xlink:href="#DejaVuSerif-Bold-74" x="1195.898438"/>
     <use xlink:href="#DejaVuSerif-Bold-61" x="1242.089844"/>
     <use xlink:href="#DejaVuSerif-Bold-20" x="1306.884766"/>
     <use xlink:href="#DejaVuSerif-Bold-52" x="1341.699219"/>
     <use xlink:href="#DejaVuSerif-Bold-65" x="1424.804688"/>
     <use xlink:href="#DejaVuSerif-Bold-73" x="1488.427734"/>
     <use xlink:href="#DejaVuSerif-Bold-75" x="1544.726562"/>
     <use xlink:href="#DejaVuSerif-Bold-6c" x="1617.431641"/>
     <use xlink:href="#DejaVuSerif-Bold-74" x="1655.419922"/>
     <use xlink:href="#DejaVuSerif-Bold-73" x="1701.611328"/>
    </g>
   </g>
   <g id="text_2">
    <!-- MSE delta percentage vs. no correction. Lower is better; positive values indicate harm. -->
    <g style="fill: #555555" transform="translate(30.8304 37.752233) scale(0.108 -0.108)">
     <defs>
      <path id="DejaVuSerif-4d" d="M 353 0 
L 353 331 
L 947 331 
L 947 4331 
L 319 4331 
L 319 4666 
L 1678 4666 
L 3316 1344 
L 4953 4666 
L 6228 4666 
L 6228 4331 
L 5606 4331 
L 5606 331 
L 6203 331 
L 6203 0 
L 4378 0 
L 4378 331 
L 4972 331 
L 4972 3938 
L 3372 684 
L 2931 684 
L 1331 3938 
L 1331 331 
L 1925 331 
L 1925 0 
L 353 0 
z
" transform="scale(0.015625)"/>
      <path id="DejaVuSerif-53" d="M 594 225 
L 594 1288 
L 953 1284 
Q 969 753 1261 498 
Q 1553 244 2150 244 
Q 2706 244 2998 464 
Q 3291 684 3291 1106 
Q 3291 1444 3114 1625 
Q 2938 1806 2369 1978 
L 1753 2163 
Q 1084 2366 811 2669 
Q 538 2972 538 3500 
Q 538 4094 959 4422 
Q 1381 4750 2144 4750 
Q 2469 4750 2856 4679 
Q 3244 4609 3681 4475 
L 3681 3481 
L 3328 3481 
Q 3275 3975 2998 4195 
Q 2722 4416 2156 4416 
Q 1663 4416 1405 4214 
Q 1147 4013 1147 3628 
Q 1147 3294 1340 3103 
Q 1534 2913 2163 2725 
L 2741 2553 
Q 3375 2363 3645 2067 
Q 3916 1772 3916 1275 
Q 3916 597 3481 253 
Q 3047 -91 2188 -91 
Q 1803 -91 1404 -12 
Q 1006 66 594 225 
z
" transform="scale(0.015625)"/>
      <path id="DejaVuSerif-45" d="M 353 0 
L 353 331 
L 947 331 
L 947 4331 
L 353 4331 
L 353 4666 
L 4109 4666 
L 4109 3628 
L 3725 3628 
L 3725 4281 
L 1581 4281 
L 1581 2719 
L 3109 2719 
L 3109 3303 
L 3494 3303 
L 3494 1753 
L 3109 1753 
L 3109 2338 
L 1581 2338 
L 1581 384 
L 3775 384 
L 3775 1038 
L 4159 1038 
L 4159 0 
L 353 0 
z
" transform="scale(0.015625)"/>
      <path id="DejaVuSerif-20" transform="scale(0.015625)"/>
      <path id="DejaVuSerif-64" d="M 3359 331 
L 3909 331 
L 3909 0 
L 2784 0 
L 2784 519 
Q 2616 206 2355 57 
Q 2094 -91 1709 -91 
Q 1097 -91 708 395 
Q 319 881 319 1663 
Q 319 2444 706 2928 
Q 1094 3413 1709 3413 
Q 2094 3413 2355 3264 
Q 2616 3116 2784 2803 
L 2784 4531 
L 2241 4531 
L 2241 4863 
L 3359 4863 
L 3359 331 
z
M 2784 1497 
L 2784 1825 
Q 2784 2422 2554 2737 
Q 2325 3053 1888 3053 
Q 1444 3053 1217 2703 
Q 991 2353 991 1663 
Q 991 975 1217 622 
Q 1444 269 1888 269 
Q 2325 269 2554 583 
Q 2784 897 2784 1497 
z
" transform="scale(0.015625)"/>
      <path id="DejaVuSerif-65" d="M 3469 1600 
L 991 1600 
L 991 1575 
Q 991 903 1244 561 
Q 1497 219 1991 219 
Q 2369 219 2611 417 
Q 2853 616 2950 1006 
L 3413 1006 
Q 3275 459 2904 184 
Q 2534 -91 1931 -91 
Q 1203 -91 761 389 
Q 319 869 319 1663 
Q 319 2450 753 2931 
Q 1188 3413 1894 3413 
Q 2647 3413 3050 2948 
Q 3453 2484 3469 1600 
z
M 2791 1931 
Q 2772 2513 2545 2808 
Q 2319 3103 1894 3103 
Q 1497 3103 1269 2806 
Q 1041 2509 991 1931 
L 2791 1931 
z
" transform="scale(0.015625)"/>
      <path id="DejaVuSerif-6c" d="M 1313 331 
L 1856 331 
L 1856 0 
L 184 0 
L 184 331 
L 738 331 
L 738 4531 
L 184 4531 
L 184 4863 
L 1313 4863 
L 1313 331 
z
" transform="scale(0.015625)"/>
      <path id="DejaVuSerif-74" d="M 691 2988 
L 184 2988 
L 184 3322 
L 691 3322 
L 691 4353 
L 1269 4353 
L 1269 3322 
L 2350 3322 
L 2350 2988 
L 1269 2988 
L 1269 878 
Q 1269 456 1350 337 
Q 1431 219 1650 219 
Q 1875 219 1978 351 
Q 2081 484 2088 781 
L 2522 781 
Q 2497 328 2275 118 
Q 2053 -91 1600 -91 
Q 1103 -91 897 129 
Q 691 350 691 878 
L 691 2988 
z
" transform="scale(0.015625)"/>
      <path id="DejaVuSerif-61" d="M 2547 1044 
L 2547 1747 
L 1806 1747 
Q 1378 1747 1168 1562 
Q 959 1378 959 997 
Q 959 650 1171 447 
Q 1384 244 1747 244 
Q 2106 244 2326 466 
Q 2547 688 2547 1044 
z
M 3122 2075 
L 3122 331 
L 3634 331 
L 3634 0 
L 2547 0 
L 2547 359 
Q 2356 128 2106 18 
Q 1856 -91 1522 -91 
Q 969 -91 644 203 
Q 319 497 319 997 
Q 319 1513 691 1797 
Q 1063 2081 1741 2081 
L 2547 2081 
L 2547 2309 
Q 2547 2688 2317 2895 
Q 2088 3103 1672 3103 
Q 1328 3103 1125 2947 
Q 922 2791 872 2484 
L 575 2484 
L 575 3156 
Q 875 3284 1158 3348 
Q 1441 3413 1709 3413 
Q 2400 3413 2761 3070 
Q 3122 2728 3122 2075 
z
" transform="scale(0.015625)"/>
      <path id="DejaVuSerif-70" d="M 1313 1825 
L 1313 1497 
Q 1313 897 1542 583 
Q 1772 269 2209 269 
Q 2650 269 2876 622 
Q 3103 975 3103 1663 
Q 3103 2353 2876 2703 
Q 2650 3053 2209 3053 
Q 1772 3053 1542 2737 
Q 1313 2422 1313 1825 
z
M 738 2988 
L 184 2988 
L 184 3322 
L 1313 3322 
L 1313 2803 
Q 1481 3116 1742 3264 
Q 2003 3413 2388 3413 
Q 3000 3413 3387 2928 
Q 3775 2444 3775 1663 
Q 3775 881 3387 395 
Q 3000 -91 2388 -91 
Q 2003 -91 1742 57 
Q 1481 206 1313 519 
L 1313 -997 
L 1856 -997 
L 1856 -1331 
L 184 -1331 
L 184 -997 
L 738 -997 
L 738 2988 
z
" transform="scale(0.015625)"/>
      <path id="DejaVuSerif-72" d="M 3059 3328 
L 3059 2497 
L 2728 2497 
Q 2713 2744 2591 2866 
Q 2469 2988 2234 2988 
Q 1809 2988 1582 2694 
Q 1356 2400 1356 1850 
L 1356 331 
L 2022 331 
L 2022 0 
L 263 0 
L 263 331 
L 781 331 
L 781 2994 
L 231 2994 
L 231 3322 
L 1356 3322 
L 1356 2731 
Q 1525 3078 1790 3245 
Q 2056 3413 2438 3413 
Q 2578 3413 2733 3391 
Q 2888 3369 3059 3328 
z
" transform="scale(0.015625)"/>
      <path id="DejaVuSerif-63" d="M 3291 997 
Q 3169 466 2822 187 
Q 2475 -91 1925 -91 
Q 1200 -91 759 389 
Q 319 869 319 1663 
Q 319 2459 759 2936 
Q 1200 3413 1925 3413 
Q 2241 3413 2553 3339 
Q 2866 3266 3181 3116 
L 3181 2266 
L 2847 2266 
Q 2781 2703 2561 2903 
Q 2341 3103 1931 3103 
Q 1466 3103 1228 2742 
Q 991 2381 991 1663 
Q 991 944 1227 581 
Q 1463 219 1931 219 
Q 2303 219 2525 412 
Q 2747 606 2828 997 
L 3291 997 
z
" transform="scale(0.015625)"/>
      <path id="DejaVuSerif-6e" d="M 263 0 
L 263 331 
L 781 331 
L 781 2988 
L 231 2988 
L 231 3322 
L 1356 3322 
L 1356 2731 
Q 1516 3069 1770 3241 
Q 2025 3413 2363 3413 
Q 2913 3413 3172 3097 
Q 3431 2781 3431 2113 
L 3431 331 
L 3944 331 
L 3944 0 
L 2356 0 
L 2356 331 
L 2853 331 
L 2853 1931 
Q 2853 2541 2703 2767 
Q 2553 2994 2175 2994 
Q 1775 2994 1565 2701 
Q 1356 2409 1356 1850 
L 1356 331 
L 1856 331 
L 1856 0 
L 263 0 
z
" transform="scale(0.015625)"/>
      <path id="DejaVuSerif-67" d="M 3359 2988 
L 3359 72 
Q 3359 -644 2965 -1033 
Q 2572 -1422 1844 -1422 
Q 1516 -1422 1216 -1362 
Q 916 -1303 641 -1184 
L 641 -488 
L 941 -488 
Q 997 -813 1206 -963 
Q 1416 -1113 1806 -1113 
Q 2313 -1113 2548 -827 
Q 2784 -541 2784 72 
L 2784 519 
Q 2616 206 2355 57 
Q 2094 -91 1709 -91 
Q 1097 -91 708 395 
Q 319 881 319 1663 
Q 319 2444 706 2928 
Q 1094 3413 1709 3413 
Q 2094 3413 2355 3264 
Q 2616 3116 2784 2803 
L 2784 3322 
L 3909 3322 
L 3909 2988 
L 3359 2988 
z
M 2784 1825 
Q 2784 2422 2554 2737 
Q 2325 3053 1888 3053 
Q 1444 3053 1217 2703 
Q 991 2353 991 1663 
Q 991 975 1217 622 
Q 1444 269 1888 269 
Q 2325 269 2554 583 
Q 2784 897 2784 1497 
L 2784 1825 
z
" transform="scale(0.015625)"/>
      <path id="DejaVuSerif-76" d="M 1581 0 
L 359 2988 
L -19 2988 
L -19 3322 
L 1509 3322 
L 1509 2988 
L 978 2988 
L 1913 703 
L 2847 2988 
L 2350 2988 
L 2350 3322 
L 3597 3322 
L 3597 2988 
L 3225 2988 
L 2003 0 
L 1581 0 
z
" transform="scale(0.015625)"/>
      <path id="DejaVuSerif-73" d="M 359 184 
L 359 959 
L 691 959 
Q 703 588 923 403 
Q 1144 219 1575 219 
Q 1963 219 2166 364 
Q 2369 509 2369 788 
Q 2369 1006 2220 1140 
Q 2072 1275 1594 1428 
L 1178 1569 
Q 750 1706 558 1912 
Q 366 2119 366 2438 
Q 366 2894 700 3153 
Q 1034 3413 1625 3413 
Q 1888 3413 2178 3344 
Q 2469 3275 2778 3144 
L 2778 2419 
L 2447 2419 
Q 2434 2741 2221 2922 
Q 2009 3103 1644 3103 
Q 1281 3103 1095 2975 
Q 909 2847 909 2591 
Q 909 2381 1050 2254 
Q 1191 2128 1613 1997 
L 2069 1856 
Q 2541 1709 2748 1489 
Q 2956 1269 2956 922 
Q 2956 450 2595 179 
Q 2234 -91 1600 -91 
Q 1278 -91 972 -22 
Q 666 47 359 184 
z
" transform="scale(0.015625)"/>
      <path id="DejaVuSerif-2e" d="M 603 325 
Q 603 500 722 622 
Q 841 744 1019 744 
Q 1191 744 1312 622 
Q 1434 500 1434 325 
Q 1434 153 1312 31 
Q 1191 -91 1019 -91 
Q 841 -91 722 29 
Q 603 150 603 325 
z
" transform="scale(0.015625)"/>
      <path id="DejaVuSerif-6f" d="M 1925 219 
Q 2388 219 2623 584 
Q 2859 950 2859 1663 
Q 2859 2375 2623 2739 
Q 2388 3103 1925 3103 
Q 1463 3103 1227 2739 
Q 991 2375 991 1663 
Q 991 950 1228 584 
Q 1466 219 1925 219 
z
M 1925 -91 
Q 1200 -91 759 389 
Q 319 869 319 1663 
Q 319 2456 758 2934 
Q 1197 3413 1925 3413 
Q 2653 3413 3092 2934 
Q 3531 2456 3531 1663 
Q 3531 869 3092 389 
Q 2653 -91 1925 -91 
z
" transform="scale(0.015625)"/>
      <path id="DejaVuSerif-69" d="M 622 4353 
Q 622 4497 726 4603 
Q 831 4709 978 4709 
Q 1122 4709 1226 4603 
Q 1331 4497 1331 4353 
Q 1331 4206 1228 4103 
Q 1125 4000 978 4000 
Q 831 4000 726 4103 
Q 622 4206 622 4353 
z
M 1356 331 
L 1900 331 
L 1900 0 
L 231 0 
L 231 331 
L 781 331 
L 781 2988 
L 231 2988 
L 231 3322 
L 1356 3322 
L 1356 331 
z
" transform="scale(0.015625)"/>
      <path id="DejaVuSerif-4c" d="M 353 0 
L 353 331 
L 947 331 
L 947 4331 
L 353 4331 
L 353 4666 
L 2175 4666 
L 2175 4331 
L 1581 4331 
L 1581 384 
L 3713 384 
L 3713 1166 
L 4097 1166 
L 4097 0 
L 353 0 
z
" transform="scale(0.015625)"/>
      <path id="DejaVuSerif-77" d="M 3072 3322 
L 3922 728 
L 4672 2988 
L 4191 2988 
L 4191 3322 
L 5394 3322 
L 5394 2988 
L 5025 2988 
L 4038 0 
L 3559 0 
L 2741 2484 
L 1919 0 
L 1459 0 
L 475 2988 
L 103 2988 
L 103 3322 
L 1606 3322 
L 1606 2988 
L 1069 2988 
L 1813 728 
L 2669 3322 
L 3072 3322 
z
" transform="scale(0.015625)"/>
      <path id="DejaVuSerif-62" d="M 738 331 
L 738 4531 
L 184 4531 
L 184 4863 
L 1313 4863 
L 1313 2803 
Q 1481 3116 1742 3264 
Q 2003 3413 2388 3413 
Q 3000 3413 3387 2928 
Q 3775 2444 3775 1663 
Q 3775 881 3387 395 
Q 3000 -91 2388 -91 
Q 2003 -91 1742 57 
Q 1481 206 1313 519 
L 1313 0 
L 184 0 
L 184 331 
L 738 331 
z
M 1313 1497 
Q 1313 897 1542 583 
Q 1772 269 2209 269 
Q 2650 269 2876 622 
Q 3103 975 3103 1663 
Q 3103 2353 2876 2703 
Q 2650 3053 2209 3053 
Q 1772 3053 1542 2737 
Q 1313 2422 1313 1825 
L 1313 1497 
z
" transform="scale(0.015625)"/>
      <path id="DejaVuSerif-3b" d="M 231 -622 
Q 525 -406 662 -114 
Q 800 178 800 594 
L 800 709 
L 1416 709 
Q 1391 175 1164 -208 
Q 938 -591 481 -872 
L 231 -622 
z
M 678 2363 
Q 678 2538 798 2658 
Q 919 2778 1094 2778 
Q 1269 2778 1389 2656 
Q 1509 2534 1509 2363 
Q 1509 2188 1389 2067 
Q 1269 1947 1094 1947 
Q 919 1947 798 2067 
Q 678 2188 678 2363 
z
" transform="scale(0.015625)"/>
      <path id="DejaVuSerif-75" d="M 2266 3322 
L 3341 3322 
L 3341 331 
L 3884 331 
L 3884 0 
L 2766 0 
L 2766 588 
Q 2606 256 2353 82 
Q 2100 -91 1766 -91 
Q 1213 -91 952 223 
Q 691 538 691 1209 
L 691 2988 
L 172 2988 
L 172 3322 
L 1269 3322 
L 1269 1388 
Q 1269 781 1417 556 
Q 1566 331 1947 331 
Q 2347 331 2556 625 
Q 2766 919 2766 1478 
L 2766 2988 
L 2266 2988 
L 2266 3322 
z
" transform="scale(0.015625)"/>
      <path id="DejaVuSerif-68" d="M 263 0 
L 263 331 
L 781 331 
L 781 4531 
L 231 4531 
L 231 4863 
L 1356 4863 
L 1356 2731 
Q 1516 3069 1770 3241 
Q 2025 3413 2363 3413 
Q 2913 3413 3172 3097 
Q 3431 2781 3431 2113 
L 3431 331 
L 3944 331 
L 3944 0 
L 2356 0 
L 2356 331 
L 2853 331 
L 2853 1931 
Q 2853 2541 2704 2764 
Q 2556 2988 2175 2988 
Q 1775 2988 1565 2697 
Q 1356 2406 1356 1850 
L 1356 331 
L 1856 331 
L 1856 0 
L 263 0 
z
" transform="scale(0.015625)"/>
      <path id="DejaVuSerif-6d" d="M 3316 2675 
Q 3481 3041 3739 3227 
Q 3997 3413 4341 3413 
Q 4863 3413 5119 3089 
Q 5375 2766 5375 2113 
L 5375 331 
L 5894 331 
L 5894 0 
L 4300 0 
L 4300 331 
L 4800 331 
L 4800 2047 
Q 4800 2556 4650 2772 
Q 4500 2988 4153 2988 
Q 3769 2988 3567 2697 
Q 3366 2406 3366 1850 
L 3366 331 
L 3866 331 
L 3866 0 
L 2291 0 
L 2291 331 
L 2791 331 
L 2791 2069 
Q 2791 2566 2641 2777 
Q 2491 2988 2144 2988 
Q 1759 2988 1557 2697 
Q 1356 2406 1356 1850 
L 1356 331 
L 1856 331 
L 1856 0 
L 263 0 
L 263 331 
L 781 331 
L 781 2994 
L 231 2994 
L 231 3322 
L 1356 3322 
L 1356 2731 
Q 1516 3063 1762 3238 
Q 2009 3413 2322 3413 
Q 2709 3413 2968 3220 
Q 3228 3028 3316 2675 
z
" transform="scale(0.015625)"/>
     </defs>
     <use xlink:href="#DejaVuSerif-4d"/>
     <use xlink:href="#DejaVuSerif-53" x="102.392578"/>
     <use xlink:href="#DejaVuSerif-45" x="170.898438"/>
     <use xlink:href="#DejaVuSerif-20" x="243.896484"/>
     <use xlink:href="#DejaVuSerif-64" x="275.683594"/>
     <use xlink:href="#DejaVuSerif-65" x="339.697266"/>
     <use xlink:href="#DejaVuSerif-6c" x="398.876953"/>
     <use xlink:href="#DejaVuSerif-74" x="430.859375"/>
     <use xlink:href="#DejaVuSerif-61" x="471.044922"/>
     <use xlink:href="#DejaVuSerif-20" x="530.664062"/>
     <use xlink:href="#DejaVuSerif-70" x="562.451172"/>
     <use xlink:href="#DejaVuSerif-65" x="626.464844"/>
     <use xlink:href="#DejaVuSerif-72" x="685.644531"/>
     <use xlink:href="#DejaVuSerif-63" x="733.447266"/>
     <use xlink:href="#DejaVuSerif-65" x="789.453125"/>
     <use xlink:href="#DejaVuSerif-6e" x="848.632812"/>
     <use xlink:href="#DejaVuSerif-74" x="913.037109"/>
     <use xlink:href="#DejaVuSerif-61" x="953.222656"/>
     <use xlink:href="#DejaVuSerif-67" x="1012.841797"/>
     <use xlink:href="#DejaVuSerif-65" x="1076.855469"/>
     <use xlink:href="#DejaVuSerif-20" x="1136.035156"/>
     <use xlink:href="#DejaVuSerif-76" x="1167.822266"/>
     <use xlink:href="#DejaVuSerif-73" x="1224.316406"/>
     <use xlink:href="#DejaVuSerif-2e" x="1275.634766"/>
     <use xlink:href="#DejaVuSerif-20" x="1307.421875"/>
     <use xlink:href="#DejaVuSerif-6e" x="1339.208984"/>
     <use xlink:href="#DejaVuSerif-6f" x="1403.613281"/>
     <use xlink:href="#DejaVuSerif-20" x="1463.818359"/>
     <use xlink:href="#DejaVuSerif-63" x="1495.605469"/>
     <use xlink:href="#DejaVuSerif-6f" x="1551.611328"/>
     <use xlink:href="#DejaVuSerif-72" x="1611.816406"/>
     <use xlink:href="#DejaVuSerif-72" x="1659.619141"/>
     <use xlink:href="#DejaVuSerif-65" x="1707.421875"/>
     <use xlink:href="#DejaVuSerif-63" x="1766.601562"/>
     <use xlink:href="#DejaVuSerif-74" x="1822.607422"/>
     <use xlink:href="#DejaVuSerif-69" x="1862.792969"/>
     <use xlink:href="#DejaVuSerif-6f" x="1894.775391"/>
     <use xlink:href="#DejaVuSerif-6e" x="1954.980469"/>
     <use xlink:href="#DejaVuSerif-2e" x="2019.384766"/>
     <use xlink:href="#DejaVuSerif-20" x="2051.171875"/>
     <use xlink:href="#DejaVuSerif-4c" x="2082.958984"/>
     <use xlink:href="#DejaVuSerif-6f" x="2149.365234"/>
     <use xlink:href="#DejaVuSerif-77" x="2209.570312"/>
     <use xlink:href="#DejaVuSerif-65" x="2295.166016"/>
     <use xlink:href="#DejaVuSerif-72" x="2354.345703"/>
     <use xlink:href="#DejaVuSerif-20" x="2402.148438"/>
     <use xlink:href="#DejaVuSerif-69" x="2433.935547"/>
     <use xlink:href="#DejaVuSerif-73" x="2465.917969"/>
     <use xlink:href="#DejaVuSerif-20" x="2517.236328"/>
     <use xlink:href="#DejaVuSerif-62" x="2549.023438"/>
     <use xlink:href="#DejaVuSerif-65" x="2613.037109"/>
     <use xlink:href="#DejaVuSerif-74" x="2672.216797"/>
     <use xlink:href="#DejaVuSerif-74" x="2712.402344"/>
     <use xlink:href="#DejaVuSerif-65" x="2752.587891"/>
     <use xlink:href="#DejaVuSerif-72" x="2811.767578"/>
     <use xlink:href="#DejaVuSerif-3b" x="2859.570312"/>
     <use xlink:href="#DejaVuSerif-20" x="2893.261719"/>
     <use xlink:href="#DejaVuSerif-70" x="2925.048828"/>
     <use xlink:href="#DejaVuSerif-6f" x="2989.0625"/>
     <use xlink:href="#DejaVuSerif-73" x="3049.267578"/>
     <use xlink:href="#DejaVuSerif-69" x="3100.585938"/>
     <use xlink:href="#DejaVuSerif-74" x="3132.568359"/>
     <use xlink:href="#DejaVuSerif-69" x="3172.753906"/>
     <use xlink:href="#DejaVuSerif-76" x="3204.736328"/>
     <use xlink:href="#DejaVuSerif-65" x="3261.230469"/>
     <use xlink:href="#DejaVuSerif-20" x="3320.410156"/>
     <use xlink:href="#DejaVuSerif-76" x="3352.197266"/>
     <use xlink:href="#DejaVuSerif-61" x="3408.691406"/>
     <use xlink:href="#DejaVuSerif-6c" x="3468.310547"/>
     <use xlink:href="#DejaVuSerif-75" x="3500.292969"/>
     <use xlink:href="#DejaVuSerif-65" x="3564.697266"/>
     <use xlink:href="#DejaVuSerif-73" x="3623.876953"/>
     <use xlink:href="#DejaVuSerif-20" x="3675.195312"/>
     <use xlink:href="#DejaVuSerif-69" x="3706.982422"/>
     <use xlink:href="#DejaVuSerif-6e" x="3738.964844"/>
     <use xlink:href="#DejaVuSerif-64" x="3803.369141"/>
     <use xlink:href="#DejaVuSerif-69" x="3867.382812"/>
     <use xlink:href="#DejaVuSerif-63" x="3899.365234"/>
     <use xlink:href="#DejaVuSerif-61" x="3955.371094"/>
     <use xlink:href="#DejaVuSerif-74" x="4014.990234"/>
     <use xlink:href="#DejaVuSerif-65" x="4055.175781"/>
     <use xlink:href="#DejaVuSerif-20" x="4114.355469"/>
     <use xlink:href="#DejaVuSerif-68" x="4146.142578"/>
     <use xlink:href="#DejaVuSerif-61" x="4210.546875"/>
     <use xlink:href="#DejaVuSerif-72" x="4270.166016"/>
     <use xlink:href="#DejaVuSerif-6d" x="4317.96875"/>
     <use xlink:href="#DejaVuSerif-2e" x="4412.792969"/>
    </g>
   </g>
   <g id="text_3">
    <!-- Methods -->
    <g transform="translate(79.464175 83.972598) scale(0.122 -0.122)">
     <defs>
      <path id="DejaVuSerif-Bold-4d" d="M 269 0 
L 269 378 
L 863 378 
L 863 4288 
L 269 4288 
L 269 4666 
L 2194 4666 
L 3525 1672 
L 4863 4666 
L 6784 4666 
L 6784 4288 
L 6188 4288 
L 6188 378 
L 6784 378 
L 6784 0 
L 4384 0 
L 4384 378 
L 4978 378 
L 4978 3938 
L 3531 684 
L 2741 684 
L 1300 3938 
L 1300 378 
L 1894 378 
L 1894 0 
L 269 0 
z
" transform="scale(0.015625)"/>
      <path id="DejaVuSerif-Bold-68" d="M 219 0 
L 219 378 
L 691 378 
L 691 4488 
L 197 4488 
L 197 4863 
L 1797 4863 
L 1797 2853 
Q 1997 3150 2253 3281 
Q 2509 3413 2900 3413 
Q 3459 3413 3745 3083 
Q 4031 2753 4031 2113 
L 4031 378 
L 4506 378 
L 4506 0 
L 2522 0 
L 2522 378 
L 2925 378 
L 2925 2144 
Q 2925 2566 2817 2730 
Q 2709 2894 2444 2894 
Q 2109 2894 1953 2648 
Q 1797 2403 1797 1869 
L 1797 378 
L 2203 378 
L 2203 0 
L 219 0 
z
" transform="scale(0.015625)"/>
      <path id="DejaVuSerif-Bold-6f" d="M 2138 263 
Q 2488 263 2630 563 
Q 2772 863 2772 1663 
Q 2772 2463 2631 2761 
Q 2491 3059 2138 3059 
Q 1784 3059 1640 2757 
Q 1497 2456 1497 1663 
Q 1497 869 1640 566 
Q 1784 263 2138 263 
z
M 2138 -91 
Q 1259 -91 761 376 
Q 263 844 263 1663 
Q 263 2484 761 2948 
Q 1259 3413 2138 3413 
Q 3019 3413 3516 2948 
Q 4013 2484 4013 1663 
Q 4013 844 3514 376 
Q 3016 -91 2138 -91 
z
" transform="scale(0.015625)"/>
     </defs>
     <use xlink:href="#DejaVuSerif-Bold-4d"/>
     <use xlink:href="#DejaVuSerif-Bold-65" x="110.693359"/>
     <use xlink:href="#DejaVuSerif-Bold-74" x="174.316406"/>
     <use xlink:href="#DejaVuSerif-Bold-68" x="220.507812"/>
     <use xlink:href="#DejaVuSerif-Bold-6f" x="293.212891"/>
     <use xlink:href="#DejaVuSerif-Bold-64" x="359.912109"/>
     <use xlink:href="#DejaVuSerif-Bold-73" x="429.833984"/>
    </g>
   </g>
   <g id="text_4">
    <!-- Clean -->
    <g transform="translate(224.331237 77.698138) scale(0.122 -0.122)">
     <defs>
      <path id="DejaVuSerif-Bold-43" d="M 4769 1331 
Q 4584 609 4106 259 
Q 3628 -91 2822 -91 
Q 1641 -91 955 561 
Q 269 1213 269 2328 
Q 269 3447 955 4098 
Q 1641 4750 2822 4750 
Q 3238 4750 3688 4650 
Q 4138 4550 4641 4347 
L 4641 3200 
L 4244 3200 
Q 4122 3788 3800 4080 
Q 3478 4372 2950 4372 
Q 2269 4372 1937 3870 
Q 1606 3369 1606 2328 
Q 1606 1288 1937 788 
Q 2269 288 2956 288 
Q 3422 288 3717 547 
Q 4013 806 4147 1331 
L 4769 1331 
z
" transform="scale(0.015625)"/>
     </defs>
     <use xlink:href="#DejaVuSerif-Bold-43"/>
     <use xlink:href="#DejaVuSerif-Bold-6c" x="79.589844"/>
     <use xlink:href="#DejaVuSerif-Bold-65" x="117.578125"/>
     <use xlink:href="#DejaVuSerif-Bold-61" x="181.201172"/>
     <use xlink:href="#DejaVuSerif-Bold-6e" x="245.996094"/>
    </g>
    <!-- MSE delta -->
    <g transform="translate(208.608487 90.247058) scale(0.122 -0.122)">
     <defs>
      <path id="DejaVuSerif-Bold-53" d="M 494 225 
L 494 1331 
L 891 1331 
Q 981 806 1318 547 
Q 1656 288 2253 288 
Q 2738 288 2991 472 
Q 3244 656 3244 1013 
Q 3244 1294 3072 1450 
Q 2900 1606 2363 1741 
L 1663 1913 
Q 978 2088 700 2398 
Q 422 2709 422 3284 
Q 422 3978 883 4364 
Q 1344 4750 2175 4750 
Q 2584 4750 3026 4681 
Q 3469 4613 3944 4475 
L 3944 3444 
L 3547 3444 
Q 3456 3925 3150 4148 
Q 2844 4372 2278 4372 
Q 1816 4372 1580 4211 
Q 1344 4050 1344 3731 
Q 1344 3441 1506 3289 
Q 1669 3138 2303 2975 
L 3003 2803 
Q 3653 2641 3945 2297 
Q 4238 1953 4238 1350 
Q 4238 644 3750 276 
Q 3263 -91 2316 -91 
Q 1859 -91 1409 -12 
Q 959 66 494 225 
z
" transform="scale(0.015625)"/>
      <path id="DejaVuSerif-Bold-45" d="M 300 0 
L 300 378 
L 897 378 
L 897 4288 
L 300 4288 
L 300 4666 
L 4494 4666 
L 4494 3566 
L 4063 3566 
L 4063 4238 
L 2100 4238 
L 2100 2741 
L 3322 2741 
L 3322 3334 
L 3750 3334 
L 3750 1722 
L 3322 1722 
L 3322 2316 
L 2100 2316 
L 2100 428 
L 4122 428 
L 4122 1100 
L 4550 1100 
L 4550 0 
L 300 0 
z
" transform="scale(0.015625)"/>
     </defs>
     <use xlink:href="#DejaVuSerif-Bold-4d"/>
     <use xlink:href="#DejaVuSerif-Bold-53" x="110.693359"/>
     <use xlink:href="#DejaVuSerif-Bold-45" x="182.910156"/>
     <use xlink:href="#DejaVuSerif-Bold-20" x="259.130859"/>
     <use xlink:href="#DejaVuSerif-Bold-64" x="293.945312"/>
     <use xlink:href="#DejaVuSerif-Bold-65" x="363.867188"/>
     <use xlink:href="#DejaVuSerif-Bold-6c" x="427.490234"/>
     <use xlink:href="#DejaVuSerif-Bold-74" x="465.478516"/>
     <use xlink:href="#DejaVuSerif-Bold-61" x="511.669922"/>
    </g>
   </g>
   <g id="text_5">
    <!-- Clean PatchTST -->
    <g transform="translate(308.373179 77.698138) scale(0.122 -0.122)">
     <defs>
      <path id="DejaVuSerif-Bold-50" d="M 300 0 
L 300 378 
L 897 378 
L 897 4288 
L 300 4288 
L 300 4666 
L 2956 4666 
Q 3734 4666 4193 4295 
Q 4653 3925 4653 3303 
Q 4653 2678 4192 2304 
Q 3731 1931 2956 1931 
L 2100 1931 
L 2100 378 
L 2853 378 
L 2853 0 
L 300 0 
z
M 2100 2309 
L 2450 2309 
Q 2856 2309 3098 2579 
Q 3341 2850 3341 3303 
Q 3341 3753 3100 4020 
Q 2859 4288 2450 4288 
L 2100 4288 
L 2100 2309 
z
" transform="scale(0.015625)"/>
      <path id="DejaVuSerif-Bold-63" d="M 3609 1038 
Q 3491 469 3123 189 
Q 2756 -91 2125 -91 
Q 1238 -91 750 368 
Q 263 828 263 1663 
Q 263 2488 744 2950 
Q 1225 3413 2081 3413 
Q 2428 3413 2781 3347 
Q 3134 3281 3500 3150 
L 3500 2228 
L 3150 2228 
Q 3100 2650 2903 2854 
Q 2706 3059 2350 3059 
Q 1888 3059 1692 2746 
Q 1497 2434 1497 1663 
Q 1497 909 1687 586 
Q 1878 263 2309 263 
Q 2644 263 2845 463 
Q 3047 663 3091 1038 
L 3609 1038 
z
" transform="scale(0.015625)"/>
      <path id="DejaVuSerif-Bold-54" d="M 1159 0 
L 1159 378 
L 1778 378 
L 1778 4238 
L 500 4238 
L 500 3500 
L 72 3500 
L 72 4666 
L 4697 4666 
L 4697 3500 
L 4275 3500 
L 4275 4238 
L 2988 4238 
L 2988 378 
L 3609 378 
L 3609 0 
L 1159 0 
z
" transform="scale(0.015625)"/>
     </defs>
     <use xlink:href="#DejaVuSerif-Bold-43"/>
     <use xlink:href="#DejaVuSerif-Bold-6c" x="79.589844"/>
     <use xlink:href="#DejaVuSerif-Bold-65" x="117.578125"/>
     <use xlink:href="#DejaVuSerif-Bold-61" x="181.201172"/>
     <use xlink:href="#DejaVuSerif-Bold-6e" x="245.996094"/>
     <use xlink:href="#DejaVuSerif-Bold-20" x="318.701172"/>
     <use xlink:href="#DejaVuSerif-Bold-50" x="353.515625"/>
     <use xlink:href="#DejaVuSerif-Bold-61" x="426.085938"/>
     <use xlink:href="#DejaVuSerif-Bold-74" x="490.880859"/>
     <use xlink:href="#DejaVuSerif-Bold-63" x="537.072266"/>
     <use xlink:href="#DejaVuSerif-Bold-68" x="597.960938"/>
     <use xlink:href="#DejaVuSerif-Bold-54" x="670.666016"/>
     <use xlink:href="#DejaVuSerif-Bold-53" x="745.080078"/>
     <use xlink:href="#DejaVuSerif-Bold-54" x="817.296875"/>
    </g>
    <!-- MSE delta -->
    <g transform="translate(327.605335 90.247058) scale(0.122 -0.122)">
     <use xlink:href="#DejaVuSerif-Bold-4d"/>
     <use xlink:href="#DejaVuSerif-Bold-53" x="110.693359"/>
     <use xlink:href="#DejaVuSerif-Bold-45" x="182.910156"/>
     <use xlink:href="#DejaVuSerif-Bold-20" x="259.130859"/>
     <use xlink:href="#DejaVuSerif-Bold-64" x="293.945312"/>
     <use xlink:href="#DejaVuSerif-Bold-65" x="363.867188"/>
     <use xlink:href="#DejaVuSerif-Bold-6c" x="427.490234"/>
     <use xlink:href="#DejaVuSerif-Bold-74" x="465.478516"/>
     <use xlink:href="#DejaVuSerif-Bold-61" x="511.669922"/>
    </g>
   </g>
   <g id="text_6">
    <!-- Stress -->
    <g transform="translate(457.448266 77.698138) scale(0.122 -0.122)">
     <use xlink:href="#DejaVuSerif-Bold-53"/>
     <use xlink:href="#DejaVuSerif-Bold-74" x="72.216797"/>
     <use xlink:href="#DejaVuSerif-Bold-72" x="118.408203"/>
     <use xlink:href="#DejaVuSerif-Bold-65" x="171.09375"/>
     <use xlink:href="#DejaVuSerif-Bold-73" x="234.716797"/>
     <use xlink:href="#DejaVuSerif-Bold-73" x="291.015625"/>
    </g>
    <!-- MSE delta -->
    <g transform="translate(443.470687 90.247058) scale(0.122 -0.122)">
     <use xlink:href="#DejaVuSerif-Bold-4d"/>
     <use xlink:href="#DejaVuSerif-Bold-53" x="110.693359"/>
     <use xlink:href="#DejaVuSerif-Bold-45" x="182.910156"/>
     <use xlink:href="#DejaVuSerif-Bold-20" x="259.130859"/>
     <use xlink:href="#DejaVuSerif-Bold-64" x="293.945312"/>
     <use xlink:href="#DejaVuSerif-Bold-65" x="363.867188"/>
     <use xlink:href="#DejaVuSerif-Bold-6c" x="427.490234"/>
     <use xlink:href="#DejaVuSerif-Bold-74" x="465.478516"/>
     <use xlink:href="#DejaVuSerif-Bold-61" x="511.669922"/>
    </g>
   </g>
   <g id="text_7">
    <!-- External PatchTST -->
    <g transform="translate(530.641258 77.698138) scale(0.122 -0.122)">
     <defs>
      <path id="DejaVuSerif-Bold-78" d="M 2247 2119 
L 2834 2944 
L 2425 2944 
L 2425 3322 
L 3719 3322 
L 3719 2944 
L 3278 2944 
L 2431 1759 
L 3419 378 
L 3859 378 
L 3859 0 
L 1747 0 
L 1747 378 
L 2175 378 
L 1550 1253 
L 922 378 
L 1369 378 
L 1369 0 
L 0 0 
L 0 378 
L 475 378 
L 1356 1619 
L 403 2944 
L 31 2944 
L 31 3322 
L 2059 3322 
L 2059 2944 
L 1656 2944 
L 2247 2119 
z
" transform="scale(0.015625)"/>
     </defs>
     <use xlink:href="#DejaVuSerif-Bold-45"/>
     <use xlink:href="#DejaVuSerif-Bold-78" x="76.220703"/>
     <use xlink:href="#DejaVuSerif-Bold-74" x="135.839844"/>
     <use xlink:href="#DejaVuSerif-Bold-65" x="182.03125"/>
     <use xlink:href="#DejaVuSerif-Bold-72" x="245.654297"/>
     <use xlink:href="#DejaVuSerif-Bold-6e" x="298.339844"/>
     <use xlink:href="#DejaVuSerif-Bold-61" x="371.044922"/>
     <use xlink:href="#DejaVuSerif-Bold-6c" x="435.839844"/>
     <use xlink:href="#DejaVuSerif-Bold-20" x="473.828125"/>
     <use xlink:href="#DejaVuSerif-Bold-50" x="508.642578"/>
     <use xlink:href="#DejaVuSerif-Bold-61" x="581.212891"/>
     <use xlink:href="#DejaVuSerif-Bold-74" x="646.007812"/>
     <use xlink:href="#DejaVuSerif-Bold-63" x="692.199219"/>
     <use xlink:href="#DejaVuSerif-Bold-68" x="753.087891"/>
     <use xlink:href="#DejaVuSerif-Bold-54" x="825.792969"/>
     <use xlink:href="#DejaVuSerif-Bold-53" x="900.207031"/>
     <use xlink:href="#DejaVuSerif-Bold-54" x="972.423828"/>
    </g>
    <!-- MSE delta -->
    <g transform="translate(559.336039 90.247058) scale(0.122 -0.122)">
     <use xlink:href="#DejaVuSerif-Bold-4d"/>
     <use xlink:href="#DejaVuSerif-Bold-53" x="110.693359"/>
     <use xlink:href="#DejaVuSerif-Bold-45" x="182.910156"/>
     <use xlink:href="#DejaVuSerif-Bold-20" x="259.130859"/>
     <use xlink:href="#DejaVuSerif-Bold-64" x="293.945312"/>
     <use xlink:href="#DejaVuSerif-Bold-65" x="363.867188"/>
     <use xlink:href="#DejaVuSerif-Bold-6c" x="427.490234"/>
     <use xlink:href="#DejaVuSerif-Bold-74" x="465.478516"/>
     <use xlink:href="#DejaVuSerif-Bold-61" x="511.669922"/>
    </g>
   </g>
   <g id="text_8">
    <!-- Matched -->
    <g transform="translate(80.5858 113.302808) scale(0.128 -0.128)">
     <defs>
      <path id="DejaVuSerif-Italic-4d" d="M -97 0 
L -34 331 
L 559 331 
L 1338 4331 
L 709 4331 
L 775 4666 
L 2134 4666 
L 3125 1344 
L 5409 4666 
L 6684 4666 
L 6619 4331 
L 5997 4331 
L 5222 331 
L 5816 331 
L 5753 0 
L 3928 0 
L 3991 331 
L 4584 331 
L 5288 3938 
L 3053 684 
L 2613 684 
L 1647 3938 
L 944 331 
L 1538 331 
L 1475 0 
L -97 0 
z
" transform="scale(0.015625)"/>
      <path id="DejaVuSerif-Italic-61" d="M 2325 519 
Q 1909 -91 1238 -91 
Q 688 -91 409 281 
Q 216 544 216 919 
Q 216 1078 250 1256 
Q 463 2359 1231 2928 
Q 1884 3413 2675 3413 
Q 3206 3413 3388 3322 
L 2806 331 
L 3300 331 
L 3238 0 
L 2225 0 
L 2325 519 
z
M 822 938 
Q 822 269 1469 269 
Q 1863 269 2130 583 
Q 2397 897 2516 1497 
L 2806 3003 
L 2806 3003 
Q 2806 3094 2556 3094 
Q 1956 3094 1491 2625 
Q 1028 2153 863 1297 
Q 822 1097 822 938 
z
" transform="scale(0.015625)"/>
      <path id="DejaVuSerif-Italic-74" d="M 856 2988 
L 350 2988 
L 416 3322 
L 922 3322 
L 1122 4353 
L 1700 4353 
L 1500 3322 
L 2581 3322 
L 2516 2988 
L 1434 2988 
L 1025 878 
Q 978 631 978 488 
Q 978 388 1000 338 
Q 1059 219 1278 219 
Q 1503 219 1633 351 
Q 1763 484 1825 781 
L 2259 781 
Q 2147 328 1884 118 
Q 1622 -91 1169 -91 
Q 672 -91 506 131 
Q 406 266 406 516 
Q 406 675 447 878 
L 856 2988 
z
" transform="scale(0.015625)"/>
      <path id="DejaVuSerif-Italic-63" d="M 3163 997 
Q 2938 466 2536 187 
Q 2134 -91 1584 -91 
Q 859 -91 513 388 
Q 272 722 272 1203 
Q 272 1419 319 1663 
Q 475 2459 1008 2936 
Q 1541 3413 2266 3413 
Q 2581 3413 2879 3339 
Q 3178 3266 3463 3116 
L 3300 2266 
L 2966 2266 
Q 2966 2309 2966 2347 
Q 2966 2722 2803 2903 
Q 2622 3103 2213 3103 
Q 1747 3103 1439 2742 
Q 1131 2381 991 1663 
Q 928 1334 928 1078 
Q 928 778 1016 581 
Q 1181 219 1650 219 
Q 2022 219 2281 412 
Q 2541 606 2700 997 
L 3163 997 
z
" transform="scale(0.015625)"/>
      <path id="DejaVuSerif-Italic-68" d="M 309 0 
L 1191 4531 
L 641 4531 
L 703 4863 
L 1828 4863 
L 1416 2731 
Q 1641 3069 1928 3241 
Q 2216 3413 2553 3413 
Q 3103 3413 3300 3097 
Q 3422 2906 3422 2588 
Q 3422 2378 3369 2113 
L 3022 331 
L 3534 331 
L 3472 0 
L 2381 0 
L 2756 1931 
Q 2819 2253 2819 2469 
Q 2819 2659 2769 2763 
Q 2666 2988 2284 2988 
Q 1884 2988 1617 2697 
Q 1350 2406 1244 1850 
L 884 0 
L 309 0 
z
" transform="scale(0.015625)"/>
      <path id="DejaVuSerif-Italic-65" d="M 938 1275 
Q 925 1156 925 1050 
Q 925 756 1031 563 
Q 1216 219 1709 219 
Q 2072 219 2250 328 
Q 2569 525 2644 778 
L 3066 778 
Q 2941 381 2475 103 
Q 2150 -91 1506 -91 
Q 863 -91 516 388 
Q 272 722 272 1206 
Q 272 1419 319 1659 
Q 472 2450 1000 2931 
Q 1528 3413 2278 3413 
Q 3500 3413 3500 2547 
Q 3500 1913 2859 1603 
Q 2206 1288 938 1275 
z
M 2541 1975 
Q 2891 2181 2891 2569 
Q 2891 3103 2181 3103 
Q 1763 3103 1472 2784 
Q 1181 2466 1003 1606 
Q 2006 1653 2541 1975 
z
" transform="scale(0.015625)"/>
      <path id="DejaVuSerif-Italic-64" d="M 3841 4863 
L 2897 0 
L 2322 0 
L 2422 519 
Q 2191 206 1902 57 
Q 1613 -91 1228 -91 
Q 616 -91 322 394 
Q 125 716 125 1166 
Q 125 1397 178 1663 
Q 331 2444 812 2928 
Q 1294 3413 1909 3413 
Q 2294 3413 2525 3264 
Q 2756 3116 2866 2803 
L 3200 4531 
L 2656 4531 
L 2722 4863 
L 3841 4863 
z
M 2613 1497 
L 2675 1825 
Q 2722 2069 2722 2266 
Q 2722 2550 2622 2738 
Q 2456 3053 2019 3053 
Q 1575 3053 1279 2703 
Q 984 2353 850 1663 
Q 788 1347 788 1103 
Q 788 813 875 622 
Q 1031 269 1475 269 
Q 1913 269 2203 583 
Q 2494 897 2613 1497 
z
" transform="scale(0.015625)"/>
     </defs>
     <use xlink:href="#DejaVuSerif-Italic-4d"/>
     <use xlink:href="#DejaVuSerif-Italic-61" x="102.392578"/>
     <use xlink:href="#DejaVuSerif-Italic-74" x="162.011719"/>
     <use xlink:href="#DejaVuSerif-Italic-63" x="202.197266"/>
     <use xlink:href="#DejaVuSerif-Italic-68" x="258.203125"/>
     <use xlink:href="#DejaVuSerif-Italic-65" x="322.607422"/>
     <use xlink:href="#DejaVuSerif-Italic-64" x="381.787109"/>
    </g>
    <!-- smoothing -->
    <g transform="translate(75.0988 126.857928) scale(0.128 -0.128)">
     <defs>
      <path id="DejaVuSerif-Italic-73" d="M 222 959 
L 553 959 
Q 541 869 541 788 
Q 541 219 1313 219 
Q 2088 219 2200 788 
Q 2209 844 2209 944 
Q 2209 1041 2103 1158 
Q 1997 1275 1550 1428 
L 1159 1569 
Q 759 1706 629 1882 
Q 500 2059 500 2263 
Q 500 2344 516 2438 
Q 606 2894 990 3153 
Q 1375 3413 1931 3413 
Q 2484 3413 3066 3144 
L 2925 2419 
L 2594 2419 
Q 2606 2491 2606 2553 
Q 2606 2781 2448 2942 
Q 2291 3103 1925 3103 
Q 1191 3103 1091 2591 
Q 1078 2538 1078 2444 
Q 1078 2347 1179 2237 
Q 1281 2128 1678 1997 
L 2106 1856 
Q 2550 1709 2716 1488 
Q 2831 1331 2831 1178 
Q 2831 522 2306 181 
Q 1894 -91 1262 -91 
Q 631 -91 72 184 
L 222 959 
z
" transform="scale(0.015625)"/>
      <path id="DejaVuSerif-Italic-6d" d="M 3503 2675 
Q 3741 3041 4034 3227 
Q 4328 3413 4672 3413 
Q 5194 3413 5388 3088 
Q 5503 2894 5503 2578 
Q 5503 2372 5453 2113 
L 5106 331 
L 5625 331 
L 5563 0 
L 4469 0 
L 4866 2047 
Q 4913 2291 4913 2466 
Q 4913 2659 4856 2772 
Q 4750 2988 4403 2988 
Q 4019 2988 3761 2697 
Q 3503 2406 3394 1850 
L 3034 0 
L 2459 0 
L 2863 2069 
Q 2906 2303 2906 2472 
Q 2906 2666 2850 2775 
Q 2741 2988 2394 2988 
Q 2009 2988 1751 2697 
Q 1494 2406 1384 1850 
L 1025 0 
L 450 0 
L 1031 2994 
L 481 2994 
L 544 3322 
L 1669 3322 
L 1556 2731 
Q 1778 3063 2059 3238 
Q 2341 3413 2653 3413 
Q 3041 3413 3262 3220 
Q 3484 3028 3503 2675 
z
" transform="scale(0.015625)"/>
      <path id="DejaVuSerif-Italic-6f" d="M 1644 219 
Q 2106 219 2414 584 
Q 2722 950 2859 1663 
Q 2922 1988 2922 2241 
Q 2922 2541 2834 2738 
Q 2669 3103 2206 3103 
Q 1744 3103 1436 2739 
Q 1128 2375 991 1663 
Q 928 1338 928 1088 
Q 928 784 1019 584 
Q 1184 219 1644 219 
z
M 1584 -91 
Q 859 -91 513 388 
Q 272 722 272 1203 
Q 272 1419 319 1663 
Q 472 2456 1005 2934 
Q 1538 3413 2266 3413 
Q 2994 3413 3341 2934 
Q 3578 2603 3578 2122 
Q 3578 1906 3531 1663 
Q 3378 869 2845 389 
Q 2313 -91 1584 -91 
z
" transform="scale(0.015625)"/>
      <path id="DejaVuSerif-Italic-69" d="M 1009 4353 
Q 1038 4497 1163 4603 
Q 1288 4709 1434 4709 
Q 1578 4709 1663 4603 
Q 1728 4522 1728 4422 
Q 1728 4388 1719 4353 
Q 1691 4206 1567 4103 
Q 1444 4000 1297 4000 
Q 1150 4000 1066 4103 
Q 1003 4181 1003 4281 
Q 1003 4316 1009 4353 
z
M 963 331 
L 1506 331 
L 1444 0 
L 325 0 
L 903 2988 
L 353 2988 
L 419 3322 
L 1544 3322 
L 963 331 
z
" transform="scale(0.015625)"/>
      <path id="DejaVuSerif-Italic-6e" d="M 450 0 
L 1031 2988 
L 481 2988 
L 544 3322 
L 1669 3322 
L 1556 2731 
Q 1781 3069 2068 3241 
Q 2356 3413 2694 3413 
Q 3244 3413 3444 3097 
Q 3563 2906 3563 2588 
Q 3563 2378 3509 2113 
L 3163 331 
L 3675 331 
L 3613 0 
L 2522 0 
L 2897 1931 
Q 2959 2253 2959 2469 
Q 2959 2659 2909 2769 
Q 2803 2994 2425 2994 
Q 2025 2994 1759 2701 
Q 1494 2409 1384 1850 
L 1025 0 
L 450 0 
z
" transform="scale(0.015625)"/>
      <path id="DejaVuSerif-Italic-67" d="M 3822 3322 
L 3188 72 
Q 3044 -672 2581 -1031 
Q 2078 -1422 1381 -1422 
Q 1053 -1422 765 -1362 
Q 478 -1303 225 -1184 
L 363 -488 
L 663 -488 
Q 653 -813 834 -963 
Q 1016 -1113 1406 -1113 
Q 1913 -1113 2203 -825 
Q 2494 -544 2613 72 
L 2700 519 
Q 2472 206 2181 57 
Q 1891 -91 1525 -91 
Q 975 -91 697 281 
Q 522 516 503 841 
Q 491 1031 534 1256 
Q 750 2359 1516 2928 
Q 2169 3409 2931 3413 
Q 3631 3416 3822 3322 
z
M 3184 2988 
Q 3181 3094 2844 3094 
Q 2234 3094 1775 2625 
Q 1316 2153 1147 1297 
Q 1100 1044 1113 853 
Q 1125 659 1203 528 
Q 1356 269 1756 269 
Q 2194 269 2484 583 
Q 2775 897 2891 1497 
L 2953 1825 
L 3184 2988 
z
" transform="scale(0.015625)"/>
     </defs>
     <use xlink:href="#DejaVuSerif-Italic-73"/>
     <use xlink:href="#DejaVuSerif-Italic-6d" x="51.318359"/>
     <use xlink:href="#DejaVuSerif-Italic-6f" x="146.142578"/>
     <use xlink:href="#DejaVuSerif-Italic-6f" x="206.347656"/>
     <use xlink:href="#DejaVuSerif-Italic-74" x="266.552734"/>
     <use xlink:href="#DejaVuSerif-Italic-68" x="306.738281"/>
     <use xlink:href="#DejaVuSerif-Italic-69" x="371.142578"/>
     <use xlink:href="#DejaVuSerif-Italic-6e" x="403.125"/>
     <use xlink:href="#DejaVuSerif-Italic-67" x="467.529297"/>
    </g>
    <!-- baseline -->
    <g transform="translate(82.1288 140.595048) scale(0.128 -0.128)">
     <defs>
      <path id="DejaVuSerif-Italic-62" d="M 1153 4531 
L 600 4531 
L 666 4863 
L 1794 4863 
L 1394 2803 
Q 1622 3116 1912 3264 
Q 2203 3413 2588 3413 
Q 3200 3413 3494 2928 
Q 3688 2609 3688 2163 
Q 3688 1928 3634 1663 
Q 3481 881 3000 395 
Q 2519 -91 1906 -91 
Q 1522 -91 1289 57 
Q 1056 206 950 519 
L 850 0 
L 275 0 
L 1153 4531 
z
M 1141 1497 
Q 1091 1250 1091 1053 
Q 1091 769 1191 581 
Q 1359 269 1797 269 
Q 2238 269 2533 622 
Q 2828 975 2963 1663 
Q 3025 1978 3025 2225 
Q 3025 2513 2938 2703 
Q 2781 3053 2338 3053 
Q 1900 3053 1609 2737 
Q 1319 2422 1203 1825 
L 1141 1497 
z
" transform="scale(0.015625)"/>
      <path id="DejaVuSerif-Italic-6c" d="M 903 331 
L 1447 331 
L 1384 0 
L 266 0 
L 1147 4531 
L 594 4531 
L 656 4863 
L 1784 4863 
L 903 331 
z
" transform="scale(0.015625)"/>
     </defs>
     <use xlink:href="#DejaVuSerif-Italic-62"/>
     <use xlink:href="#DejaVuSerif-Italic-61" x="64.013672"/>
     <use xlink:href="#DejaVuSerif-Italic-73" x="123.632812"/>
     <use xlink:href="#DejaVuSerif-Italic-65" x="174.951172"/>
     <use xlink:href="#DejaVuSerif-Italic-6c" x="234.130859"/>
     <use xlink:href="#DejaVuSerif-Italic-69" x="266.113281"/>
     <use xlink:href="#DejaVuSerif-Italic-6e" x="298.095703"/>
     <use xlink:href="#DejaVuSerif-Italic-65" x="362.5"/>
    </g>
   </g>
   <g id="text_9">
    <!-- -0.722 -->
    <g style="fill: #ff1f1f" transform="translate(219.834941 127.142084) scale(0.135 -0.135)">
     <defs>
      <path id="DejaVuSerif-Bold-2d" d="M 347 2138 
L 2309 2138 
L 2309 1294 
L 347 1294 
L 347 2138 
z
" transform="scale(0.015625)"/>
      <path id="DejaVuSerif-Bold-30" d="M 2228 275 
Q 2603 275 2742 615 
Q 2881 956 2881 2328 
Q 2881 3691 2742 4037 
Q 2603 4384 2228 4384 
Q 1853 4384 1714 4043 
Q 1575 3703 1575 2328 
Q 1575 956 1714 615 
Q 1853 275 2228 275 
z
M 2228 -91 
Q 1294 -91 797 532 
Q 300 1156 300 2328 
Q 300 3500 797 4125 
Q 1294 4750 2228 4750 
Q 3159 4750 3656 4125 
Q 4153 3500 4153 2328 
Q 4153 1156 3656 532 
Q 3159 -91 2228 -91 
z
" transform="scale(0.015625)"/>
      <path id="DejaVuSerif-Bold-2e" d="M 519 506 
Q 519 750 694 925 
Q 869 1100 1113 1100 
Q 1359 1100 1534 925 
Q 1709 750 1709 506 
Q 1709 259 1534 84 
Q 1359 -91 1113 -91 
Q 869 -91 694 84 
Q 519 259 519 506 
z
" transform="scale(0.015625)"/>
      <path id="DejaVuSerif-Bold-37" d="M 3922 3872 
L 1997 0 
L 1363 0 
L 3238 3781 
L 934 3781 
L 934 3150 
L 506 3150 
L 506 4666 
L 3922 4666 
L 3922 3872 
z
" transform="scale(0.015625)"/>
      <path id="DejaVuSerif-Bold-32" d="M 844 3513 
L 469 3513 
L 469 4519 
Q 850 4634 1223 4692 
Q 1597 4750 1978 4750 
Q 2869 4750 3367 4386 
Q 3866 4022 3866 3372 
Q 3866 2909 3591 2542 
Q 3316 2175 2541 1672 
L 1241 819 
L 3450 819 
L 3450 1369 
L 3878 1369 
L 3878 0 
L 428 0 
L 428 763 
L 1119 1241 
Q 2003 1850 2297 2278 
Q 2591 2706 2591 3278 
Q 2591 3819 2367 4101 
Q 2144 4384 1716 4384 
Q 1347 4384 1125 4161 
Q 903 3938 844 3513 
z
" transform="scale(0.015625)"/>
     </defs>
     <use xlink:href="#DejaVuSerif-Bold-2d"/>
     <use xlink:href="#DejaVuSerif-Bold-30" x="41.503906"/>
     <use xlink:href="#DejaVuSerif-Bold-2e" x="111.083984"/>
     <use xlink:href="#DejaVuSerif-Bold-37" x="145.898438"/>
     <use xlink:href="#DejaVuSerif-Bold-32" x="215.478516"/>
     <use xlink:href="#DejaVuSerif-Bold-32" x="285.058594"/>
    </g>
   </g>
   <g id="text_10">
    <!-- -0.291 -->
    <g style="fill: #ff1f1f" transform="translate(338.831789 127.142084) scale(0.135 -0.135)">
     <defs>
      <path id="DejaVuSerif-Bold-39" d="M 2181 4384 
Q 1859 4384 1723 4111 
Q 1588 3838 1588 3163 
Q 1588 2488 1723 2214 
Q 1859 1941 2181 1941 
Q 2503 1941 2640 2214 
Q 2778 2488 2778 3163 
Q 2778 3838 2640 4111 
Q 2503 4384 2181 4384 
z
M 2878 1900 
Q 2672 1734 2420 1651 
Q 2169 1569 1875 1569 
Q 1163 1569 755 1986 
Q 347 2403 347 3138 
Q 347 3913 803 4331 
Q 1259 4750 2106 4750 
Q 3063 4750 3556 4172 
Q 4050 3594 4050 2478 
Q 4050 1206 3503 557 
Q 2956 -91 1881 -91 
Q 1600 -91 1278 -44 
Q 956 3 588 97 
L 588 922 
L 966 922 
Q 1044 603 1261 439 
Q 1478 275 1825 275 
Q 2375 275 2625 658 
Q 2875 1041 2878 1900 
z
" transform="scale(0.015625)"/>
      <path id="DejaVuSerif-Bold-31" d="M 878 0 
L 878 378 
L 1753 378 
L 1753 4153 
L 781 3578 
L 781 4044 
L 1953 4750 
L 2938 4750 
L 2938 378 
L 3816 378 
L 3816 0 
L 878 0 
z
" transform="scale(0.015625)"/>
     </defs>
     <use xlink:href="#DejaVuSerif-Bold-2d"/>
     <use xlink:href="#DejaVuSerif-Bold-30" x="41.503906"/>
     <use xlink:href="#DejaVuSerif-Bold-2e" x="111.083984"/>
     <use xlink:href="#DejaVuSerif-Bold-32" x="145.898438"/>
     <use xlink:href="#DejaVuSerif-Bold-39" x="215.478516"/>
     <use xlink:href="#DejaVuSerif-Bold-31" x="285.058594"/>
    </g>
   </g>
   <g id="text_11">
    <!-- -0.880 -->
    <g style="fill: #ff1f1f" transform="translate(454.697141 127.142084) scale(0.135 -0.135)">
     <defs>
      <path id="DejaVuSerif-Bold-38" d="M 2975 2484 
Q 3531 2394 3820 2075 
Q 4109 1756 4109 1241 
Q 4109 597 3623 253 
Q 3138 -91 2222 -91 
Q 1306 -91 818 253 
Q 331 597 331 1241 
Q 331 1756 622 2075 
Q 913 2394 1466 2484 
Q 975 2597 731 2861 
Q 488 3125 488 3531 
Q 488 4125 931 4437 
Q 1375 4750 2222 4750 
Q 3066 4750 3511 4437 
Q 3956 4125 3956 3531 
Q 3956 3125 3711 2861 
Q 3466 2597 2975 2484 
z
M 2747 3519 
Q 2747 4013 2628 4198 
Q 2509 4384 2222 4384 
Q 1931 4384 1814 4198 
Q 1697 4013 1697 3519 
Q 1697 3028 1814 2845 
Q 1931 2663 2222 2663 
Q 2513 2663 2630 2845 
Q 2747 3028 2747 3519 
z
M 2869 1294 
Q 2869 1866 2723 2081 
Q 2578 2297 2222 2297 
Q 1863 2297 1719 2081 
Q 1575 1866 1575 1294 
Q 1575 716 1720 495 
Q 1866 275 2222 275 
Q 2575 275 2722 495 
Q 2869 716 2869 1294 
z
" transform="scale(0.015625)"/>
     </defs>
     <use xlink:href="#DejaVuSerif-Bold-2d"/>
     <use xlink:href="#DejaVuSerif-Bold-30" x="41.503906"/>
     <use xlink:href="#DejaVuSerif-Bold-2e" x="111.083984"/>
     <use xlink:href="#DejaVuSerif-Bold-38" x="145.898438"/>
     <use xlink:href="#DejaVuSerif-Bold-38" x="215.478516"/>
     <use xlink:href="#DejaVuSerif-Bold-30" x="285.058594"/>
    </g>
   </g>
   <g id="text_12">
    <!-- -0.102 -->
    <g style="fill: #ff1f1f" transform="translate(570.562492 127.142084) scale(0.135 -0.135)">
     <use xlink:href="#DejaVuSerif-Bold-2d"/>
     <use xlink:href="#DejaVuSerif-Bold-30" x="41.503906"/>
     <use xlink:href="#DejaVuSerif-Bold-2e" x="111.083984"/>
     <use xlink:href="#DejaVuSerif-Bold-31" x="145.898438"/>
     <use xlink:href="#DejaVuSerif-Bold-30" x="215.478516"/>
     <use xlink:href="#DejaVuSerif-Bold-32" x="285.058594"/>
    </g>
   </g>
   <g id="text_13">
    <!-- Base -->
    <g transform="translate(93.5268 158.225384) scale(0.128 -0.128)">
     <defs>
      <path id="DejaVuSerif-Italic-42" d="M 1194 331 
L 2128 331 
Q 2691 331 2998 575 
Q 3306 819 3409 1350 
Q 3513 1878 3302 2120 
Q 3091 2363 2525 2363 
L 1591 2363 
L 1194 331 
z
M 1653 2694 
L 2447 2694 
Q 2959 2694 3234 2891 
Q 3509 3088 3591 3513 
Q 3675 3941 3476 4136 
Q 3278 4331 2766 4331 
L 1972 4331 
L 1653 2694 
z
M -97 0 
L -34 331 
L 559 331 
L 1338 4331 
L 744 4331 
L 809 4666 
L 3113 4666 
Q 3819 4666 4120 4377 
Q 4422 4088 4309 3513 
Q 4231 3097 3934 2850 
Q 3638 2603 3147 2547 
Q 3728 2472 3976 2167 
Q 4225 1863 4125 1350 
Q 3991 656 3489 328 
Q 2988 0 2059 0 
L -97 0 
z
" transform="scale(0.015625)"/>
     </defs>
     <use xlink:href="#DejaVuSerif-Italic-42"/>
     <use xlink:href="#DejaVuSerif-Italic-61" x="73.486328"/>
     <use xlink:href="#DejaVuSerif-Italic-73" x="133.105469"/>
     <use xlink:href="#DejaVuSerif-Italic-65" x="184.423828"/>
    </g>
    <!-- HalluGuard -->
    <g transform="translate(71.2978 171.780504) scale(0.128 -0.128)">
     <defs>
      <path id="DejaVuSerif-Italic-48" d="M -97 0 
L -34 331 
L 559 331 
L 1338 4331 
L 744 4331 
L 809 4666 
L 2631 4666 
L 2566 4331 
L 1972 4331 
L 1659 2719 
L 4078 2719 
L 4391 4331 
L 3797 4331 
L 3863 4666 
L 5684 4666 
L 5619 4331 
L 5025 4331 
L 4247 331 
L 4841 331 
L 4778 0 
L 2956 0 
L 3019 331 
L 3616 331 
L 4003 2338 
L 1584 2338 
L 1194 331 
L 1788 331 
L 1725 0 
L -97 0 
z
" transform="scale(0.015625)"/>
      <path id="DejaVuSerif-Italic-75" d="M 3097 3322 
L 3672 3322 
L 3091 331 
L 3634 331 
L 3572 0 
L 2453 0 
L 2566 588 
Q 2341 256 2055 82 
Q 1769 -91 1434 -91 
Q 881 -91 681 225 
Q 559 413 559 734 
Q 559 944 613 1209 
L 956 2988 
L 438 2988 
L 503 3322 
L 1600 3322 
L 1225 1388 
Q 1163 1066 1163 853 
Q 1163 663 1213 556 
Q 1316 331 1697 331 
Q 2097 331 2364 625 
Q 2631 919 2738 1478 
L 3097 3322 
z
" transform="scale(0.015625)"/>
      <path id="DejaVuSerif-Italic-47" d="M 4281 3272 
Q 4284 3856 3992 4136 
Q 3700 4416 3081 4416 
Q 2275 4416 1776 3897 
Q 1278 3378 1075 2328 
Q 875 1300 1181 772 
Q 1488 244 2281 244 
Q 2634 244 2973 331 
Q 3313 419 3638 594 
L 3872 1797 
L 2994 1797 
L 3059 2131 
L 4572 2131 
L 4231 391 
Q 3769 150 3266 29 
Q 2763 -91 2216 -91 
Q 1159 -91 653 570 
Q 147 1231 359 2328 
Q 575 3434 1340 4092 
Q 2106 4750 3184 4750 
Q 3584 4750 3992 4658 
Q 4400 4566 4844 4378 
L 4631 3272 
L 4281 3272 
z
" transform="scale(0.015625)"/>
      <path id="DejaVuSerif-Italic-72" d="M 3375 3328 
L 3213 2497 
L 2881 2497 
Q 2891 2559 2891 2613 
Q 2891 2775 2816 2866 
Q 2719 2988 2484 2988 
Q 2059 2988 1775 2694 
Q 1491 2400 1384 1850 
L 1025 0 
L 450 0 
L 1031 2994 
L 481 2994 
L 544 3322 
L 1669 3322 
L 1556 2731 
Q 1791 3078 2089 3245 
Q 2388 3413 2769 3413 
Q 2909 3413 3059 3391 
Q 3209 3369 3375 3328 
z
" transform="scale(0.015625)"/>
     </defs>
     <use xlink:href="#DejaVuSerif-Italic-48"/>
     <use xlink:href="#DejaVuSerif-Italic-61" x="87.207031"/>
     <use xlink:href="#DejaVuSerif-Italic-6c" x="146.826172"/>
     <use xlink:href="#DejaVuSerif-Italic-6c" x="178.808594"/>
     <use xlink:href="#DejaVuSerif-Italic-75" x="210.791016"/>
     <use xlink:href="#DejaVuSerif-Italic-47" x="275.195312"/>
     <use xlink:href="#DejaVuSerif-Italic-75" x="355.078125"/>
     <use xlink:href="#DejaVuSerif-Italic-61" x="419.482422"/>
     <use xlink:href="#DejaVuSerif-Italic-72" x="479.101562"/>
     <use xlink:href="#DejaVuSerif-Italic-64" x="526.904297"/>
    </g>
   </g>
   <g id="text_14">
    <!-- -0.058 -->
    <g style="fill: #ff1f1f" transform="translate(219.834941 165.1961) scale(0.135 -0.135)">
     <defs>
      <path id="DejaVuSerif-Bold-35" d="M 3609 4666 
L 3609 3847 
L 1113 3847 
L 1113 2822 
Q 1319 2981 1572 3062 
Q 1825 3144 2106 3144 
Q 2969 3144 3469 2708 
Q 3969 2272 3969 1522 
Q 3969 759 3469 334 
Q 2969 -91 2069 -91 
Q 1688 -91 1311 -28 
Q 934 34 525 166 
L 525 1184 
L 900 1184 
Q 919 725 1139 500 
Q 1359 275 1791 275 
Q 2250 275 2472 583 
Q 2694 891 2694 1522 
Q 2694 2144 2476 2451 
Q 2259 2759 1819 2759 
Q 1581 2759 1395 2661 
Q 1209 2563 1050 2356 
L 738 2356 
L 738 4666 
L 3609 4666 
z
" transform="scale(0.015625)"/>
     </defs>
     <use xlink:href="#DejaVuSerif-Bold-2d"/>
     <use xlink:href="#DejaVuSerif-Bold-30" x="41.503906"/>
     <use xlink:href="#DejaVuSerif-Bold-2e" x="111.083984"/>
     <use xlink:href="#DejaVuSerif-Bold-30" x="145.898438"/>
     <use xlink:href="#DejaVuSerif-Bold-35" x="215.478516"/>
     <use xlink:href="#DejaVuSerif-Bold-38" x="285.058594"/>
    </g>
   </g>
   <g id="text_15">
    <!-- -0.046 -->
    <g style="fill: #ff1f1f" transform="translate(338.831789 165.1961) scale(0.135 -0.135)">
     <defs>
      <path id="DejaVuSerif-Bold-34" d="M 4084 0 
L 1516 0 
L 1516 378 
L 2209 378 
L 2209 1228 
L 263 1228 
L 263 1588 
L 2216 4750 
L 3391 4750 
L 3391 1631 
L 4191 1631 
L 4191 1228 
L 3391 1228 
L 3391 378 
L 4084 378 
L 4084 0 
z
M 2209 1631 
L 2209 3897 
L 819 1631 
L 2209 1631 
z
" transform="scale(0.015625)"/>
      <path id="DejaVuSerif-Bold-36" d="M 1575 2766 
Q 1778 2928 2029 3009 
Q 2281 3091 2578 3091 
Q 3294 3091 3701 2672 
Q 4109 2253 4109 1522 
Q 4109 750 3650 329 
Q 3191 -91 2344 -91 
Q 1388 -91 895 486 
Q 403 1063 403 2181 
Q 403 3453 950 4101 
Q 1497 4750 2572 4750 
Q 2853 4750 3175 4703 
Q 3497 4656 3866 4563 
L 3866 3738 
L 3488 3738 
Q 3409 4056 3192 4220 
Q 2975 4384 2631 4384 
Q 2075 4384 1826 4003 
Q 1578 3622 1575 2766 
z
M 2272 275 
Q 2594 275 2731 548 
Q 2869 822 2869 1497 
Q 2869 2172 2731 2445 
Q 2594 2719 2272 2719 
Q 1950 2719 1814 2445 
Q 1678 2172 1678 1497 
Q 1678 822 1814 548 
Q 1950 275 2272 275 
z
" transform="scale(0.015625)"/>
     </defs>
     <use xlink:href="#DejaVuSerif-Bold-2d"/>
     <use xlink:href="#DejaVuSerif-Bold-30" x="41.503906"/>
     <use xlink:href="#DejaVuSerif-Bold-2e" x="111.083984"/>
     <use xlink:href="#DejaVuSerif-Bold-30" x="145.898438"/>
     <use xlink:href="#DejaVuSerif-Bold-34" x="215.478516"/>
     <use xlink:href="#DejaVuSerif-Bold-36" x="285.058594"/>
    </g>
   </g>
   <g id="text_16">
    <!-- -0.090 -->
    <g style="fill: #ff1f1f" transform="translate(454.697141 165.1961) scale(0.135 -0.135)">
     <use xlink:href="#DejaVuSerif-Bold-2d"/>
     <use xlink:href="#DejaVuSerif-Bold-30" x="41.503906"/>
     <use xlink:href="#DejaVuSerif-Bold-2e" x="111.083984"/>
     <use xlink:href="#DejaVuSerif-Bold-30" x="145.898438"/>
     <use xlink:href="#DejaVuSerif-Bold-39" x="215.478516"/>
     <use xlink:href="#DejaVuSerif-Bold-30" x="285.058594"/>
    </g>
   </g>
   <g id="text_17">
    <!-- -0.004 -->
    <g style="fill: #ff1f1f" transform="translate(570.562492 165.1961) scale(0.135 -0.135)">
     <use xlink:href="#DejaVuSerif-Bold-2d"/>
     <use xlink:href="#DejaVuSerif-Bold-30" x="41.503906"/>
     <use xlink:href="#DejaVuSerif-Bold-2e" x="111.083984"/>
     <use xlink:href="#DejaVuSerif-Bold-30" x="145.898438"/>
     <use xlink:href="#DejaVuSerif-Bold-30" x="215.478516"/>
     <use xlink:href="#DejaVuSerif-Bold-34" x="285.058594"/>
    </g>
   </g>
   <g id="text_18">
    <!-- Dynamics -->
    <g transform="translate(77.4488 196.0974) scale(0.128 -0.128)">
     <defs>
      <path id="DejaVuSerif-Italic-44" d="M 1194 331 
L 1775 331 
Q 2684 331 3271 850 
Q 3859 1369 4048 2337 
Q 4238 3306 3852 3818 
Q 3466 4331 2553 4331 
L 1972 4331 
L 1194 331 
z
M -97 0 
L -34 331 
L 559 331 
L 1338 4331 
L 744 4331 
L 809 4666 
L 2666 4666 
Q 3872 4666 4426 4050 
Q 4981 3434 4766 2338 
Q 4553 1238 3758 619 
Q 2963 0 1759 0 
L -97 0 
z
" transform="scale(0.015625)"/>
      <path id="DejaVuSerif-Italic-79" d="M 3681 3294 
Q 3372 1506 2828 563 
Q 2031 -822 1391 -1238 
Q 1106 -1422 356 -1422 
Q 209 -1422 60 -1397 
Q -88 -1372 -238 -1325 
L -113 -691 
L 181 -691 
Q 175 -741 175 -788 
Q 175 -919 231 -994 
Q 309 -1100 513 -1100 
Q 1063 -1100 1541 -622 
L 756 2988 
L 378 2988 
L 444 3322 
L 1303 3322 
L 2041 25 
Q 2544 778 2666 1088 
Q 3059 2059 3138 2959 
L 2759 2959 
L 2825 3294 
L 3681 3294 
z
" transform="scale(0.015625)"/>
     </defs>
     <use xlink:href="#DejaVuSerif-Italic-44"/>
     <use xlink:href="#DejaVuSerif-Italic-79" x="80.175781"/>
     <use xlink:href="#DejaVuSerif-Italic-6e" x="136.669922"/>
     <use xlink:href="#DejaVuSerif-Italic-61" x="201.074219"/>
     <use xlink:href="#DejaVuSerif-Italic-6d" x="260.693359"/>
     <use xlink:href="#DejaVuSerif-Italic-69" x="355.517578"/>
     <use xlink:href="#DejaVuSerif-Italic-63" x="387.5"/>
     <use xlink:href="#DejaVuSerif-Italic-73" x="443.505859"/>
    </g>
    <!-- version -->
    <g transform="translate(85.3488 209.83452) scale(0.128 -0.128)">
     <defs>
      <path id="DejaVuSerif-Italic-76" d="M 1681 0 
L 1259 0 
L 619 2988 
L 241 2988 
L 303 3322 
L 1163 3322 
L 1725 703 
Q 2084 1016 2325 1413 
Q 2825 2238 3003 2988 
L 2622 2988 
L 2688 3322 
L 3547 3322 
Q 3206 2034 2775 1313 
Q 2400 688 1681 0 
z
" transform="scale(0.015625)"/>
     </defs>
     <use xlink:href="#DejaVuSerif-Italic-76"/>
     <use xlink:href="#DejaVuSerif-Italic-65" x="56.494141"/>
     <use xlink:href="#DejaVuSerif-Italic-72" x="115.673828"/>
     <use xlink:href="#DejaVuSerif-Italic-73" x="163.476562"/>
     <use xlink:href="#DejaVuSerif-Italic-69" x="214.794922"/>
     <use xlink:href="#DejaVuSerif-Italic-6f" x="246.777344"/>
     <use xlink:href="#DejaVuSerif-Italic-6e" x="306.982422"/>
    </g>
   </g>
   <g id="text_19">
    <!-- -0.623 -->
    <g style="fill: #ff1f1f" transform="translate(219.834941 203.250116) scale(0.135 -0.135)">
     <defs>
      <path id="DejaVuSerif-Bold-33" d="M 550 4531 
Q 963 4641 1350 4695 
Q 1738 4750 2106 4750 
Q 2950 4750 3401 4448 
Q 3853 4147 3853 3584 
Q 3853 3163 3593 2900 
Q 3334 2638 2834 2547 
Q 3444 2450 3744 2131 
Q 4044 1813 4044 1259 
Q 4044 606 3526 257 
Q 3009 -91 2028 -91 
Q 1659 -91 1267 -28 
Q 875 34 447 159 
L 447 1184 
L 825 1184 
Q 859 741 1103 508 
Q 1347 275 1778 275 
Q 2253 275 2512 539 
Q 2772 803 2772 1288 
Q 2772 1794 2501 2069 
Q 2231 2344 1734 2344 
L 1528 2344 
L 1528 2719 
L 1691 2719 
Q 2150 2719 2381 2931 
Q 2613 3144 2613 3566 
Q 2613 3963 2395 4173 
Q 2178 4384 1772 4384 
Q 1403 4384 1187 4182 
Q 972 3981 928 3597 
L 550 3597 
L 550 4531 
z
" transform="scale(0.015625)"/>
     </defs>
     <use xlink:href="#DejaVuSerif-Bold-2d"/>
     <use xlink:href="#DejaVuSerif-Bold-30" x="41.503906"/>
     <use xlink:href="#DejaVuSerif-Bold-2e" x="111.083984"/>
     <use xlink:href="#DejaVuSerif-Bold-36" x="145.898438"/>
     <use xlink:href="#DejaVuSerif-Bold-32" x="215.478516"/>
     <use xlink:href="#DejaVuSerif-Bold-33" x="285.058594"/>
    </g>
   </g>
   <g id="text_20">
    <!-- -0.109 -->
    <g style="fill: #ff1f1f" transform="translate(338.831789 203.250116) scale(0.135 -0.135)">
     <use xlink:href="#DejaVuSerif-Bold-2d"/>
     <use xlink:href="#DejaVuSerif-Bold-30" x="41.503906"/>
     <use xlink:href="#DejaVuSerif-Bold-2e" x="111.083984"/>
     <use xlink:href="#DejaVuSerif-Bold-31" x="145.898438"/>
     <use xlink:href="#DejaVuSerif-Bold-30" x="215.478516"/>
     <use xlink:href="#DejaVuSerif-Bold-39" x="285.058594"/>
    </g>
   </g>
   <g id="text_21">
    <!-- -0.644 -->
    <g style="fill: #ff1f1f" transform="translate(454.697141 203.250116) scale(0.135 -0.135)">
     <use xlink:href="#DejaVuSerif-Bold-2d"/>
     <use xlink:href="#DejaVuSerif-Bold-30" x="41.503906"/>
     <use xlink:href="#DejaVuSerif-Bold-2e" x="111.083984"/>
     <use xlink:href="#DejaVuSerif-Bold-36" x="145.898438"/>
     <use xlink:href="#DejaVuSerif-Bold-34" x="215.478516"/>
     <use xlink:href="#DejaVuSerif-Bold-34" x="285.058594"/>
    </g>
   </g>
   <g id="text_22">
    <!-- -0.015 -->
    <g style="fill: #ff1f1f" transform="translate(570.562492 203.250116) scale(0.135 -0.135)">
     <use xlink:href="#DejaVuSerif-Bold-2d"/>
     <use xlink:href="#DejaVuSerif-Bold-30" x="41.503906"/>
     <use xlink:href="#DejaVuSerif-Bold-2e" x="111.083984"/>
     <use xlink:href="#DejaVuSerif-Bold-30" x="145.898438"/>
     <use xlink:href="#DejaVuSerif-Bold-31" x="215.478516"/>
     <use xlink:href="#DejaVuSerif-Bold-35" x="285.058594"/>
    </g>
   </g>
   <g id="text_23">
    <!-- Base + -->
    <g transform="translate(86.1298 234.333416) scale(0.128 -0.128)">
     <defs>
      <path id="DejaVuSerif-Italic-20" transform="scale(0.015625)"/>
      <path id="DejaVuSerif-Italic-2b" d="M 2931 4013 
L 2931 2259 
L 4684 2259 
L 4684 1753 
L 2931 1753 
L 2931 0 
L 2431 0 
L 2431 1753 
L 678 1753 
L 678 2259 
L 2431 2259 
L 2431 4013 
L 2931 4013 
z
" transform="scale(0.015625)"/>
     </defs>
     <use xlink:href="#DejaVuSerif-Italic-42"/>
     <use xlink:href="#DejaVuSerif-Italic-61" x="73.486328"/>
     <use xlink:href="#DejaVuSerif-Italic-73" x="133.105469"/>
     <use xlink:href="#DejaVuSerif-Italic-65" x="184.423828"/>
     <use xlink:href="#DejaVuSerif-Italic-20" x="243.603516"/>
     <use xlink:href="#DejaVuSerif-Italic-2b" x="275.390625"/>
    </g>
    <!-- Router -->
    <g transform="translate(86.9048 247.888536) scale(0.128 -0.128)">
     <defs>
      <path id="DejaVuSerif-Italic-52" d="M 3066 2316 
Q 3272 2256 3403 2114 
Q 3534 1972 3609 1716 
L 4016 331 
L 4584 331 
L 4522 0 
L 3422 0 
L 2981 1484 
Q 2856 1916 2706 2042 
Q 2556 2169 2250 2169 
L 1553 2169 
L 1194 331 
L 1853 331 
L 1791 0 
L -97 0 
L -34 331 
L 559 331 
L 1338 4331 
L 744 4331 
L 809 4666 
L 3175 4666 
Q 3856 4666 4164 4341 
Q 4472 4016 4356 3419 
Q 4263 2938 3938 2661 
Q 3613 2384 3066 2316 
z
M 1619 2503 
L 2541 2503 
Q 3013 2503 3280 2726 
Q 3547 2950 3639 3419 
Q 3731 3888 3548 4109 
Q 3366 4331 2894 4331 
L 1972 4331 
L 1619 2503 
z
" transform="scale(0.015625)"/>
     </defs>
     <use xlink:href="#DejaVuSerif-Italic-52"/>
     <use xlink:href="#DejaVuSerif-Italic-6f" x="75.292969"/>
     <use xlink:href="#DejaVuSerif-Italic-75" x="135.498047"/>
     <use xlink:href="#DejaVuSerif-Italic-74" x="199.902344"/>
     <use xlink:href="#DejaVuSerif-Italic-65" x="240.087891"/>
     <use xlink:href="#DejaVuSerif-Italic-72" x="299.267578"/>
    </g>
   </g>
   <g id="text_24">
    <!-- -1.289 -->
    <g style="fill: #ff1f1f" transform="translate(219.834941 241.304132) scale(0.135 -0.135)">
     <use xlink:href="#DejaVuSerif-Bold-2d"/>
     <use xlink:href="#DejaVuSerif-Bold-31" x="41.503906"/>
     <use xlink:href="#DejaVuSerif-Bold-2e" x="111.083984"/>
     <use xlink:href="#DejaVuSerif-Bold-32" x="145.898438"/>
     <use xlink:href="#DejaVuSerif-Bold-38" x="215.478516"/>
     <use xlink:href="#DejaVuSerif-Bold-39" x="285.058594"/>
    </g>
   </g>
   <g id="text_25">
    <!-- -0.298 -->
    <g style="fill: #ff1f1f" transform="translate(338.831789 241.304132) scale(0.135 -0.135)">
     <use xlink:href="#DejaVuSerif-Bold-2d"/>
     <use xlink:href="#DejaVuSerif-Bold-30" x="41.503906"/>
     <use xlink:href="#DejaVuSerif-Bold-2e" x="111.083984"/>
     <use xlink:href="#DejaVuSerif-Bold-32" x="145.898438"/>
     <use xlink:href="#DejaVuSerif-Bold-39" x="215.478516"/>
     <use xlink:href="#DejaVuSerif-Bold-38" x="285.058594"/>
    </g>
   </g>
   <g id="text_26">
    <!-- -1.391 -->
    <g style="fill: #ff1f1f" transform="translate(454.697141 241.304132) scale(0.135 -0.135)">
     <use xlink:href="#DejaVuSerif-Bold-2d"/>
     <use xlink:href="#DejaVuSerif-Bold-31" x="41.503906"/>
     <use xlink:href="#DejaVuSerif-Bold-2e" x="111.083984"/>
     <use xlink:href="#DejaVuSerif-Bold-33" x="145.898438"/>
     <use xlink:href="#DejaVuSerif-Bold-39" x="215.478516"/>
     <use xlink:href="#DejaVuSerif-Bold-31" x="285.058594"/>
    </g>
   </g>
   <g id="text_27">
    <!-- +0.004 -->
    <g style="fill: #c40000" transform="translate(567.707453 241.304132) scale(0.135 -0.135)">
     <defs>
      <path id="DejaVuSerif-Bold-2b" d="M 3041 4013 
L 3041 2369 
L 4684 2369 
L 4684 1650 
L 3041 1650 
L 3041 6 
L 2322 6 
L 2322 1650 
L 678 1650 
L 678 2369 
L 2322 2369 
L 2322 4013 
L 3041 4013 
z
" transform="scale(0.015625)"/>
     </defs>
     <use xlink:href="#DejaVuSerif-Bold-2b"/>
     <use xlink:href="#DejaVuSerif-Bold-30" x="83.789062"/>
     <use xlink:href="#DejaVuSerif-Bold-2e" x="153.369141"/>
     <use xlink:href="#DejaVuSerif-Bold-30" x="188.183594"/>
     <use xlink:href="#DejaVuSerif-Bold-30" x="257.763672"/>
     <use xlink:href="#DejaVuSerif-Bold-34" x="327.34375"/>
    </g>
   </g>
   <g id="text_28">
    <!-- Final -->
    <g transform="translate(92.6448 272.387432) scale(0.128 -0.128)">
     <defs>
      <path id="DejaVuSerif-Italic-46" d="M -97 0 
L -34 331 
L 559 331 
L 1338 4331 
L 744 4331 
L 809 4666 
L 4628 4666 
L 4428 3628 
L 4044 3628 
L 4169 4281 
L 1963 4281 
L 1659 2719 
L 3253 2719 
L 3366 3303 
L 3750 3303 
L 3450 1753 
L 3066 1753 
L 3178 2338 
L 1584 2338 
L 1194 331 
L 1941 331 
L 1878 0 
L -97 0 
z
" transform="scale(0.015625)"/>
     </defs>
     <use xlink:href="#DejaVuSerif-Italic-46"/>
     <use xlink:href="#DejaVuSerif-Italic-69" x="69.384766"/>
     <use xlink:href="#DejaVuSerif-Italic-6e" x="101.367188"/>
     <use xlink:href="#DejaVuSerif-Italic-61" x="165.771484"/>
     <use xlink:href="#DejaVuSerif-Italic-6c" x="225.390625"/>
    </g>
    <!-- HalluGuard -->
    <g transform="translate(71.2978 285.942552) scale(0.128 -0.128)">
     <use xlink:href="#DejaVuSerif-Italic-48"/>
     <use xlink:href="#DejaVuSerif-Italic-61" x="87.207031"/>
     <use xlink:href="#DejaVuSerif-Italic-6c" x="146.826172"/>
     <use xlink:href="#DejaVuSerif-Italic-6c" x="178.808594"/>
     <use xlink:href="#DejaVuSerif-Italic-75" x="210.791016"/>
     <use xlink:href="#DejaVuSerif-Italic-47" x="275.195312"/>
     <use xlink:href="#DejaVuSerif-Italic-75" x="355.078125"/>
     <use xlink:href="#DejaVuSerif-Italic-61" x="419.482422"/>
     <use xlink:href="#DejaVuSerif-Italic-72" x="479.101562"/>
     <use xlink:href="#DejaVuSerif-Italic-64" x="526.904297"/>
    </g>
   </g>
   <g id="text_29">
    <!-- -2.193 -->
    <g style="fill: #ff1f1f" transform="translate(219.834941 279.358148) scale(0.135 -0.135)">
     <use xlink:href="#DejaVuSerif-Bold-2d"/>
     <use xlink:href="#DejaVuSerif-Bold-32" x="41.503906"/>
     <use xlink:href="#DejaVuSerif-Bold-2e" x="111.083984"/>
     <use xlink:href="#DejaVuSerif-Bold-31" x="145.898438"/>
     <use xlink:href="#DejaVuSerif-Bold-39" x="215.478516"/>
     <use xlink:href="#DejaVuSerif-Bold-33" x="285.058594"/>
    </g>
   </g>
   <g id="text_30">
    <!-- -0.617 -->
    <g style="fill: #ff1f1f" transform="translate(338.831789 279.358148) scale(0.135 -0.135)">
     <use xlink:href="#DejaVuSerif-Bold-2d"/>
     <use xlink:href="#DejaVuSerif-Bold-30" x="41.503906"/>
     <use xlink:href="#DejaVuSerif-Bold-2e" x="111.083984"/>
     <use xlink:href="#DejaVuSerif-Bold-36" x="145.898438"/>
     <use xlink:href="#DejaVuSerif-Bold-31" x="215.478516"/>
     <use xlink:href="#DejaVuSerif-Bold-37" x="285.058594"/>
    </g>
   </g>
   <g id="text_31">
    <!-- -2.509 -->
    <g style="fill: #ff1f1f" transform="translate(454.697141 279.358148) scale(0.135 -0.135)">
     <use xlink:href="#DejaVuSerif-Bold-2d"/>
     <use xlink:href="#DejaVuSerif-Bold-32" x="41.503906"/>
     <use xlink:href="#DejaVuSerif-Bold-2e" x="111.083984"/>
     <use xlink:href="#DejaVuSerif-Bold-35" x="145.898438"/>
     <use xlink:href="#DejaVuSerif-Bold-30" x="215.478516"/>
     <use xlink:href="#DejaVuSerif-Bold-39" x="285.058594"/>
    </g>
   </g>
   <g id="text_32">
    <!-- -0.065 -->
    <g style="fill: #ff1f1f" transform="translate(570.562492 279.358148) scale(0.135 -0.135)">
     <use xlink:href="#DejaVuSerif-Bold-2d"/>
     <use xlink:href="#DejaVuSerif-Bold-30" x="41.503906"/>
     <use xlink:href="#DejaVuSerif-Bold-2e" x="111.083984"/>
     <use xlink:href="#DejaVuSerif-Bold-30" x="145.898438"/>
     <use xlink:href="#DejaVuSerif-Bold-36" x="215.478516"/>
     <use xlink:href="#DejaVuSerif-Bold-35" x="285.058594"/>
    </g>
   </g>
   <g id="text_33">
    <!-- Clean: 16 dataset-backbone-horizon configs; Clean/External PatchTST: 8 PatchTST configs; Stress: 96 stress configs. -->
    <g style="fill: #555555" transform="translate(30.8304 310.955512) scale(0.09 -0.09)">
     <defs>
      <path id="DejaVuSerif-43" d="M 4513 1234 
Q 4306 581 3820 245 
Q 3334 -91 2591 -91 
Q 2134 -91 1743 65 
Q 1353 222 1050 525 
Q 700 875 529 1320 
Q 359 1766 359 2328 
Q 359 3416 987 4083 
Q 1616 4750 2644 4750 
Q 3025 4750 3456 4650 
Q 3888 4550 4384 4347 
L 4384 3272 
L 4031 3272 
Q 3916 3859 3567 4137 
Q 3219 4416 2591 4416 
Q 1844 4416 1459 3886 
Q 1075 3356 1075 2328 
Q 1075 1303 1459 773 
Q 1844 244 2591 244 
Q 3113 244 3450 492 
Q 3788 741 3938 1234 
L 4513 1234 
z
" transform="scale(0.015625)"/>
      <path id="DejaVuSerif-3a" d="M 666 325 
Q 666 500 786 622 
Q 906 744 1081 744 
Q 1256 744 1376 622 
Q 1497 500 1497 325 
Q 1497 150 1378 29 
Q 1259 -91 1081 -91 
Q 903 -91 784 29 
Q 666 150 666 325 
z
M 666 2363 
Q 666 2538 786 2658 
Q 906 2778 1081 2778 
Q 1259 2778 1378 2659 
Q 1497 2541 1497 2363 
Q 1497 2184 1378 2065 
Q 1259 1947 1081 1947 
Q 906 1947 786 2067 
Q 666 2188 666 2363 
z
" transform="scale(0.015625)"/>
      <path id="DejaVuSerif-31" d="M 909 0 
L 909 331 
L 1722 331 
L 1722 4213 
L 781 3603 
L 781 4013 
L 1919 4750 
L 2350 4750 
L 2350 331 
L 3163 331 
L 3163 0 
L 909 0 
z
" transform="scale(0.015625)"/>
      <path id="DejaVuSerif-36" d="M 2094 219 
Q 2534 219 2771 542 
Q 3009 866 3009 1472 
Q 3009 2078 2771 2401 
Q 2534 2725 2094 2725 
Q 1647 2725 1412 2412 
Q 1178 2100 1178 1509 
Q 1178 888 1415 553 
Q 1653 219 2094 219 
z
M 1075 2569 
Q 1288 2803 1556 2918 
Q 1825 3034 2163 3034 
Q 2859 3034 3264 2615 
Q 3669 2197 3669 1472 
Q 3669 763 3233 336 
Q 2797 -91 2069 -91 
Q 1278 -91 853 498 
Q 428 1088 428 2181 
Q 428 3406 931 4078 
Q 1434 4750 2350 4750 
Q 2597 4750 2869 4703 
Q 3141 4656 3425 4563 
L 3425 3794 
L 3072 3794 
Q 3034 4109 2831 4275 
Q 2628 4441 2284 4441 
Q 1678 4441 1381 3981 
Q 1084 3522 1075 2569 
z
" transform="scale(0.015625)"/>
      <path id="DejaVuSerif-2d" d="M 281 1959 
L 1881 1959 
L 1881 1472 
L 281 1472 
L 281 1959 
z
" transform="scale(0.015625)"/>
      <path id="DejaVuSerif-6b" d="M 1831 0 
L 219 0 
L 219 331 
L 738 331 
L 738 4531 
L 184 4531 
L 184 4863 
L 1313 4863 
L 1313 1697 
L 2713 2988 
L 2234 2988 
L 2234 3322 
L 3738 3322 
L 3738 2988 
L 3169 2988 
L 2181 2075 
L 3444 331 
L 3922 331 
L 3922 0 
L 2284 0 
L 2284 331 
L 2759 331 
L 1766 1697 
L 1313 1275 
L 1313 331 
L 1831 331 
L 1831 0 
z
" transform="scale(0.015625)"/>
      <path id="DejaVuSerif-7a" d="M 256 0 
L 256 269 
L 2338 2988 
L 691 2988 
L 691 2413 
L 359 2413 
L 359 3322 
L 3078 3322 
L 3078 3053 
L 997 331 
L 2803 331 
L 2803 934 
L 3138 934 
L 3138 0 
L 256 0 
z
" transform="scale(0.015625)"/>
      <path id="DejaVuSerif-66" d="M 2753 4078 
L 2450 4078 
Q 2447 4313 2317 4434 
Q 2188 4556 1941 4556 
Q 1619 4556 1487 4379 
Q 1356 4203 1356 3750 
L 1356 3322 
L 2284 3322 
L 2284 2988 
L 1356 2988 
L 1356 331 
L 2094 331 
L 2094 0 
L 231 0 
L 231 331 
L 781 331 
L 781 2988 
L 231 2988 
L 231 3322 
L 781 3322 
L 781 3738 
Q 781 4294 1070 4578 
Q 1359 4863 1919 4863 
Q 2128 4863 2337 4825 
Q 2547 4788 2753 4709 
L 2753 4078 
z
" transform="scale(0.015625)"/>
      <path id="DejaVuSerif-2f" d="M 1656 4666 
L 2156 4666 
L 500 -594 
L 0 -594 
L 1656 4666 
z
" transform="scale(0.015625)"/>
      <path id="DejaVuSerif-78" d="M 1863 2028 
L 2559 2988 
L 2113 2988 
L 2113 3322 
L 3391 3322 
L 3391 2988 
L 2950 2988 
L 2059 1759 
L 3097 331 
L 3531 331 
L 3531 0 
L 1997 0 
L 1997 331 
L 2419 331 
L 1697 1325 
L 972 331 
L 1403 331 
L 1403 0 
L 141 0 
L 141 331 
L 581 331 
L 1497 1594 
L 488 2988 
L 78 2988 
L 78 3322 
L 1563 3322 
L 1563 2988 
L 1166 2988 
L 1863 2028 
z
" transform="scale(0.015625)"/>
      <path id="DejaVuSerif-50" d="M 1581 2375 
L 2406 2375 
Q 2872 2375 3115 2626 
Q 3359 2878 3359 3353 
Q 3359 3831 3115 4081 
Q 2872 4331 2406 4331 
L 1581 4331 
L 1581 2375 
z
M 353 0 
L 353 331 
L 947 331 
L 947 4331 
L 353 4331 
L 353 4666 
L 2559 4666 
Q 3259 4666 3668 4311 
Q 4078 3956 4078 3353 
Q 4078 2753 3668 2397 
Q 3259 2041 2559 2041 
L 1581 2041 
L 1581 331 
L 2303 331 
L 2303 0 
L 353 0 
z
" transform="scale(0.015625)"/>
      <path id="DejaVuSerif-54" d="M 1222 0 
L 1222 331 
L 1819 331 
L 1819 4294 
L 447 4294 
L 447 3566 
L 63 3566 
L 63 4666 
L 4206 4666 
L 4206 3566 
L 3822 3566 
L 3822 4294 
L 2450 4294 
L 2450 331 
L 3047 331 
L 3047 0 
L 1222 0 
z
" transform="scale(0.015625)"/>
      <path id="DejaVuSerif-38" d="M 2981 1275 
Q 2981 1775 2732 2051 
Q 2484 2328 2034 2328 
Q 1584 2328 1336 2051 
Q 1088 1775 1088 1275 
Q 1088 772 1336 495 
Q 1584 219 2034 219 
Q 2484 219 2732 495 
Q 2981 772 2981 1275 
z
M 2853 3541 
Q 2853 3966 2637 4203 
Q 2422 4441 2034 4441 
Q 1650 4441 1433 4203 
Q 1216 3966 1216 3541 
Q 1216 3113 1433 2875 
Q 1650 2638 2034 2638 
Q 2422 2638 2637 2875 
Q 2853 3113 2853 3541 
z
M 2516 2484 
Q 3047 2413 3344 2092 
Q 3641 1772 3641 1275 
Q 3641 619 3225 264 
Q 2809 -91 2034 -91 
Q 1263 -91 845 264 
Q 428 619 428 1275 
Q 428 1772 725 2092 
Q 1022 2413 1556 2484 
Q 1084 2569 832 2842 
Q 581 3116 581 3541 
Q 581 4103 968 4426 
Q 1356 4750 2034 4750 
Q 2713 4750 3100 4426 
Q 3488 4103 3488 3541 
Q 3488 3116 3236 2842 
Q 2984 2569 2516 2484 
z
" transform="scale(0.015625)"/>
      <path id="DejaVuSerif-39" d="M 2994 2091 
Q 2784 1856 2512 1740 
Q 2241 1625 1900 1625 
Q 1206 1625 804 2044 
Q 403 2463 403 3188 
Q 403 3897 839 4323 
Q 1275 4750 2003 4750 
Q 2794 4750 3217 4161 
Q 3641 3572 3641 2478 
Q 3641 1253 3137 581 
Q 2634 -91 1722 -91 
Q 1475 -91 1203 -44 
Q 931 3 647 97 
L 647 872 
L 997 872 
Q 1038 556 1241 387 
Q 1444 219 1784 219 
Q 2391 219 2687 676 
Q 2984 1134 2994 2091 
z
M 1978 4441 
Q 1534 4441 1298 4117 
Q 1063 3794 1063 3188 
Q 1063 2581 1298 2256 
Q 1534 1931 1978 1931 
Q 2422 1931 2658 2245 
Q 2894 2559 2894 3150 
Q 2894 3772 2656 4106 
Q 2419 4441 1978 4441 
z
" transform="scale(0.015625)"/>
     </defs>
     <use xlink:href="#DejaVuSerif-43"/>
     <use xlink:href="#DejaVuSerif-6c" x="76.513672"/>
     <use xlink:href="#DejaVuSerif-65" x="108.496094"/>
     <use xlink:href="#DejaVuSerif-61" x="167.675781"/>
     <use xlink:href="#DejaVuSerif-6e" x="227.294922"/>
     <use xlink:href="#DejaVuSerif-3a" x="291.699219"/>
     <use xlink:href="#DejaVuSerif-20" x="325.390625"/>
     <use xlink:href="#DejaVuSerif-31" x="357.177734"/>
     <use xlink:href="#DejaVuSerif-36" x="420.800781"/>
     <use xlink:href="#DejaVuSerif-20" x="484.423828"/>
     <use xlink:href="#DejaVuSerif-64" x="516.210938"/>
     <use xlink:href="#DejaVuSerif-61" x="580.224609"/>
     <use xlink:href="#DejaVuSerif-74" x="639.84375"/>
     <use xlink:href="#DejaVuSerif-61" x="680.029297"/>
     <use xlink:href="#DejaVuSerif-73" x="739.648438"/>
     <use xlink:href="#DejaVuSerif-65" x="790.966797"/>
     <use xlink:href="#DejaVuSerif-74" x="850.146484"/>
     <use xlink:href="#DejaVuSerif-2d" x="890.332031"/>
     <use xlink:href="#DejaVuSerif-62" x="924.121094"/>
     <use xlink:href="#DejaVuSerif-61" x="988.134766"/>
     <use xlink:href="#DejaVuSerif-63" x="1047.753906"/>
     <use xlink:href="#DejaVuSerif-6b" x="1103.759766"/>
     <use xlink:href="#DejaVuSerif-62" x="1164.355469"/>
     <use xlink:href="#DejaVuSerif-6f" x="1228.369141"/>
     <use xlink:href="#DejaVuSerif-6e" x="1288.574219"/>
     <use xlink:href="#DejaVuSerif-65" x="1352.978516"/>
     <use xlink:href="#DejaVuSerif-2d" x="1412.158203"/>
     <use xlink:href="#DejaVuSerif-68" x="1445.947266"/>
     <use xlink:href="#DejaVuSerif-6f" x="1510.351562"/>
     <use xlink:href="#DejaVuSerif-72" x="1570.556641"/>
     <use xlink:href="#DejaVuSerif-69" x="1618.359375"/>
     <use xlink:href="#DejaVuSerif-7a" x="1650.341797"/>
     <use xlink:href="#DejaVuSerif-6f" x="1703.027344"/>
     <use xlink:href="#DejaVuSerif-6e" x="1763.232422"/>
     <use xlink:href="#DejaVuSerif-20" x="1827.636719"/>
     <use xlink:href="#DejaVuSerif-63" x="1859.423828"/>
     <use xlink:href="#DejaVuSerif-6f" x="1915.429688"/>
     <use xlink:href="#DejaVuSerif-6e" x="1975.634766"/>
     <use xlink:href="#DejaVuSerif-66" x="2040.039062"/>
     <use xlink:href="#DejaVuSerif-69" x="2077.050781"/>
     <use xlink:href="#DejaVuSerif-67" x="2109.033203"/>
     <use xlink:href="#DejaVuSerif-73" x="2173.046875"/>
     <use xlink:href="#DejaVuSerif-3b" x="2224.365234"/>
     <use xlink:href="#DejaVuSerif-20" x="2258.056641"/>
     <use xlink:href="#DejaVuSerif-43" x="2289.84375"/>
     <use xlink:href="#DejaVuSerif-6c" x="2366.357422"/>
     <use xlink:href="#DejaVuSerif-65" x="2398.339844"/>
     <use xlink:href="#DejaVuSerif-61" x="2457.519531"/>
     <use xlink:href="#DejaVuSerif-6e" x="2517.138672"/>
     <use xlink:href="#DejaVuSerif-2f" x="2581.542969"/>
     <use xlink:href="#DejaVuSerif-45" x="2615.234375"/>
     <use xlink:href="#DejaVuSerif-78" x="2688.232422"/>
     <use xlink:href="#DejaVuSerif-74" x="2744.628906"/>
     <use xlink:href="#DejaVuSerif-65" x="2784.814453"/>
     <use xlink:href="#DejaVuSerif-72" x="2843.994141"/>
     <use xlink:href="#DejaVuSerif-6e" x="2891.796875"/>
     <use xlink:href="#DejaVuSerif-61" x="2956.201172"/>
     <use xlink:href="#DejaVuSerif-6c" x="3015.820312"/>
     <use xlink:href="#DejaVuSerif-20" x="3047.802734"/>
     <use xlink:href="#DejaVuSerif-50" x="3079.589844"/>
     <use xlink:href="#DejaVuSerif-61" x="3142.375"/>
     <use xlink:href="#DejaVuSerif-74" x="3201.994141"/>
     <use xlink:href="#DejaVuSerif-63" x="3242.179688"/>
     <use xlink:href="#DejaVuSerif-68" x="3298.185547"/>
     <use xlink:href="#DejaVuSerif-54" x="3362.589844"/>
     <use xlink:href="#DejaVuSerif-53" x="3429.289062"/>
     <use xlink:href="#DejaVuSerif-54" x="3497.794922"/>
     <use xlink:href="#DejaVuSerif-3a" x="3560.869141"/>
     <use xlink:href="#DejaVuSerif-20" x="3594.560547"/>
     <use xlink:href="#DejaVuSerif-38" x="3626.347656"/>
     <use xlink:href="#DejaVuSerif-20" x="3689.970703"/>
     <use xlink:href="#DejaVuSerif-50" x="3721.757812"/>
     <use xlink:href="#DejaVuSerif-61" x="3784.542969"/>
     <use xlink:href="#DejaVuSerif-74" x="3844.162109"/>
     <use xlink:href="#DejaVuSerif-63" x="3884.347656"/>
     <use xlink:href="#DejaVuSerif-68" x="3940.353516"/>
     <use xlink:href="#DejaVuSerif-54" x="4004.757812"/>
     <use xlink:href="#DejaVuSerif-53" x="4071.457031"/>
     <use xlink:href="#DejaVuSerif-54" x="4139.962891"/>
     <use xlink:href="#DejaVuSerif-20" x="4206.662109"/>
     <use xlink:href="#DejaVuSerif-63" x="4238.449219"/>
     <use xlink:href="#DejaVuSerif-6f" x="4294.455078"/>
     <use xlink:href="#DejaVuSerif-6e" x="4354.660156"/>
     <use xlink:href="#DejaVuSerif-66" x="4419.064453"/>
     <use xlink:href="#DejaVuSerif-69" x="4456.076172"/>
     <use xlink:href="#DejaVuSerif-67" x="4488.058594"/>
     <use xlink:href="#DejaVuSerif-73" x="4552.072266"/>
     <use xlink:href="#DejaVuSerif-3b" x="4603.390625"/>
     <use xlink:href="#DejaVuSerif-20" x="4637.082031"/>
     <use xlink:href="#DejaVuSerif-53" x="4668.869141"/>
     <use xlink:href="#DejaVuSerif-74" x="4737.375"/>
     <use xlink:href="#DejaVuSerif-72" x="4777.560547"/>
     <use xlink:href="#DejaVuSerif-65" x="4825.363281"/>
     <use xlink:href="#DejaVuSerif-73" x="4884.542969"/>
     <use xlink:href="#DejaVuSerif-73" x="4935.861328"/>
     <use xlink:href="#DejaVuSerif-3a" x="4987.179688"/>
     <use xlink:href="#DejaVuSerif-20" x="5020.871094"/>
     <use xlink:href="#DejaVuSerif-39" x="5052.658203"/>
     <use xlink:href="#DejaVuSerif-36" x="5116.28125"/>
     <use xlink:href="#DejaVuSerif-20" x="5179.904297"/>
     <use xlink:href="#DejaVuSerif-73" x="5211.691406"/>
     <use xlink:href="#DejaVuSerif-74" x="5263.009766"/>
     <use xlink:href="#DejaVuSerif-72" x="5303.195312"/>
     <use xlink:href="#DejaVuSerif-65" x="5350.998047"/>
     <use xlink:href="#DejaVuSerif-73" x="5410.177734"/>
     <use xlink:href="#DejaVuSerif-73" x="5461.496094"/>
     <use xlink:href="#DejaVuSerif-20" x="5512.814453"/>
     <use xlink:href="#DejaVuSerif-63" x="5544.601562"/>
     <use xlink:href="#DejaVuSerif-6f" x="5600.607422"/>
     <use xlink:href="#DejaVuSerif-6e" x="5660.8125"/>
     <use xlink:href="#DejaVuSerif-66" x="5725.216797"/>
     <use xlink:href="#DejaVuSerif-69" x="5762.228516"/>
     <use xlink:href="#DejaVuSerif-67" x="5794.210938"/>
     <use xlink:href="#DejaVuSerif-73" x="5858.224609"/>
     <use xlink:href="#DejaVuSerif-2e" x="5909.542969"/>
    </g>
   </g>
   <g id="text_34">
    <!-- External fixture is used as a harm diagnostic, not as a broad external-generalization claim. -->
    <g style="fill: #555555" transform="translate(30.8304 319.936793) scale(0.09 -0.09)">
     <defs>
      <path id="DejaVuSerif-2c" d="M 231 -622 
Q 525 -406 662 -114 
Q 800 178 800 594 
L 800 709 
L 1416 709 
Q 1391 175 1164 -208 
Q 938 -591 481 -872 
L 231 -622 
z
" transform="scale(0.015625)"/>
     </defs>
     <use xlink:href="#DejaVuSerif-45"/>
     <use xlink:href="#DejaVuSerif-78" x="72.998047"/>
     <use xlink:href="#DejaVuSerif-74" x="129.394531"/>
     <use xlink:href="#DejaVuSerif-65" x="169.580078"/>
     <use xlink:href="#DejaVuSerif-72" x="228.759766"/>
     <use xlink:href="#DejaVuSerif-6e" x="276.5625"/>
     <use xlink:href="#DejaVuSerif-61" x="340.966797"/>
     <use xlink:href="#DejaVuSerif-6c" x="400.585938"/>
     <use xlink:href="#DejaVuSerif-20" x="432.568359"/>
     <use xlink:href="#DejaVuSerif-66" x="464.355469"/>
     <use xlink:href="#DejaVuSerif-69" x="501.367188"/>
     <use xlink:href="#DejaVuSerif-78" x="533.349609"/>
     <use xlink:href="#DejaVuSerif-74" x="589.746094"/>
     <use xlink:href="#DejaVuSerif-75" x="629.931641"/>
     <use xlink:href="#DejaVuSerif-72" x="694.335938"/>
     <use xlink:href="#DejaVuSerif-65" x="742.138672"/>
     <use xlink:href="#DejaVuSerif-20" x="801.318359"/>
     <use xlink:href="#DejaVuSerif-69" x="833.105469"/>
     <use xlink:href="#DejaVuSerif-73" x="865.087891"/>
     <use xlink:href="#DejaVuSerif-20" x="916.40625"/>
     <use xlink:href="#DejaVuSerif-75" x="948.193359"/>
     <use xlink:href="#DejaVuSerif-73" x="1012.597656"/>
     <use xlink:href="#DejaVuSerif-65" x="1063.916016"/>
     <use xlink:href="#DejaVuSerif-64" x="1123.095703"/>
     <use xlink:href="#DejaVuSerif-20" x="1187.109375"/>
     <use xlink:href="#DejaVuSerif-61" x="1218.896484"/>
     <use xlink:href="#DejaVuSerif-73" x="1278.515625"/>
     <use xlink:href="#DejaVuSerif-20" x="1329.833984"/>
     <use xlink:href="#DejaVuSerif-61" x="1361.621094"/>
     <use xlink:href="#DejaVuSerif-20" x="1421.240234"/>
     <use xlink:href="#DejaVuSerif-68" x="1453.027344"/>
     <use xlink:href="#DejaVuSerif-61" x="1517.431641"/>
     <use xlink:href="#DejaVuSerif-72" x="1577.050781"/>
     <use xlink:href="#DejaVuSerif-6d" x="1624.853516"/>
     <use xlink:href="#DejaVuSerif-20" x="1719.677734"/>
     <use xlink:href="#DejaVuSerif-64" x="1751.464844"/>
     <use xlink:href="#DejaVuSerif-69" x="1815.478516"/>
     <use xlink:href="#DejaVuSerif-61" x="1847.460938"/>
     <use xlink:href="#DejaVuSerif-67" x="1907.080078"/>
     <use xlink:href="#DejaVuSerif-6e" x="1971.09375"/>
     <use xlink:href="#DejaVuSerif-6f" x="2035.498047"/>
     <use xlink:href="#DejaVuSerif-73" x="2095.703125"/>
     <use xlink:href="#DejaVuSerif-74" x="2147.021484"/>
     <use xlink:href="#DejaVuSerif-69" x="2187.207031"/>
     <use xlink:href="#DejaVuSerif-63" x="2219.189453"/>
     <use xlink:href="#DejaVuSerif-2c" x="2275.195312"/>
     <use xlink:href="#DejaVuSerif-20" x="2306.982422"/>
     <use xlink:href="#DejaVuSerif-6e" x="2338.769531"/>
     <use xlink:href="#DejaVuSerif-6f" x="2403.173828"/>
     <use xlink:href="#DejaVuSerif-74" x="2463.378906"/>
     <use xlink:href="#DejaVuSerif-20" x="2503.564453"/>
     <use xlink:href="#DejaVuSerif-61" x="2535.351562"/>
     <use xlink:href="#DejaVuSerif-73" x="2594.970703"/>
     <use xlink:href="#DejaVuSerif-20" x="2646.289062"/>
     <use xlink:href="#DejaVuSerif-61" x="2678.076172"/>
     <use xlink:href="#DejaVuSerif-20" x="2737.695312"/>
     <use xlink:href="#DejaVuSerif-62" x="2769.482422"/>
     <use xlink:href="#DejaVuSerif-72" x="2833.496094"/>
     <use xlink:href="#DejaVuSerif-6f" x="2881.298828"/>
     <use xlink:href="#DejaVuSerif-61" x="2941.503906"/>
     <use xlink:href="#DejaVuSerif-64" x="3001.123047"/>
     <use xlink:href="#DejaVuSerif-20" x="3065.136719"/>
     <use xlink:href="#DejaVuSerif-65" x="3096.923828"/>
     <use xlink:href="#DejaVuSerif-78" x="3156.103516"/>
     <use xlink:href="#DejaVuSerif-74" x="3212.5"/>
     <use xlink:href="#DejaVuSerif-65" x="3252.685547"/>
     <use xlink:href="#DejaVuSerif-72" x="3311.865234"/>
     <use xlink:href="#DejaVuSerif-6e" x="3359.667969"/>
     <use xlink:href="#DejaVuSerif-61" x="3424.072266"/>
     <use xlink:href="#DejaVuSerif-6c" x="3483.691406"/>
     <use xlink:href="#DejaVuSerif-2d" x="3515.673828"/>
     <use xlink:href="#DejaVuSerif-67" x="3549.462891"/>
     <use xlink:href="#DejaVuSerif-65" x="3613.476562"/>
     <use xlink:href="#DejaVuSerif-6e" x="3672.65625"/>
     <use xlink:href="#DejaVuSerif-65" x="3737.060547"/>
     <use xlink:href="#DejaVuSerif-72" x="3796.240234"/>
     <use xlink:href="#DejaVuSerif-61" x="3844.042969"/>
     <use xlink:href="#DejaVuSerif-6c" x="3903.662109"/>
     <use xlink:href="#DejaVuSerif-69" x="3935.644531"/>
     <use xlink:href="#DejaVuSerif-7a" x="3967.626953"/>
     <use xlink:href="#DejaVuSerif-61" x="4020.3125"/>
     <use xlink:href="#DejaVuSerif-74" x="4079.931641"/>
     <use xlink:href="#DejaVuSerif-69" x="4120.117188"/>
     <use xlink:href="#DejaVuSerif-6f" x="4152.099609"/>
     <use xlink:href="#DejaVuSerif-6e" x="4212.304688"/>
     <use xlink:href="#DejaVuSerif-20" x="4276.708984"/>
     <use xlink:href="#DejaVuSerif-63" x="4308.496094"/>
     <use xlink:href="#DejaVuSerif-6c" x="4364.501953"/>
     <use xlink:href="#DejaVuSerif-61" x="4396.484375"/>
     <use xlink:href="#DejaVuSerif-69" x="4456.103516"/>
     <use xlink:href="#DejaVuSerif-6d" x="4488.085938"/>
     <use xlink:href="#DejaVuSerif-2e" x="4582.910156"/>
    </g>
   </g>
  </g>
 </g>
 <defs>
  <clipPath id="pc3573e1060">
   <rect x="3.6" y="3.6" width="680.76" height="332.64"/>
  </clipPath>
 </defs>
</svg>
