<?xml version="1.0" encoding="utf-8" standalone="no"?>
<!DOCTYPE svg PUBLIC "-//W3C//DTD SVG 1.1//EN"
  "http://www.w3.org/Graphics/SVG/1.1/DTD/svg11.dtd">
<svg xmlns:xlink="http://www.w3.org/1999/xlink" width="615.792053pt" height="518.0256pt" viewBox="0 0 615.792053 518.0256" xmlns="http://www.w3.org/2000/svg" version="1.1">
 <metadata>
  <rdf:RDF xmlns:dc="http://purl.org/dc/elements/1.1/" xmlns:cc="http://creativecommons.org/ns#" xmlns:rdf="http://www.w3.org/1999/02/22-rdf-syntax-ns#">
   <cc:Work>
    <dc:type rdf:resource="http://purl.org/dc/dcmitype/StillImage"/>
    <dc:date>2026-05-20T18:17:14.114731</dc:date>
    <dc:format>image/svg+xml</dc:format>
    <dc:creator>
     <cc:Agent>
      <dc:title>Matplotlib v3.7.2, https://matplotlib.org/</dc:title>
     </cc:Agent>
    </dc:creator>
   </cc:Work>
  </rdf:RDF>
 </metadata>
 <defs>
  <style type="text/css">*{stroke-linejoin: round; stroke-linecap: butt}</style>
 </defs>
 <g id="figure_1">
  <g id="patch_1">
   <path d="M 0 518.0256 
L 615.792053 518.0256 
L 615.792053 0 
L 0 0 
z
" style="fill: #ffffff"/>
  </g>
  <g id="axes_1">
   <g id="line2d_1">
    <path d="M 20.8476 54.10656 
L 498.2724 54.10656 
" clip-path="url(#p45a5594c33)" style="fill: none; stroke: #000000; stroke-width: 1.2; stroke-linecap: square"/>
   </g>
   <g id="line2d_2">
    <path d="M 20.8476 125.516385 
L 498.2724 125.516385 
" clip-path="url(#p45a5594c33)" style="fill: none; stroke: #000000; stroke-width: 1.15; stroke-linecap: square"/>
   </g>
   <g id="line2d_3">
    <path d="M 20.8476 474.164352 
L 498.2724 474.164352 
" clip-path="url(#p45a5594c33)" style="fill: none; stroke: #000000; stroke-width: 1.2; stroke-linecap: square"/>
   </g>
   <g id="line2d_4">
    <path d="M 20.8476 474.164352 
L 20.8476 54.10656 
" clip-path="url(#p45a5594c33)" style="fill: none; stroke: #000000; stroke-width: 0.8; stroke-linecap: square"/>
   </g>
   <g id="line2d_5">
    <path d="M 135.429552 474.164352 
L 135.429552 54.10656 
" clip-path="url(#p45a5594c33)" style="fill: none; stroke: #000000; stroke-width: 0.8; stroke-linecap: square"/>
   </g>
   <g id="line2d_6">
    <path d="M 192.720528 474.164352 
L 192.720528 54.10656 
" clip-path="url(#p45a5594c33)" style="fill: none; stroke: #000000; stroke-width: 0.8; stroke-linecap: square"/>
   </g>
   <g id="line2d_7">
    <path d="M 252.398628 474.164352 
L 252.398628 54.10656 
" clip-path="url(#p45a5594c33)" style="fill: none; stroke: #000000; stroke-width: 0.8; stroke-linecap: square"/>
   </g>
   <g id="line2d_8">
    <path d="M 312.076728 474.164352 
L 312.076728 54.10656 
" clip-path="url(#p45a5594c33)" style="fill: none; stroke: #000000; stroke-width: 0.8; stroke-linecap: square"/>
   </g>
   <g id="line2d_9">
    <path d="M 371.754828 474.164352 
L 371.754828 54.10656 
" clip-path="url(#p45a5594c33)" style="fill: none; stroke: #000000; stroke-width: 0.8; stroke-linecap: square"/>
   </g>
   <g id="line2d_10">
    <path d="M 431.432928 474.164352 
L 431.432928 54.10656 
" clip-path="url(#p45a5594c33)" style="fill: none; stroke: #000000; stroke-width: 0.8; stroke-linecap: square"/>
   </g>
   <g id="line2d_11">
    <path d="M 498.2724 474.164352 
L 498.2724 54.10656 
" clip-path="url(#p45a5594c33)" style="fill: none; stroke: #000000; stroke-width: 0.8; stroke-linecap: square"/>
   </g>
   <g id="line2d_12">
    <path d="M 20.8476 195.245978 
L 498.2724 195.245978 
" clip-path="url(#p45a5594c33)" style="fill: none; stroke: #000000; stroke-width: 0.75; stroke-linecap: square"/>
   </g>
   <g id="line2d_13">
    <path d="M 135.429552 160.381181 
L 498.2724 160.381181 
" clip-path="url(#p45a5594c33)" style="fill: none; stroke: #000000; stroke-width: 0.45; stroke-linecap: square"/>
   </g>
   <g id="line2d_14">
    <path d="M 20.8476 264.975572 
L 498.2724 264.975572 
" clip-path="url(#p45a5594c33)" style="fill: none; stroke: #000000; stroke-width: 0.75; stroke-linecap: square"/>
   </g>
   <g id="line2d_15">
    <path d="M 135.429552 230.110775 
L 498.2724 230.110775 
" clip-path="url(#p45a5594c33)" style="fill: none; stroke: #000000; stroke-width: 0.45; stroke-linecap: square"/>
   </g>
   <g id="line2d_16">
    <path d="M 20.8476 334.705165 
L 498.2724 334.705165 
" clip-path="url(#p45a5594c33)" style="fill: none; stroke: #000000; stroke-width: 0.75; stroke-linecap: square"/>
   </g>
   <g id="line2d_17">
    <path d="M 135.429552 299.840368 
L 498.2724 299.840368 
" clip-path="url(#p45a5594c33)" style="fill: none; stroke: #000000; stroke-width: 0.45; stroke-linecap: square"/>
   </g>
   <g id="line2d_18">
    <path d="M 20.8476 404.434759 
L 498.2724 404.434759 
" clip-path="url(#p45a5594c33)" style="fill: none; stroke: #000000; stroke-width: 0.75; stroke-linecap: square"/>
   </g>
   <g id="line2d_19">
    <path d="M 135.429552 369.569962 
L 498.2724 369.569962 
" clip-path="url(#p45a5594c33)" style="fill: none; stroke: #000000; stroke-width: 0.45; stroke-linecap: square"/>
   </g>
   <g id="line2d_20">
    <path d="M 20.8476 474.164352 
L 498.2724 474.164352 
" clip-path="url(#p45a5594c33)" style="fill: none; stroke: #000000; stroke-width: 0.75; stroke-linecap: square"/>
   </g>
   <g id="line2d_21">
    <path d="M 135.429552 439.299555 
L 498.2724 439.299555 
" clip-path="url(#p45a5594c33)" style="fill: none; stroke: #000000; stroke-width: 0.45; stroke-linecap: square"/>
   </g>
   <g id="text_1">
    <!-- Final HalluGuard improves over the matched smoothing control and earlier module versions. -->
    <g style="fill: #222222" transform="translate(20.8476 30.307343) scale(0.125 -0.125)">
     <defs>
      <path id="DejaVuSerif-46" d="M 353 0 
L 353 331 
L 947 331 
L 947 4331 
L 353 4331 
L 353 4666 
L 4172 4666 
L 4172 3628 
L 3788 3628 
L 3788 4281 
L 1581 4281 
L 1581 2719 
L 3175 2719 
L 3175 3303 
L 3559 3303 
L 3559 1753 
L 3175 1753 
L 3175 2338 
L 1581 2338 
L 1581 331 
L 2328 331 
L 2328 0 
L 353 0 
z
" transform="scale(0.015625)"/>
      <path id="DejaVuSerif-69" d="M 622 4353 
Q 622 4497 726 4603 
Q 831 4709 978 4709 
Q 1122 4709 1226 4603 
Q 1331 4497 1331 4353 
Q 1331 4206 1228 4103 
Q 1125 4000 978 4000 
Q 831 4000 726 4103 
Q 622 4206 622 4353 
z
M 1356 331 
L 1900 331 
L 1900 0 
L 231 0 
L 231 331 
L 781 331 
L 781 2988 
L 231 2988 
L 231 3322 
L 1356 3322 
L 1356 331 
z
" transform="scale(0.015625)"/>
      <path id="DejaVuSerif-6e" d="M 263 0 
L 263 331 
L 781 331 
L 781 2988 
L 231 2988 
L 231 3322 
L 1356 3322 
L 1356 2731 
Q 1516 3069 1770 3241 
Q 2025 3413 2363 3413 
Q 2913 3413 3172 3097 
Q 3431 2781 3431 2113 
L 3431 331 
L 3944 331 
L 3944 0 
L 2356 0 
L 2356 331 
L 2853 331 
L 2853 1931 
Q 2853 2541 2703 2767 
Q 2553 2994 2175 2994 
Q 1775 2994 1565 2701 
Q 1356 2409 1356 1850 
L 1356 331 
L 1856 331 
L 1856 0 
L 263 0 
z
" transform="scale(0.015625)"/>
      <path id="DejaVuSerif-61" d="M 2547 1044 
L 2547 1747 
L 1806 1747 
Q 1378 1747 1168 1562 
Q 959 1378 959 997 
Q 959 650 1171 447 
Q 1384 244 1747 244 
Q 2106 244 2326 466 
Q 2547 688 2547 1044 
z
M 3122 2075 
L 3122 331 
L 3634 331 
L 3634 0 
L 2547 0 
L 2547 359 
Q 2356 128 2106 18 
Q 1856 -91 1522 -91 
Q 969 -91 644 203 
Q 319 497 319 997 
Q 319 1513 691 1797 
Q 1063 2081 1741 2081 
L 2547 2081 
L 2547 2309 
Q 2547 2688 2317 2895 
Q 2088 3103 1672 3103 
Q 1328 3103 1125 2947 
Q 922 2791 872 2484 
L 575 2484 
L 575 3156 
Q 875 3284 1158 3348 
Q 1441 3413 1709 3413 
Q 2400 3413 2761 3070 
Q 3122 2728 3122 2075 
z
" transform="scale(0.015625)"/>
      <path id="DejaVuSerif-6c" d="M 1313 331 
L 1856 331 
L 1856 0 
L 184 0 
L 184 331 
L 738 331 
L 738 4531 
L 184 4531 
L 184 4863 
L 1313 4863 
L 1313 331 
z
" transform="scale(0.015625)"/>
      <path id="DejaVuSerif-20" transform="scale(0.015625)"/>
      <path id="DejaVuSerif-48" d="M 353 0 
L 353 331 
L 947 331 
L 947 4331 
L 353 4331 
L 353 4666 
L 2175 4666 
L 2175 4331 
L 1581 4331 
L 1581 2719 
L 4000 2719 
L 4000 4331 
L 3406 4331 
L 3406 4666 
L 5228 4666 
L 5228 4331 
L 4634 4331 
L 4634 331 
L 5228 331 
L 5228 0 
L 3406 0 
L 3406 331 
L 4000 331 
L 4000 2338 
L 1581 2338 
L 1581 331 
L 2175 331 
L 2175 0 
L 353 0 
z
" transform="scale(0.015625)"/>
      <path id="DejaVuSerif-75" d="M 2266 3322 
L 3341 3322 
L 3341 331 
L 3884 331 
L 3884 0 
L 2766 0 
L 2766 588 
Q 2606 256 2353 82 
Q 2100 -91 1766 -91 
Q 1213 -91 952 223 
Q 691 538 691 1209 
L 691 2988 
L 172 2988 
L 172 3322 
L 1269 3322 
L 1269 1388 
Q 1269 781 1417 556 
Q 1566 331 1947 331 
Q 2347 331 2556 625 
Q 2766 919 2766 1478 
L 2766 2988 
L 2266 2988 
L 2266 3322 
z
" transform="scale(0.015625)"/>
      <path id="DejaVuSerif-47" d="M 4097 3272 
Q 3988 3856 3641 4136 
Q 3294 4416 2675 4416 
Q 1869 4416 1472 3897 
Q 1075 3378 1075 2328 
Q 1075 1300 1484 772 
Q 1894 244 2688 244 
Q 3041 244 3362 331 
Q 3684 419 3975 594 
L 3975 1797 
L 3097 1797 
L 3097 2131 
L 4609 2131 
L 4609 391 
Q 4194 150 3714 29 
Q 3234 -91 2688 -91 
Q 1631 -91 995 570 
Q 359 1231 359 2328 
Q 359 3434 996 4092 
Q 1634 4750 2713 4750 
Q 3113 4750 3539 4658 
Q 3966 4566 4447 4378 
L 4447 3272 
L 4097 3272 
z
" transform="scale(0.015625)"/>
      <path id="DejaVuSerif-72" d="M 3059 3328 
L 3059 2497 
L 2728 2497 
Q 2713 2744 2591 2866 
Q 2469 2988 2234 2988 
Q 1809 2988 1582 2694 
Q 1356 2400 1356 1850 
L 1356 331 
L 2022 331 
L 2022 0 
L 263 0 
L 263 331 
L 781 331 
L 781 2994 
L 231 2994 
L 231 3322 
L 1356 3322 
L 1356 2731 
Q 1525 3078 1790 3245 
Q 2056 3413 2438 3413 
Q 2578 3413 2733 3391 
Q 2888 3369 3059 3328 
z
" transform="scale(0.015625)"/>
      <path id="DejaVuSerif-64" d="M 3359 331 
L 3909 331 
L 3909 0 
L 2784 0 
L 2784 519 
Q 2616 206 2355 57 
Q 2094 -91 1709 -91 
Q 1097 -91 708 395 
Q 319 881 319 1663 
Q 319 2444 706 2928 
Q 1094 3413 1709 3413 
Q 2094 3413 2355 3264 
Q 2616 3116 2784 2803 
L 2784 4531 
L 2241 4531 
L 2241 4863 
L 3359 4863 
L 3359 331 
z
M 2784 1497 
L 2784 1825 
Q 2784 2422 2554 2737 
Q 2325 3053 1888 3053 
Q 1444 3053 1217 2703 
Q 991 2353 991 1663 
Q 991 975 1217 622 
Q 1444 269 1888 269 
Q 2325 269 2554 583 
Q 2784 897 2784 1497 
z
" transform="scale(0.015625)"/>
      <path id="DejaVuSerif-6d" d="M 3316 2675 
Q 3481 3041 3739 3227 
Q 3997 3413 4341 3413 
Q 4863 3413 5119 3089 
Q 5375 2766 5375 2113 
L 5375 331 
L 5894 331 
L 5894 0 
L 4300 0 
L 4300 331 
L 4800 331 
L 4800 2047 
Q 4800 2556 4650 2772 
Q 4500 2988 4153 2988 
Q 3769 2988 3567 2697 
Q 3366 2406 3366 1850 
L 3366 331 
L 3866 331 
L 3866 0 
L 2291 0 
L 2291 331 
L 2791 331 
L 2791 2069 
Q 2791 2566 2641 2777 
Q 2491 2988 2144 2988 
Q 1759 2988 1557 2697 
Q 1356 2406 1356 1850 
L 1356 331 
L 1856 331 
L 1856 0 
L 263 0 
L 263 331 
L 781 331 
L 781 2994 
L 231 2994 
L 231 3322 
L 1356 3322 
L 1356 2731 
Q 1516 3063 1762 3238 
Q 2009 3413 2322 3413 
Q 2709 3413 2968 3220 
Q 3228 3028 3316 2675 
z
" transform="scale(0.015625)"/>
      <path id="DejaVuSerif-70" d="M 1313 1825 
L 1313 1497 
Q 1313 897 1542 583 
Q 1772 269 2209 269 
Q 2650 269 2876 622 
Q 3103 975 3103 1663 
Q 3103 2353 2876 2703 
Q 2650 3053 2209 3053 
Q 1772 3053 1542 2737 
Q 1313 2422 1313 1825 
z
M 738 2988 
L 184 2988 
L 184 3322 
L 1313 3322 
L 1313 2803 
Q 1481 3116 1742 3264 
Q 2003 3413 2388 3413 
Q 3000 3413 3387 2928 
Q 3775 2444 3775 1663 
Q 3775 881 3387 395 
Q 3000 -91 2388 -91 
Q 2003 -91 1742 57 
Q 1481 206 1313 519 
L 1313 -997 
L 1856 -997 
L 1856 -1331 
L 184 -1331 
L 184 -997 
L 738 -997 
L 738 2988 
z
" transform="scale(0.015625)"/>
      <path id="DejaVuSerif-6f" d="M 1925 219 
Q 2388 219 2623 584 
Q 2859 950 2859 1663 
Q 2859 2375 2623 2739 
Q 2388 3103 1925 3103 
Q 1463 3103 1227 2739 
Q 991 2375 991 1663 
Q 991 950 1228 584 
Q 1466 219 1925 219 
z
M 1925 -91 
Q 1200 -91 759 389 
Q 319 869 319 1663 
Q 319 2456 758 2934 
Q 1197 3413 1925 3413 
Q 2653 3413 3092 2934 
Q 3531 2456 3531 1663 
Q 3531 869 3092 389 
Q 2653 -91 1925 -91 
z
" transform="scale(0.015625)"/>
      <path id="DejaVuSerif-76" d="M 1581 0 
L 359 2988 
L -19 2988 
L -19 3322 
L 1509 3322 
L 1509 2988 
L 978 2988 
L 1913 703 
L 2847 2988 
L 2350 2988 
L 2350 3322 
L 3597 3322 
L 3597 2988 
L 3225 2988 
L 2003 0 
L 1581 0 
z
" transform="scale(0.015625)"/>
      <path id="DejaVuSerif-65" d="M 3469 1600 
L 991 1600 
L 991 1575 
Q 991 903 1244 561 
Q 1497 219 1991 219 
Q 2369 219 2611 417 
Q 2853 616 2950 1006 
L 3413 1006 
Q 3275 459 2904 184 
Q 2534 -91 1931 -91 
Q 1203 -91 761 389 
Q 319 869 319 1663 
Q 319 2450 753 2931 
Q 1188 3413 1894 3413 
Q 2647 3413 3050 2948 
Q 3453 2484 3469 1600 
z
M 2791 1931 
Q 2772 2513 2545 2808 
Q 2319 3103 1894 3103 
Q 1497 3103 1269 2806 
Q 1041 2509 991 1931 
L 2791 1931 
z
" transform="scale(0.015625)"/>
      <path id="DejaVuSerif-73" d="M 359 184 
L 359 959 
L 691 959 
Q 703 588 923 403 
Q 1144 219 1575 219 
Q 1963 219 2166 364 
Q 2369 509 2369 788 
Q 2369 1006 2220 1140 
Q 2072 1275 1594 1428 
L 1178 1569 
Q 750 1706 558 1912 
Q 366 2119 366 2438 
Q 366 2894 700 3153 
Q 1034 3413 1625 3413 
Q 1888 3413 2178 3344 
Q 2469 3275 2778 3144 
L 2778 2419 
L 2447 2419 
Q 2434 2741 2221 2922 
Q 2009 3103 1644 3103 
Q 1281 3103 1095 2975 
Q 909 2847 909 2591 
Q 909 2381 1050 2254 
Q 1191 2128 1613 1997 
L 2069 1856 
Q 2541 1709 2748 1489 
Q 2956 1269 2956 922 
Q 2956 450 2595 179 
Q 2234 -91 1600 -91 
Q 1278 -91 972 -22 
Q 666 47 359 184 
z
" transform="scale(0.015625)"/>
      <path id="DejaVuSerif-74" d="M 691 2988 
L 184 2988 
L 184 3322 
L 691 3322 
L 691 4353 
L 1269 4353 
L 1269 3322 
L 2350 3322 
L 2350 2988 
L 1269 2988 
L 1269 878 
Q 1269 456 1350 337 
Q 1431 219 1650 219 
Q 1875 219 1978 351 
Q 2081 484 2088 781 
L 2522 781 
Q 2497 328 2275 118 
Q 2053 -91 1600 -91 
Q 1103 -91 897 129 
Q 691 350 691 878 
L 691 2988 
z
" transform="scale(0.015625)"/>
      <path id="DejaVuSerif-68" d="M 263 0 
L 263 331 
L 781 331 
L 781 4531 
L 231 4531 
L 231 4863 
L 1356 4863 
L 1356 2731 
Q 1516 3069 1770 3241 
Q 2025 3413 2363 3413 
Q 2913 3413 3172 3097 
Q 3431 2781 3431 2113 
L 3431 331 
L 3944 331 
L 3944 0 
L 2356 0 
L 2356 331 
L 2853 331 
L 2853 1931 
Q 2853 2541 2704 2764 
Q 2556 2988 2175 2988 
Q 1775 2988 1565 2697 
Q 1356 2406 1356 1850 
L 1356 331 
L 1856 331 
L 1856 0 
L 263 0 
z
" transform="scale(0.015625)"/>
      <path id="DejaVuSerif-63" d="M 3291 997 
Q 3169 466 2822 187 
Q 2475 -91 1925 -91 
Q 1200 -91 759 389 
Q 319 869 319 1663 
Q 319 2459 759 2936 
Q 1200 3413 1925 3413 
Q 2241 3413 2553 3339 
Q 2866 3266 3181 3116 
L 3181 2266 
L 2847 2266 
Q 2781 2703 2561 2903 
Q 2341 3103 1931 3103 
Q 1466 3103 1228 2742 
Q 991 2381 991 1663 
Q 991 944 1227 581 
Q 1463 219 1931 219 
Q 2303 219 2525 412 
Q 2747 606 2828 997 
L 3291 997 
z
" transform="scale(0.015625)"/>
      <path id="DejaVuSerif-67" d="M 3359 2988 
L 3359 72 
Q 3359 -644 2965 -1033 
Q 2572 -1422 1844 -1422 
Q 1516 -1422 1216 -1362 
Q 916 -1303 641 -1184 
L 641 -488 
L 941 -488 
Q 997 -813 1206 -963 
Q 1416 -1113 1806 -1113 
Q 2313 -1113 2548 -827 
Q 2784 -541 2784 72 
L 2784 519 
Q 2616 206 2355 57 
Q 2094 -91 1709 -91 
Q 1097 -91 708 395 
Q 319 881 319 1663 
Q 319 2444 706 2928 
Q 1094 3413 1709 3413 
Q 2094 3413 2355 3264 
Q 2616 3116 2784 2803 
L 2784 3322 
L 3909 3322 
L 3909 2988 
L 3359 2988 
z
M 2784 1825 
Q 2784 2422 2554 2737 
Q 2325 3053 1888 3053 
Q 1444 3053 1217 2703 
Q 991 2353 991 1663 
Q 991 975 1217 622 
Q 1444 269 1888 269 
Q 2325 269 2554 583 
Q 2784 897 2784 1497 
L 2784 1825 
z
" transform="scale(0.015625)"/>
      <path id="DejaVuSerif-2e" d="M 603 325 
Q 603 500 722 622 
Q 841 744 1019 744 
Q 1191 744 1312 622 
Q 1434 500 1434 325 
Q 1434 153 1312 31 
Q 1191 -91 1019 -91 
Q 841 -91 722 29 
Q 603 150 603 325 
z
" transform="scale(0.015625)"/>
     </defs>
     <use xlink:href="#DejaVuSerif-46"/>
     <use xlink:href="#DejaVuSerif-69" x="69.384766"/>
     <use xlink:href="#DejaVuSerif-6e" x="101.367188"/>
     <use xlink:href="#DejaVuSerif-61" x="165.771484"/>
     <use xlink:href="#DejaVuSerif-6c" x="225.390625"/>
     <use xlink:href="#DejaVuSerif-20" x="257.373047"/>
     <use xlink:href="#DejaVuSerif-48" x="289.160156"/>
     <use xlink:href="#DejaVuSerif-61" x="376.367188"/>
     <use xlink:href="#DejaVuSerif-6c" x="435.986328"/>
     <use xlink:href="#DejaVuSerif-6c" x="467.96875"/>
     <use xlink:href="#DejaVuSerif-75" x="499.951172"/>
     <use xlink:href="#DejaVuSerif-47" x="564.355469"/>
     <use xlink:href="#DejaVuSerif-75" x="644.238281"/>
     <use xlink:href="#DejaVuSerif-61" x="708.642578"/>
     <use xlink:href="#DejaVuSerif-72" x="768.261719"/>
     <use xlink:href="#DejaVuSerif-64" x="816.064453"/>
     <use xlink:href="#DejaVuSerif-20" x="880.078125"/>
     <use xlink:href="#DejaVuSerif-69" x="911.865234"/>
     <use xlink:href="#DejaVuSerif-6d" x="943.847656"/>
     <use xlink:href="#DejaVuSerif-70" x="1038.671875"/>
     <use xlink:href="#DejaVuSerif-72" x="1102.685547"/>
     <use xlink:href="#DejaVuSerif-6f" x="1150.488281"/>
     <use xlink:href="#DejaVuSerif-76" x="1210.693359"/>
     <use xlink:href="#DejaVuSerif-65" x="1267.1875"/>
     <use xlink:href="#DejaVuSerif-73" x="1326.367188"/>
     <use xlink:href="#DejaVuSerif-20" x="1377.685547"/>
     <use xlink:href="#DejaVuSerif-6f" x="1409.472656"/>
     <use xlink:href="#DejaVuSerif-76" x="1469.677734"/>
     <use xlink:href="#DejaVuSerif-65" x="1526.171875"/>
     <use xlink:href="#DejaVuSerif-72" x="1585.351562"/>
     <use xlink:href="#DejaVuSerif-20" x="1633.154297"/>
     <use xlink:href="#DejaVuSerif-74" x="1664.941406"/>
     <use xlink:href="#DejaVuSerif-68" x="1705.126953"/>
     <use xlink:href="#DejaVuSerif-65" x="1769.53125"/>
     <use xlink:href="#DejaVuSerif-20" x="1828.710938"/>
     <use xlink:href="#DejaVuSerif-6d" x="1860.498047"/>
     <use xlink:href="#DejaVuSerif-61" x="1955.322266"/>
     <use xlink:href="#DejaVuSerif-74" x="2014.941406"/>
     <use xlink:href="#DejaVuSerif-63" x="2055.126953"/>
     <use xlink:href="#DejaVuSerif-68" x="2111.132812"/>
     <use xlink:href="#DejaVuSerif-65" x="2175.537109"/>
     <use xlink:href="#DejaVuSerif-64" x="2234.716797"/>
     <use xlink:href="#DejaVuSerif-20" x="2298.730469"/>
     <use xlink:href="#DejaVuSerif-73" x="2330.517578"/>
     <use xlink:href="#DejaVuSerif-6d" x="2381.835938"/>
     <use xlink:href="#DejaVuSerif-6f" x="2476.660156"/>
     <use xlink:href="#DejaVuSerif-6f" x="2536.865234"/>
     <use xlink:href="#DejaVuSerif-74" x="2597.070312"/>
     <use xlink:href="#DejaVuSerif-68" x="2637.255859"/>
     <use xlink:href="#DejaVuSerif-69" x="2701.660156"/>
     <use xlink:href="#DejaVuSerif-6e" x="2733.642578"/>
     <use xlink:href="#DejaVuSerif-67" x="2798.046875"/>
     <use xlink:href="#DejaVuSerif-20" x="2862.060547"/>
     <use xlink:href="#DejaVuSerif-63" x="2893.847656"/>
     <use xlink:href="#DejaVuSerif-6f" x="2949.853516"/>
     <use xlink:href="#DejaVuSerif-6e" x="3010.058594"/>
     <use xlink:href="#DejaVuSerif-74" x="3074.462891"/>
     <use xlink:href="#DejaVuSerif-72" x="3114.648438"/>
     <use xlink:href="#DejaVuSerif-6f" x="3162.451172"/>
     <use xlink:href="#DejaVuSerif-6c" x="3222.65625"/>
     <use xlink:href="#DejaVuSerif-20" x="3254.638672"/>
     <use xlink:href="#DejaVuSerif-61" x="3286.425781"/>
     <use xlink:href="#DejaVuSerif-6e" x="3346.044922"/>
     <use xlink:href="#DejaVuSerif-64" x="3410.449219"/>
     <use xlink:href="#DejaVuSerif-20" x="3474.462891"/>
     <use xlink:href="#DejaVuSerif-65" x="3506.25"/>
     <use xlink:href="#DejaVuSerif-61" x="3565.429688"/>
     <use xlink:href="#DejaVuSerif-72" x="3625.048828"/>
     <use xlink:href="#DejaVuSerif-6c" x="3672.851562"/>
     <use xlink:href="#DejaVuSerif-69" x="3704.833984"/>
     <use xlink:href="#DejaVuSerif-65" x="3736.816406"/>
     <use xlink:href="#DejaVuSerif-72" x="3795.996094"/>
     <use xlink:href="#DejaVuSerif-20" x="3843.798828"/>
     <use xlink:href="#DejaVuSerif-6d" x="3875.585938"/>
     <use xlink:href="#DejaVuSerif-6f" x="3970.410156"/>
     <use xlink:href="#DejaVuSerif-64" x="4030.615234"/>
     <use xlink:href="#DejaVuSerif-75" x="4094.628906"/>
     <use xlink:href="#DejaVuSerif-6c" x="4159.033203"/>
     <use xlink:href="#DejaVuSerif-65" x="4191.015625"/>
     <use xlink:href="#DejaVuSerif-20" x="4250.195312"/>
     <use xlink:href="#DejaVuSerif-76" x="4281.982422"/>
     <use xlink:href="#DejaVuSerif-65" x="4338.476562"/>
     <use xlink:href="#DejaVuSerif-72" x="4397.65625"/>
     <use xlink:href="#DejaVuSerif-73" x="4445.458984"/>
     <use xlink:href="#DejaVuSerif-69" x="4496.777344"/>
     <use xlink:href="#DejaVuSerif-6f" x="4528.759766"/>
     <use xlink:href="#DejaVuSerif-6e" x="4588.964844"/>
     <use xlink:href="#DejaVuSerif-73" x="4653.369141"/>
     <use xlink:href="#DejaVuSerif-2e" x="4704.6875"/>
    </g>
   </g>
   <g id="text_2">
    <!-- Methods -->
    <g transform="translate(42.894514 93.812566) scale(0.145 -0.145)">
     <defs>
      <path id="DejaVuSerif-Bold-4d" d="M 269 0 
L 269 378 
L 863 378 
L 863 4288 
L 269 4288 
L 269 4666 
L 2194 4666 
L 3525 1672 
L 4863 4666 
L 6784 4666 
L 6784 4288 
L 6188 4288 
L 6188 378 
L 6784 378 
L 6784 0 
L 4384 0 
L 4384 378 
L 4978 378 
L 4978 3938 
L 3531 684 
L 2741 684 
L 1300 3938 
L 1300 378 
L 1894 378 
L 1894 0 
L 269 0 
z
" transform="scale(0.015625)"/>
      <path id="DejaVuSerif-Bold-65" d="M 2566 1875 
Q 2566 2531 2444 2795 
Q 2322 3059 2028 3059 
Q 1744 3059 1620 2800 
Q 1497 2541 1497 1931 
L 1497 1875 
L 2566 1875 
z
M 3781 1503 
L 1497 1503 
L 1497 1478 
Q 1497 834 1690 548 
Q 1884 263 2316 263 
Q 2675 263 2897 453 
Q 3119 644 3181 1006 
L 3700 1006 
Q 3566 441 3166 175 
Q 2766 -91 2047 -91 
Q 1184 -91 723 364 
Q 263 819 263 1663 
Q 263 2488 734 2950 
Q 1206 3413 2047 3413 
Q 2872 3413 3312 2927 
Q 3753 2441 3781 1503 
z
" transform="scale(0.015625)"/>
      <path id="DejaVuSerif-Bold-74" d="M 634 2944 
L 153 2944 
L 153 3322 
L 634 3322 
L 634 4353 
L 1741 4353 
L 1741 3322 
L 2663 3322 
L 2663 2944 
L 1741 2944 
L 1741 909 
Q 1741 475 1809 369 
Q 1878 263 2059 263 
Q 2259 263 2356 397 
Q 2453 531 2459 813 
L 2925 813 
Q 2897 313 2651 111 
Q 2406 -91 1806 -91 
Q 1122 -91 878 123 
Q 634 338 634 909 
L 634 2944 
z
" transform="scale(0.015625)"/>
      <path id="DejaVuSerif-Bold-68" d="M 219 0 
L 219 378 
L 691 378 
L 691 4488 
L 197 4488 
L 197 4863 
L 1797 4863 
L 1797 2853 
Q 1997 3150 2253 3281 
Q 2509 3413 2900 3413 
Q 3459 3413 3745 3083 
Q 4031 2753 4031 2113 
L 4031 378 
L 4506 378 
L 4506 0 
L 2522 0 
L 2522 378 
L 2925 378 
L 2925 2144 
Q 2925 2566 2817 2730 
Q 2709 2894 2444 2894 
Q 2109 2894 1953 2648 
Q 1797 2403 1797 1869 
L 1797 378 
L 2203 378 
L 2203 0 
L 219 0 
z
" transform="scale(0.015625)"/>
      <path id="DejaVuSerif-Bold-6f" d="M 2138 263 
Q 2488 263 2630 563 
Q 2772 863 2772 1663 
Q 2772 2463 2631 2761 
Q 2491 3059 2138 3059 
Q 1784 3059 1640 2757 
Q 1497 2456 1497 1663 
Q 1497 869 1640 566 
Q 1784 263 2138 263 
z
M 2138 -91 
Q 1259 -91 761 376 
Q 263 844 263 1663 
Q 263 2484 761 2948 
Q 1259 3413 2138 3413 
Q 3019 3413 3516 2948 
Q 4013 2484 4013 1663 
Q 4013 844 3514 376 
Q 3016 -91 2138 -91 
z
" transform="scale(0.015625)"/>
      <path id="DejaVuSerif-Bold-64" d="M 2747 1497 
L 2747 1825 
Q 2747 2406 2597 2665 
Q 2447 2925 2119 2925 
Q 1775 2925 1636 2651 
Q 1497 2378 1497 1663 
Q 1497 947 1637 672 
Q 1778 397 2119 397 
Q 2447 397 2597 656 
Q 2747 916 2747 1497 
z
M 3853 378 
L 4325 378 
L 4325 0 
L 2747 0 
L 2747 422 
Q 2606 163 2367 36 
Q 2128 -91 1778 -91 
Q 1072 -91 667 378 
Q 263 847 263 1663 
Q 263 2481 667 2947 
Q 1072 3413 1778 3413 
Q 2128 3413 2367 3286 
Q 2606 3159 2747 2900 
L 2747 4488 
L 2272 4488 
L 2272 4863 
L 3853 4863 
L 3853 378 
z
" transform="scale(0.015625)"/>
      <path id="DejaVuSerif-Bold-73" d="M 300 97 
L 300 1025 
L 653 1025 
Q 697 653 931 458 
Q 1166 263 1569 263 
Q 1906 263 2086 380 
Q 2266 497 2266 716 
Q 2266 916 2152 1025 
Q 2038 1134 1709 1216 
L 1253 1331 
Q 738 1459 506 1698 
Q 275 1938 275 2344 
Q 275 2884 650 3148 
Q 1025 3413 1806 3413 
Q 2100 3413 2433 3364 
Q 2766 3316 3169 3213 
L 3169 2375 
L 2816 2375 
Q 2788 2716 2573 2887 
Q 2359 3059 1959 3059 
Q 1622 3059 1448 2951 
Q 1275 2844 1275 2638 
Q 1275 2469 1375 2372 
Q 1475 2275 1734 2209 
L 2188 2094 
Q 2841 1928 3091 1684 
Q 3341 1441 3341 1006 
Q 3341 444 2939 176 
Q 2538 -91 1691 -91 
Q 1381 -91 1034 -44 
Q 688 3 300 97 
z
" transform="scale(0.015625)"/>
     </defs>
     <use xlink:href="#DejaVuSerif-Bold-4d"/>
     <use xlink:href="#DejaVuSerif-Bold-65" x="110.693359"/>
     <use xlink:href="#DejaVuSerif-Bold-74" x="174.316406"/>
     <use xlink:href="#DejaVuSerif-Bold-68" x="220.507812"/>
     <use xlink:href="#DejaVuSerif-Bold-6f" x="293.212891"/>
     <use xlink:href="#DejaVuSerif-Bold-64" x="359.912109"/>
     <use xlink:href="#DejaVuSerif-Bold-73" x="429.833984"/>
    </g>
   </g>
   <g id="text_3">
    <!-- Metric -->
    <g transform="translate(137.100509 93.812566) scale(0.145 -0.145)">
     <defs>
      <path id="DejaVuSerif-Bold-72" d="M 3438 3359 
L 3438 2369 
L 3084 2369 
Q 3066 2634 2941 2764 
Q 2816 2894 2578 2894 
Q 2216 2894 2006 2575 
Q 1797 2256 1797 1691 
L 1797 378 
L 2400 378 
L 2400 0 
L 219 0 
L 219 378 
L 691 378 
L 691 2944 
L 184 2944 
L 184 3322 
L 1797 3322 
L 1797 2731 
Q 1959 3078 2226 3245 
Q 2494 3413 2881 3413 
Q 2978 3413 3117 3398 
Q 3256 3384 3438 3359 
z
" transform="scale(0.015625)"/>
      <path id="DejaVuSerif-Bold-69" d="M 588 4263 
Q 588 4516 763 4689 
Q 938 4863 1191 4863 
Q 1438 4863 1611 4689 
Q 1784 4516 1784 4263 
Q 1784 4016 1611 3842 
Q 1438 3669 1191 3669 
Q 938 3669 763 3841 
Q 588 4013 588 4263 
z
M 1797 378 
L 2272 378 
L 2272 0 
L 219 0 
L 219 378 
L 691 378 
L 691 2944 
L 219 2944 
L 219 3322 
L 1797 3322 
L 1797 378 
z
" transform="scale(0.015625)"/>
      <path id="DejaVuSerif-Bold-63" d="M 3609 1038 
Q 3491 469 3123 189 
Q 2756 -91 2125 -91 
Q 1238 -91 750 368 
Q 263 828 263 1663 
Q 263 2488 744 2950 
Q 1225 3413 2081 3413 
Q 2428 3413 2781 3347 
Q 3134 3281 3500 3150 
L 3500 2228 
L 3150 2228 
Q 3100 2650 2903 2854 
Q 2706 3059 2350 3059 
Q 1888 3059 1692 2746 
Q 1497 2434 1497 1663 
Q 1497 909 1687 586 
Q 1878 263 2309 263 
Q 2644 263 2845 463 
Q 3047 663 3091 1038 
L 3609 1038 
z
" transform="scale(0.015625)"/>
     </defs>
     <use xlink:href="#DejaVuSerif-Bold-4d"/>
     <use xlink:href="#DejaVuSerif-Bold-65" x="110.693359"/>
     <use xlink:href="#DejaVuSerif-Bold-74" x="174.316406"/>
     <use xlink:href="#DejaVuSerif-Bold-72" x="220.507812"/>
     <use xlink:href="#DejaVuSerif-Bold-69" x="273.193359"/>
     <use xlink:href="#DejaVuSerif-Bold-63" x="311.181641"/>
    </g>
   </g>
   <g id="text_4">
    <!-- 96 -->
    <g transform="translate(212.47075 93.812566) scale(0.145 -0.145)">
     <defs>
      <path id="DejaVuSerif-Bold-39" d="M 2181 4384 
Q 1859 4384 1723 4111 
Q 1588 3838 1588 3163 
Q 1588 2488 1723 2214 
Q 1859 1941 2181 1941 
Q 2503 1941 2640 2214 
Q 2778 2488 2778 3163 
Q 2778 3838 2640 4111 
Q 2503 4384 2181 4384 
z
M 2878 1900 
Q 2672 1734 2420 1651 
Q 2169 1569 1875 1569 
Q 1163 1569 755 1986 
Q 347 2403 347 3138 
Q 347 3913 803 4331 
Q 1259 4750 2106 4750 
Q 3063 4750 3556 4172 
Q 4050 3594 4050 2478 
Q 4050 1206 3503 557 
Q 2956 -91 1881 -91 
Q 1600 -91 1278 -44 
Q 956 3 588 97 
L 588 922 
L 966 922 
Q 1044 603 1261 439 
Q 1478 275 1825 275 
Q 2375 275 2625 658 
Q 2875 1041 2878 1900 
z
" transform="scale(0.015625)"/>
      <path id="DejaVuSerif-Bold-36" d="M 1575 2766 
Q 1778 2928 2029 3009 
Q 2281 3091 2578 3091 
Q 3294 3091 3701 2672 
Q 4109 2253 4109 1522 
Q 4109 750 3650 329 
Q 3191 -91 2344 -91 
Q 1388 -91 895 486 
Q 403 1063 403 2181 
Q 403 3453 950 4101 
Q 1497 4750 2572 4750 
Q 2853 4750 3175 4703 
Q 3497 4656 3866 4563 
L 3866 3738 
L 3488 3738 
Q 3409 4056 3192 4220 
Q 2975 4384 2631 4384 
Q 2075 4384 1826 4003 
Q 1578 3622 1575 2766 
z
M 2272 275 
Q 2594 275 2731 548 
Q 2869 822 2869 1497 
Q 2869 2172 2731 2445 
Q 2594 2719 2272 2719 
Q 1950 2719 1814 2445 
Q 1678 2172 1678 1497 
Q 1678 822 1814 548 
Q 1950 275 2272 275 
z
" transform="scale(0.015625)"/>
     </defs>
     <use xlink:href="#DejaVuSerif-Bold-39"/>
     <use xlink:href="#DejaVuSerif-Bold-36" x="69.580078"/>
    </g>
   </g>
   <g id="text_5">
    <!-- 192 -->
    <g transform="translate(267.104436 93.812566) scale(0.145 -0.145)">
     <defs>
      <path id="DejaVuSerif-Bold-31" d="M 878 0 
L 878 378 
L 1753 378 
L 1753 4153 
L 781 3578 
L 781 4044 
L 1953 4750 
L 2938 4750 
L 2938 378 
L 3816 378 
L 3816 0 
L 878 0 
z
" transform="scale(0.015625)"/>
      <path id="DejaVuSerif-Bold-32" d="M 844 3513 
L 469 3513 
L 469 4519 
Q 850 4634 1223 4692 
Q 1597 4750 1978 4750 
Q 2869 4750 3367 4386 
Q 3866 4022 3866 3372 
Q 3866 2909 3591 2542 
Q 3316 2175 2541 1672 
L 1241 819 
L 3450 819 
L 3450 1369 
L 3878 1369 
L 3878 0 
L 428 0 
L 428 763 
L 1119 1241 
Q 2003 1850 2297 2278 
Q 2591 2706 2591 3278 
Q 2591 3819 2367 4101 
Q 2144 4384 1716 4384 
Q 1347 4384 1125 4161 
Q 903 3938 844 3513 
z
" transform="scale(0.015625)"/>
     </defs>
     <use xlink:href="#DejaVuSerif-Bold-31"/>
     <use xlink:href="#DejaVuSerif-Bold-39" x="69.580078"/>
     <use xlink:href="#DejaVuSerif-Bold-32" x="139.160156"/>
    </g>
   </g>
   <g id="text_6">
    <!-- 336 -->
    <g transform="translate(326.782536 93.812566) scale(0.145 -0.145)">
     <defs>
      <path id="DejaVuSerif-Bold-33" d="M 550 4531 
Q 963 4641 1350 4695 
Q 1738 4750 2106 4750 
Q 2950 4750 3401 4448 
Q 3853 4147 3853 3584 
Q 3853 3163 3593 2900 
Q 3334 2638 2834 2547 
Q 3444 2450 3744 2131 
Q 4044 1813 4044 1259 
Q 4044 606 3526 257 
Q 3009 -91 2028 -91 
Q 1659 -91 1267 -28 
Q 875 34 447 159 
L 447 1184 
L 825 1184 
Q 859 741 1103 508 
Q 1347 275 1778 275 
Q 2253 275 2512 539 
Q 2772 803 2772 1288 
Q 2772 1794 2501 2069 
Q 2231 2344 1734 2344 
L 1528 2344 
L 1528 2719 
L 1691 2719 
Q 2150 2719 2381 2931 
Q 2613 3144 2613 3566 
Q 2613 3963 2395 4173 
Q 2178 4384 1772 4384 
Q 1403 4384 1187 4182 
Q 972 3981 928 3597 
L 550 3597 
L 550 4531 
z
" transform="scale(0.015625)"/>
     </defs>
     <use xlink:href="#DejaVuSerif-Bold-33"/>
     <use xlink:href="#DejaVuSerif-Bold-33" x="69.580078"/>
     <use xlink:href="#DejaVuSerif-Bold-36" x="139.160156"/>
    </g>
   </g>
   <g id="text_7">
    <!-- 720 -->
    <g transform="translate(386.460636 93.812566) scale(0.145 -0.145)">
     <defs>
      <path id="DejaVuSerif-Bold-37" d="M 3922 3872 
L 1997 0 
L 1363 0 
L 3238 3781 
L 934 3781 
L 934 3150 
L 506 3150 
L 506 4666 
L 3922 4666 
L 3922 3872 
z
" transform="scale(0.015625)"/>
      <path id="DejaVuSerif-Bold-30" d="M 2228 275 
Q 2603 275 2742 615 
Q 2881 956 2881 2328 
Q 2881 3691 2742 4037 
Q 2603 4384 2228 4384 
Q 1853 4384 1714 4043 
Q 1575 3703 1575 2328 
Q 1575 956 1714 615 
Q 1853 275 2228 275 
z
M 2228 -91 
Q 1294 -91 797 532 
Q 300 1156 300 2328 
Q 300 3500 797 4125 
Q 1294 4750 2228 4750 
Q 3159 4750 3656 4125 
Q 4153 3500 4153 2328 
Q 4153 1156 3656 532 
Q 3159 -91 2228 -91 
z
" transform="scale(0.015625)"/>
     </defs>
     <use xlink:href="#DejaVuSerif-Bold-37"/>
     <use xlink:href="#DejaVuSerif-Bold-32" x="69.580078"/>
     <use xlink:href="#DejaVuSerif-Bold-30" x="139.160156"/>
    </g>
   </g>
   <g id="text_8">
    <!-- Avg -->
    <g transform="translate(450.234851 93.606394) scale(0.145 -0.145)">
     <defs>
      <path id="DejaVuSerif-Bold-41" d="M -50 0 
L -50 378 
L 331 378 
L 2088 4666 
L 2834 4666 
L 4594 378 
L 5038 378 
L 5038 0 
L 2853 0 
L 2853 378 
L 3309 378 
L 2925 1331 
L 1172 1331 
L 781 378 
L 1338 378 
L 1338 0 
L -50 0 
z
M 1325 1709 
L 2772 1709 
L 2053 3494 
L 1325 1709 
z
" transform="scale(0.015625)"/>
      <path id="DejaVuSerif-Bold-76" d="M 1428 0 
L 250 2944 
L -116 2944 
L -116 3322 
L 1791 3322 
L 1791 2944 
L 1388 2944 
L 2228 844 
L 3066 2944 
L 2631 2944 
L 2631 3322 
L 3878 3322 
L 3878 2944 
L 3494 2944 
L 2316 0 
L 1428 0 
z
" transform="scale(0.015625)"/>
      <path id="DejaVuSerif-Bold-67" d="M 3853 2944 
L 3853 44 
Q 3853 -656 3354 -1039 
Q 2856 -1422 1947 -1422 
Q 1616 -1422 1275 -1370 
Q 934 -1319 575 -1216 
L 575 -422 
L 928 -422 
Q 975 -750 1192 -909 
Q 1409 -1069 1813 -1069 
Q 2325 -1069 2536 -823 
Q 2747 -578 2747 44 
L 2747 422 
Q 2606 163 2367 36 
Q 2128 -91 1778 -91 
Q 1072 -91 667 378 
Q 263 847 263 1663 
Q 263 2481 667 2947 
Q 1072 3413 1778 3413 
Q 2128 3413 2367 3286 
Q 2606 3159 2747 2900 
L 2747 3322 
L 4325 3322 
L 4325 2944 
L 3853 2944 
z
M 2747 1825 
Q 2747 2406 2597 2665 
Q 2447 2925 2119 2925 
Q 1775 2925 1636 2651 
Q 1497 2378 1497 1663 
Q 1497 947 1637 672 
Q 1778 397 2119 397 
Q 2447 397 2597 656 
Q 2747 916 2747 1497 
L 2747 1825 
z
" transform="scale(0.015625)"/>
     </defs>
     <use xlink:href="#DejaVuSerif-Bold-41"/>
     <use xlink:href="#DejaVuSerif-Bold-76" x="73.587891"/>
     <use xlink:href="#DejaVuSerif-Bold-67" x="131.693359"/>
    </g>
   </g>
   <g id="text_9">
    <!-- Matched -->
    <g transform="translate(50.052389 150.137874) scale(0.126 -0.126)">
     <defs>
      <path id="DejaVuSerif-Italic-4d" d="M -97 0 
L -34 331 
L 559 331 
L 1338 4331 
L 709 4331 
L 775 4666 
L 2134 4666 
L 3125 1344 
L 5409 4666 
L 6684 4666 
L 6619 4331 
L 5997 4331 
L 5222 331 
L 5816 331 
L 5753 0 
L 3928 0 
L 3991 331 
L 4584 331 
L 5288 3938 
L 3053 684 
L 2613 684 
L 1647 3938 
L 944 331 
L 1538 331 
L 1475 0 
L -97 0 
z
" transform="scale(0.015625)"/>
      <path id="DejaVuSerif-Italic-61" d="M 2325 519 
Q 1909 -91 1238 -91 
Q 688 -91 409 281 
Q 216 544 216 919 
Q 216 1078 250 1256 
Q 463 2359 1231 2928 
Q 1884 3413 2675 3413 
Q 3206 3413 3388 3322 
L 2806 331 
L 3300 331 
L 3238 0 
L 2225 0 
L 2325 519 
z
M 822 938 
Q 822 269 1469 269 
Q 1863 269 2130 583 
Q 2397 897 2516 1497 
L 2806 3003 
L 2806 3003 
Q 2806 3094 2556 3094 
Q 1956 3094 1491 2625 
Q 1028 2153 863 1297 
Q 822 1097 822 938 
z
" transform="scale(0.015625)"/>
      <path id="DejaVuSerif-Italic-74" d="M 856 2988 
L 350 2988 
L 416 3322 
L 922 3322 
L 1122 4353 
L 1700 4353 
L 1500 3322 
L 2581 3322 
L 2516 2988 
L 1434 2988 
L 1025 878 
Q 978 631 978 488 
Q 978 388 1000 338 
Q 1059 219 1278 219 
Q 1503 219 1633 351 
Q 1763 484 1825 781 
L 2259 781 
Q 2147 328 1884 118 
Q 1622 -91 1169 -91 
Q 672 -91 506 131 
Q 406 266 406 516 
Q 406 675 447 878 
L 856 2988 
z
" transform="scale(0.015625)"/>
      <path id="DejaVuSerif-Italic-63" d="M 3163 997 
Q 2938 466 2536 187 
Q 2134 -91 1584 -91 
Q 859 -91 513 388 
Q 272 722 272 1203 
Q 272 1419 319 1663 
Q 475 2459 1008 2936 
Q 1541 3413 2266 3413 
Q 2581 3413 2879 3339 
Q 3178 3266 3463 3116 
L 3300 2266 
L 2966 2266 
Q 2966 2309 2966 2347 
Q 2966 2722 2803 2903 
Q 2622 3103 2213 3103 
Q 1747 3103 1439 2742 
Q 1131 2381 991 1663 
Q 928 1334 928 1078 
Q 928 778 1016 581 
Q 1181 219 1650 219 
Q 2022 219 2281 412 
Q 2541 606 2700 997 
L 3163 997 
z
" transform="scale(0.015625)"/>
      <path id="DejaVuSerif-Italic-68" d="M 309 0 
L 1191 4531 
L 641 4531 
L 703 4863 
L 1828 4863 
L 1416 2731 
Q 1641 3069 1928 3241 
Q 2216 3413 2553 3413 
Q 3103 3413 3300 3097 
Q 3422 2906 3422 2588 
Q 3422 2378 3369 2113 
L 3022 331 
L 3534 331 
L 3472 0 
L 2381 0 
L 2756 1931 
Q 2819 2253 2819 2469 
Q 2819 2659 2769 2763 
Q 2666 2988 2284 2988 
Q 1884 2988 1617 2697 
Q 1350 2406 1244 1850 
L 884 0 
L 309 0 
z
" transform="scale(0.015625)"/>
      <path id="DejaVuSerif-Italic-65" d="M 938 1275 
Q 925 1156 925 1050 
Q 925 756 1031 563 
Q 1216 219 1709 219 
Q 2072 219 2250 328 
Q 2569 525 2644 778 
L 3066 778 
Q 2941 381 2475 103 
Q 2150 -91 1506 -91 
Q 863 -91 516 388 
Q 272 722 272 1206 
Q 272 1419 319 1659 
Q 472 2450 1000 2931 
Q 1528 3413 2278 3413 
Q 3500 3413 3500 2547 
Q 3500 1913 2859 1603 
Q 2206 1288 938 1275 
z
M 2541 1975 
Q 2891 2181 2891 2569 
Q 2891 3103 2181 3103 
Q 1763 3103 1472 2784 
Q 1181 2466 1003 1606 
Q 2006 1653 2541 1975 
z
" transform="scale(0.015625)"/>
      <path id="DejaVuSerif-Italic-64" d="M 3841 4863 
L 2897 0 
L 2322 0 
L 2422 519 
Q 2191 206 1902 57 
Q 1613 -91 1228 -91 
Q 616 -91 322 394 
Q 125 716 125 1166 
Q 125 1397 178 1663 
Q 331 2444 812 2928 
Q 1294 3413 1909 3413 
Q 2294 3413 2525 3264 
Q 2756 3116 2866 2803 
L 3200 4531 
L 2656 4531 
L 2722 4863 
L 3841 4863 
z
M 2613 1497 
L 2675 1825 
Q 2722 2069 2722 2266 
Q 2722 2550 2622 2738 
Q 2456 3053 2019 3053 
Q 1575 3053 1279 2703 
Q 984 2353 850 1663 
Q 788 1347 788 1103 
Q 788 813 875 622 
Q 1031 269 1475 269 
Q 1913 269 2203 583 
Q 2494 897 2613 1497 
z
" transform="scale(0.015625)"/>
     </defs>
     <use xlink:href="#DejaVuSerif-Italic-4d"/>
     <use xlink:href="#DejaVuSerif-Italic-61" x="102.392578"/>
     <use xlink:href="#DejaVuSerif-Italic-74" x="162.011719"/>
     <use xlink:href="#DejaVuSerif-Italic-63" x="202.197266"/>
     <use xlink:href="#DejaVuSerif-Italic-68" x="258.203125"/>
     <use xlink:href="#DejaVuSerif-Italic-65" x="322.607422"/>
     <use xlink:href="#DejaVuSerif-Italic-64" x="381.787109"/>
    </g>
    <!-- smoothing -->
    <g transform="translate(44.651123 163.768416) scale(0.126 -0.126)">
     <defs>
      <path id="DejaVuSerif-Italic-73" d="M 222 959 
L 553 959 
Q 541 869 541 788 
Q 541 219 1313 219 
Q 2088 219 2200 788 
Q 2209 844 2209 944 
Q 2209 1041 2103 1158 
Q 1997 1275 1550 1428 
L 1159 1569 
Q 759 1706 629 1882 
Q 500 2059 500 2263 
Q 500 2344 516 2438 
Q 606 2894 990 3153 
Q 1375 3413 1931 3413 
Q 2484 3413 3066 3144 
L 2925 2419 
L 2594 2419 
Q 2606 2491 2606 2553 
Q 2606 2781 2448 2942 
Q 2291 3103 1925 3103 
Q 1191 3103 1091 2591 
Q 1078 2538 1078 2444 
Q 1078 2347 1179 2237 
Q 1281 2128 1678 1997 
L 2106 1856 
Q 2550 1709 2716 1488 
Q 2831 1331 2831 1178 
Q 2831 522 2306 181 
Q 1894 -91 1262 -91 
Q 631 -91 72 184 
L 222 959 
z
" transform="scale(0.015625)"/>
      <path id="DejaVuSerif-Italic-6d" d="M 3503 2675 
Q 3741 3041 4034 3227 
Q 4328 3413 4672 3413 
Q 5194 3413 5388 3088 
Q 5503 2894 5503 2578 
Q 5503 2372 5453 2113 
L 5106 331 
L 5625 331 
L 5563 0 
L 4469 0 
L 4866 2047 
Q 4913 2291 4913 2466 
Q 4913 2659 4856 2772 
Q 4750 2988 4403 2988 
Q 4019 2988 3761 2697 
Q 3503 2406 3394 1850 
L 3034 0 
L 2459 0 
L 2863 2069 
Q 2906 2303 2906 2472 
Q 2906 2666 2850 2775 
Q 2741 2988 2394 2988 
Q 2009 2988 1751 2697 
Q 1494 2406 1384 1850 
L 1025 0 
L 450 0 
L 1031 2994 
L 481 2994 
L 544 3322 
L 1669 3322 
L 1556 2731 
Q 1778 3063 2059 3238 
Q 2341 3413 2653 3413 
Q 3041 3413 3262 3220 
Q 3484 3028 3503 2675 
z
" transform="scale(0.015625)"/>
      <path id="DejaVuSerif-Italic-6f" d="M 1644 219 
Q 2106 219 2414 584 
Q 2722 950 2859 1663 
Q 2922 1988 2922 2241 
Q 2922 2541 2834 2738 
Q 2669 3103 2206 3103 
Q 1744 3103 1436 2739 
Q 1128 2375 991 1663 
Q 928 1338 928 1088 
Q 928 784 1019 584 
Q 1184 219 1644 219 
z
M 1584 -91 
Q 859 -91 513 388 
Q 272 722 272 1203 
Q 272 1419 319 1663 
Q 472 2456 1005 2934 
Q 1538 3413 2266 3413 
Q 2994 3413 3341 2934 
Q 3578 2603 3578 2122 
Q 3578 1906 3531 1663 
Q 3378 869 2845 389 
Q 2313 -91 1584 -91 
z
" transform="scale(0.015625)"/>
      <path id="DejaVuSerif-Italic-69" d="M 1009 4353 
Q 1038 4497 1163 4603 
Q 1288 4709 1434 4709 
Q 1578 4709 1663 4603 
Q 1728 4522 1728 4422 
Q 1728 4388 1719 4353 
Q 1691 4206 1567 4103 
Q 1444 4000 1297 4000 
Q 1150 4000 1066 4103 
Q 1003 4181 1003 4281 
Q 1003 4316 1009 4353 
z
M 963 331 
L 1506 331 
L 1444 0 
L 325 0 
L 903 2988 
L 353 2988 
L 419 3322 
L 1544 3322 
L 963 331 
z
" transform="scale(0.015625)"/>
      <path id="DejaVuSerif-Italic-6e" d="M 450 0 
L 1031 2988 
L 481 2988 
L 544 3322 
L 1669 3322 
L 1556 2731 
Q 1781 3069 2068 3241 
Q 2356 3413 2694 3413 
Q 3244 3413 3444 3097 
Q 3563 2906 3563 2588 
Q 3563 2378 3509 2113 
L 3163 331 
L 3675 331 
L 3613 0 
L 2522 0 
L 2897 1931 
Q 2959 2253 2959 2469 
Q 2959 2659 2909 2769 
Q 2803 2994 2425 2994 
Q 2025 2994 1759 2701 
Q 1494 2409 1384 1850 
L 1025 0 
L 450 0 
z
" transform="scale(0.015625)"/>
      <path id="DejaVuSerif-Italic-67" d="M 3822 3322 
L 3188 72 
Q 3044 -672 2581 -1031 
Q 2078 -1422 1381 -1422 
Q 1053 -1422 765 -1362 
Q 478 -1303 225 -1184 
L 363 -488 
L 663 -488 
Q 653 -813 834 -963 
Q 1016 -1113 1406 -1113 
Q 1913 -1113 2203 -825 
Q 2494 -544 2613 72 
L 2700 519 
Q 2472 206 2181 57 
Q 1891 -91 1525 -91 
Q 975 -91 697 281 
Q 522 516 503 841 
Q 491 1031 534 1256 
Q 750 2359 1516 2928 
Q 2169 3409 2931 3413 
Q 3631 3416 3822 3322 
z
M 3184 2988 
Q 3181 3094 2844 3094 
Q 2234 3094 1775 2625 
Q 1316 2153 1147 1297 
Q 1100 1044 1113 853 
Q 1125 659 1203 528 
Q 1356 269 1756 269 
Q 2194 269 2484 583 
Q 2775 897 2891 1497 
L 2953 1825 
L 3184 2988 
z
" transform="scale(0.015625)"/>
     </defs>
     <use xlink:href="#DejaVuSerif-Italic-73"/>
     <use xlink:href="#DejaVuSerif-Italic-6d" x="51.318359"/>
     <use xlink:href="#DejaVuSerif-Italic-6f" x="146.142578"/>
     <use xlink:href="#DejaVuSerif-Italic-6f" x="206.347656"/>
     <use xlink:href="#DejaVuSerif-Italic-74" x="266.552734"/>
     <use xlink:href="#DejaVuSerif-Italic-68" x="306.738281"/>
     <use xlink:href="#DejaVuSerif-Italic-69" x="371.142578"/>
     <use xlink:href="#DejaVuSerif-Italic-6e" x="403.125"/>
     <use xlink:href="#DejaVuSerif-Italic-67" x="467.529297"/>
    </g>
    <!-- baseline -->
    <g transform="translate(51.571279 177.578114) scale(0.126 -0.126)">
     <defs>
      <path id="DejaVuSerif-Italic-62" d="M 1153 4531 
L 600 4531 
L 666 4863 
L 1794 4863 
L 1394 2803 
Q 1622 3116 1912 3264 
Q 2203 3413 2588 3413 
Q 3200 3413 3494 2928 
Q 3688 2609 3688 2163 
Q 3688 1928 3634 1663 
Q 3481 881 3000 395 
Q 2519 -91 1906 -91 
Q 1522 -91 1289 57 
Q 1056 206 950 519 
L 850 0 
L 275 0 
L 1153 4531 
z
M 1141 1497 
Q 1091 1250 1091 1053 
Q 1091 769 1191 581 
Q 1359 269 1797 269 
Q 2238 269 2533 622 
Q 2828 975 2963 1663 
Q 3025 1978 3025 2225 
Q 3025 2513 2938 2703 
Q 2781 3053 2338 3053 
Q 1900 3053 1609 2737 
Q 1319 2422 1203 1825 
L 1141 1497 
z
" transform="scale(0.015625)"/>
      <path id="DejaVuSerif-Italic-6c" d="M 903 331 
L 1447 331 
L 1384 0 
L 266 0 
L 1147 4531 
L 594 4531 
L 656 4863 
L 1784 4863 
L 903 331 
z
" transform="scale(0.015625)"/>
     </defs>
     <use xlink:href="#DejaVuSerif-Italic-62"/>
     <use xlink:href="#DejaVuSerif-Italic-61" x="64.013672"/>
     <use xlink:href="#DejaVuSerif-Italic-73" x="123.632812"/>
     <use xlink:href="#DejaVuSerif-Italic-65" x="174.951172"/>
     <use xlink:href="#DejaVuSerif-Italic-6c" x="234.130859"/>
     <use xlink:href="#DejaVuSerif-Italic-69" x="266.113281"/>
     <use xlink:href="#DejaVuSerif-Italic-6e" x="298.095703"/>
     <use xlink:href="#DejaVuSerif-Italic-65" x="362.5"/>
    </g>
   </g>
   <g id="text_10">
    <!-- MSE -->
    <g transform="translate(146.97279 146.591158) scale(0.132 -0.132)">
     <defs>
      <path id="DejaVuSerif-Bold-53" d="M 494 225 
L 494 1331 
L 891 1331 
Q 981 806 1318 547 
Q 1656 288 2253 288 
Q 2738 288 2991 472 
Q 3244 656 3244 1013 
Q 3244 1294 3072 1450 
Q 2900 1606 2363 1741 
L 1663 1913 
Q 978 2088 700 2398 
Q 422 2709 422 3284 
Q 422 3978 883 4364 
Q 1344 4750 2175 4750 
Q 2584 4750 3026 4681 
Q 3469 4613 3944 4475 
L 3944 3444 
L 3547 3444 
Q 3456 3925 3150 4148 
Q 2844 4372 2278 4372 
Q 1816 4372 1580 4211 
Q 1344 4050 1344 3731 
Q 1344 3441 1506 3289 
Q 1669 3138 2303 2975 
L 3003 2803 
Q 3653 2641 3945 2297 
Q 4238 1953 4238 1350 
Q 4238 644 3750 276 
Q 3263 -91 2316 -91 
Q 1859 -91 1409 -12 
Q 959 66 494 225 
z
" transform="scale(0.015625)"/>
      <path id="DejaVuSerif-Bold-45" d="M 300 0 
L 300 378 
L 897 378 
L 897 4288 
L 300 4288 
L 300 4666 
L 4494 4666 
L 4494 3566 
L 4063 3566 
L 4063 4238 
L 2100 4238 
L 2100 2741 
L 3322 2741 
L 3322 3334 
L 3750 3334 
L 3750 1722 
L 3322 1722 
L 3322 2316 
L 2100 2316 
L 2100 428 
L 4122 428 
L 4122 1100 
L 4550 1100 
L 4550 0 
L 300 0 
z
" transform="scale(0.015625)"/>
     </defs>
     <use xlink:href="#DejaVuSerif-Bold-4d"/>
     <use xlink:href="#DejaVuSerif-Bold-53" x="110.693359"/>
     <use xlink:href="#DejaVuSerif-Bold-45" x="182.910156"/>
    </g>
   </g>
   <g id="text_11">
    <!-- 4.073 -->
    <g style="fill: #ff1f1f" transform="translate(201.580203 146.646346) scale(0.134 -0.134)">
     <defs>
      <path id="DejaVuSerif-Bold-34" d="M 4084 0 
L 1516 0 
L 1516 378 
L 2209 378 
L 2209 1228 
L 263 1228 
L 263 1588 
L 2216 4750 
L 3391 4750 
L 3391 1631 
L 4191 1631 
L 4191 1228 
L 3391 1228 
L 3391 378 
L 4084 378 
L 4084 0 
z
M 2209 1631 
L 2209 3897 
L 819 1631 
L 2209 1631 
z
" transform="scale(0.015625)"/>
      <path id="DejaVuSerif-Bold-2e" d="M 519 506 
Q 519 750 694 925 
Q 869 1100 1113 1100 
Q 1359 1100 1534 925 
Q 1709 750 1709 506 
Q 1709 259 1534 84 
Q 1359 -91 1113 -91 
Q 869 -91 694 84 
Q 519 259 519 506 
z
" transform="scale(0.015625)"/>
     </defs>
     <use xlink:href="#DejaVuSerif-Bold-34"/>
     <use xlink:href="#DejaVuSerif-Bold-2e" x="69.580078"/>
     <use xlink:href="#DejaVuSerif-Bold-30" x="104.394531"/>
     <use xlink:href="#DejaVuSerif-Bold-37" x="173.974609"/>
     <use xlink:href="#DejaVuSerif-Bold-33" x="243.554688"/>
    </g>
   </g>
   <g id="text_12">
    <!-- 6.061 -->
    <g style="fill: #ff1f1f" transform="translate(261.258303 146.646346) scale(0.134 -0.134)">
     <use xlink:href="#DejaVuSerif-Bold-36"/>
     <use xlink:href="#DejaVuSerif-Bold-2e" x="69.580078"/>
     <use xlink:href="#DejaVuSerif-Bold-30" x="104.394531"/>
     <use xlink:href="#DejaVuSerif-Bold-36" x="173.974609"/>
     <use xlink:href="#DejaVuSerif-Bold-31" x="243.554688"/>
    </g>
   </g>
   <g id="text_13">
    <!-- 7.093 -->
    <g style="fill: #ff1f1f" transform="translate(320.936403 146.646346) scale(0.134 -0.134)">
     <use xlink:href="#DejaVuSerif-Bold-37"/>
     <use xlink:href="#DejaVuSerif-Bold-2e" x="69.580078"/>
     <use xlink:href="#DejaVuSerif-Bold-30" x="104.394531"/>
     <use xlink:href="#DejaVuSerif-Bold-39" x="173.974609"/>
     <use xlink:href="#DejaVuSerif-Bold-33" x="243.554688"/>
    </g>
   </g>
   <g id="text_14">
    <!-- 10.464 -->
    <g style="fill: #ff1f1f" transform="translate(375.952769 146.646346) scale(0.134 -0.134)">
     <use xlink:href="#DejaVuSerif-Bold-31"/>
     <use xlink:href="#DejaVuSerif-Bold-30" x="69.580078"/>
     <use xlink:href="#DejaVuSerif-Bold-2e" x="139.160156"/>
     <use xlink:href="#DejaVuSerif-Bold-34" x="173.974609"/>
     <use xlink:href="#DejaVuSerif-Bold-36" x="243.554688"/>
     <use xlink:href="#DejaVuSerif-Bold-34" x="313.134766"/>
    </g>
   </g>
   <g id="text_15">
    <!-- 6.923 -->
    <g style="fill: #ff1f1f" transform="translate(443.873289 146.646346) scale(0.134 -0.134)">
     <use xlink:href="#DejaVuSerif-Bold-36"/>
     <use xlink:href="#DejaVuSerif-Bold-2e" x="69.580078"/>
     <use xlink:href="#DejaVuSerif-Bold-39" x="104.394531"/>
     <use xlink:href="#DejaVuSerif-Bold-32" x="173.974609"/>
     <use xlink:href="#DejaVuSerif-Bold-33" x="243.554688"/>
    </g>
   </g>
   <g id="text_16">
    <!-- MAE -->
    <g transform="translate(146.61804 181.455955) scale(0.132 -0.132)">
     <use xlink:href="#DejaVuSerif-Bold-4d"/>
     <use xlink:href="#DejaVuSerif-Bold-41" x="110.693359"/>
     <use xlink:href="#DejaVuSerif-Bold-45" x="188.28125"/>
    </g>
   </g>
   <g id="text_17">
    <!-- 1.489 -->
    <g style="fill: #ff1f1f" transform="translate(201.580203 181.511142) scale(0.134 -0.134)">
     <defs>
      <path id="DejaVuSerif-Bold-38" d="M 2975 2484 
Q 3531 2394 3820 2075 
Q 4109 1756 4109 1241 
Q 4109 597 3623 253 
Q 3138 -91 2222 -91 
Q 1306 -91 818 253 
Q 331 597 331 1241 
Q 331 1756 622 2075 
Q 913 2394 1466 2484 
Q 975 2597 731 2861 
Q 488 3125 488 3531 
Q 488 4125 931 4437 
Q 1375 4750 2222 4750 
Q 3066 4750 3511 4437 
Q 3956 4125 3956 3531 
Q 3956 3125 3711 2861 
Q 3466 2597 2975 2484 
z
M 2747 3519 
Q 2747 4013 2628 4198 
Q 2509 4384 2222 4384 
Q 1931 4384 1814 4198 
Q 1697 4013 1697 3519 
Q 1697 3028 1814 2845 
Q 1931 2663 2222 2663 
Q 2513 2663 2630 2845 
Q 2747 3028 2747 3519 
z
M 2869 1294 
Q 2869 1866 2723 2081 
Q 2578 2297 2222 2297 
Q 1863 2297 1719 2081 
Q 1575 1866 1575 1294 
Q 1575 716 1720 495 
Q 1866 275 2222 275 
Q 2575 275 2722 495 
Q 2869 716 2869 1294 
z
" transform="scale(0.015625)"/>
     </defs>
     <use xlink:href="#DejaVuSerif-Bold-31"/>
     <use xlink:href="#DejaVuSerif-Bold-2e" x="69.580078"/>
     <use xlink:href="#DejaVuSerif-Bold-34" x="104.394531"/>
     <use xlink:href="#DejaVuSerif-Bold-38" x="173.974609"/>
     <use xlink:href="#DejaVuSerif-Bold-39" x="243.554688"/>
    </g>
   </g>
   <g id="text_18">
    <!-- 1.858 -->
    <g style="fill: #ff1f1f" transform="translate(261.258303 181.511142) scale(0.134 -0.134)">
     <defs>
      <path id="DejaVuSerif-Bold-35" d="M 3609 4666 
L 3609 3847 
L 1113 3847 
L 1113 2822 
Q 1319 2981 1572 3062 
Q 1825 3144 2106 3144 
Q 2969 3144 3469 2708 
Q 3969 2272 3969 1522 
Q 3969 759 3469 334 
Q 2969 -91 2069 -91 
Q 1688 -91 1311 -28 
Q 934 34 525 166 
L 525 1184 
L 900 1184 
Q 919 725 1139 500 
Q 1359 275 1791 275 
Q 2250 275 2472 583 
Q 2694 891 2694 1522 
Q 2694 2144 2476 2451 
Q 2259 2759 1819 2759 
Q 1581 2759 1395 2661 
Q 1209 2563 1050 2356 
L 738 2356 
L 738 4666 
L 3609 4666 
z
" transform="scale(0.015625)"/>
     </defs>
     <use xlink:href="#DejaVuSerif-Bold-31"/>
     <use xlink:href="#DejaVuSerif-Bold-2e" x="69.580078"/>
     <use xlink:href="#DejaVuSerif-Bold-38" x="104.394531"/>
     <use xlink:href="#DejaVuSerif-Bold-35" x="173.974609"/>
     <use xlink:href="#DejaVuSerif-Bold-38" x="243.554688"/>
    </g>
   </g>
   <g id="text_19">
    <!-- 2.037 -->
    <g style="fill: #ff1f1f" transform="translate(320.936403 181.511142) scale(0.134 -0.134)">
     <use xlink:href="#DejaVuSerif-Bold-32"/>
     <use xlink:href="#DejaVuSerif-Bold-2e" x="69.580078"/>
     <use xlink:href="#DejaVuSerif-Bold-30" x="104.394531"/>
     <use xlink:href="#DejaVuSerif-Bold-33" x="173.974609"/>
     <use xlink:href="#DejaVuSerif-Bold-37" x="243.554688"/>
    </g>
   </g>
   <g id="text_20">
    <!-- 2.491 -->
    <g style="fill: #ff1f1f" transform="translate(380.614503 181.511142) scale(0.134 -0.134)">
     <use xlink:href="#DejaVuSerif-Bold-32"/>
     <use xlink:href="#DejaVuSerif-Bold-2e" x="69.580078"/>
     <use xlink:href="#DejaVuSerif-Bold-34" x="104.394531"/>
     <use xlink:href="#DejaVuSerif-Bold-39" x="173.974609"/>
     <use xlink:href="#DejaVuSerif-Bold-31" x="243.554688"/>
    </g>
   </g>
   <g id="text_21">
    <!-- 1.969 -->
    <g style="fill: #ff1f1f" transform="translate(443.873289 181.511142) scale(0.134 -0.134)">
     <use xlink:href="#DejaVuSerif-Bold-31"/>
     <use xlink:href="#DejaVuSerif-Bold-2e" x="69.580078"/>
     <use xlink:href="#DejaVuSerif-Bold-39" x="104.394531"/>
     <use xlink:href="#DejaVuSerif-Bold-36" x="173.974609"/>
     <use xlink:href="#DejaVuSerif-Bold-39" x="243.554688"/>
    </g>
   </g>
   <g id="text_22">
    <!-- Base -->
    <g transform="translate(62.791185 226.772316) scale(0.126 -0.126)">
     <defs>
      <path id="DejaVuSerif-Italic-42" d="M 1194 331 
L 2128 331 
Q 2691 331 2998 575 
Q 3306 819 3409 1350 
Q 3513 1878 3302 2120 
Q 3091 2363 2525 2363 
L 1591 2363 
L 1194 331 
z
M 1653 2694 
L 2447 2694 
Q 2959 2694 3234 2891 
Q 3509 3088 3591 3513 
Q 3675 3941 3476 4136 
Q 3278 4331 2766 4331 
L 1972 4331 
L 1653 2694 
z
M -97 0 
L -34 331 
L 559 331 
L 1338 4331 
L 744 4331 
L 809 4666 
L 3113 4666 
Q 3819 4666 4120 4377 
Q 4422 4088 4309 3513 
Q 4231 3097 3934 2850 
Q 3638 2603 3147 2547 
Q 3728 2472 3976 2167 
Q 4225 1863 4125 1350 
Q 3991 656 3489 328 
Q 2988 0 2059 0 
L -97 0 
z
" transform="scale(0.015625)"/>
     </defs>
     <use xlink:href="#DejaVuSerif-Italic-42"/>
     <use xlink:href="#DejaVuSerif-Italic-61" x="73.486328"/>
     <use xlink:href="#DejaVuSerif-Italic-73" x="133.105469"/>
     <use xlink:href="#DejaVuSerif-Italic-65" x="184.423828"/>
    </g>
    <!-- HalluGuard -->
    <g transform="translate(40.909514 240.402858) scale(0.126 -0.126)">
     <defs>
      <path id="DejaVuSerif-Italic-48" d="M -97 0 
L -34 331 
L 559 331 
L 1338 4331 
L 744 4331 
L 809 4666 
L 2631 4666 
L 2566 4331 
L 1972 4331 
L 1659 2719 
L 4078 2719 
L 4391 4331 
L 3797 4331 
L 3863 4666 
L 5684 4666 
L 5619 4331 
L 5025 4331 
L 4247 331 
L 4841 331 
L 4778 0 
L 2956 0 
L 3019 331 
L 3616 331 
L 4003 2338 
L 1584 2338 
L 1194 331 
L 1788 331 
L 1725 0 
L -97 0 
z
" transform="scale(0.015625)"/>
      <path id="DejaVuSerif-Italic-75" d="M 3097 3322 
L 3672 3322 
L 3091 331 
L 3634 331 
L 3572 0 
L 2453 0 
L 2566 588 
Q 2341 256 2055 82 
Q 1769 -91 1434 -91 
Q 881 -91 681 225 
Q 559 413 559 734 
Q 559 944 613 1209 
L 956 2988 
L 438 2988 
L 503 3322 
L 1600 3322 
L 1225 1388 
Q 1163 1066 1163 853 
Q 1163 663 1213 556 
Q 1316 331 1697 331 
Q 2097 331 2364 625 
Q 2631 919 2738 1478 
L 3097 3322 
z
" transform="scale(0.015625)"/>
      <path id="DejaVuSerif-Italic-47" d="M 4281 3272 
Q 4284 3856 3992 4136 
Q 3700 4416 3081 4416 
Q 2275 4416 1776 3897 
Q 1278 3378 1075 2328 
Q 875 1300 1181 772 
Q 1488 244 2281 244 
Q 2634 244 2973 331 
Q 3313 419 3638 594 
L 3872 1797 
L 2994 1797 
L 3059 2131 
L 4572 2131 
L 4231 391 
Q 3769 150 3266 29 
Q 2763 -91 2216 -91 
Q 1159 -91 653 570 
Q 147 1231 359 2328 
Q 575 3434 1340 4092 
Q 2106 4750 3184 4750 
Q 3584 4750 3992 4658 
Q 4400 4566 4844 4378 
L 4631 3272 
L 4281 3272 
z
" transform="scale(0.015625)"/>
      <path id="DejaVuSerif-Italic-72" d="M 3375 3328 
L 3213 2497 
L 2881 2497 
Q 2891 2559 2891 2613 
Q 2891 2775 2816 2866 
Q 2719 2988 2484 2988 
Q 2059 2988 1775 2694 
Q 1491 2400 1384 1850 
L 1025 0 
L 450 0 
L 1031 2994 
L 481 2994 
L 544 3322 
L 1669 3322 
L 1556 2731 
Q 1791 3078 2089 3245 
Q 2388 3413 2769 3413 
Q 2909 3413 3059 3391 
Q 3209 3369 3375 3328 
z
" transform="scale(0.015625)"/>
     </defs>
     <use xlink:href="#DejaVuSerif-Italic-48"/>
     <use xlink:href="#DejaVuSerif-Italic-61" x="87.207031"/>
     <use xlink:href="#DejaVuSerif-Italic-6c" x="146.826172"/>
     <use xlink:href="#DejaVuSerif-Italic-6c" x="178.808594"/>
     <use xlink:href="#DejaVuSerif-Italic-75" x="210.791016"/>
     <use xlink:href="#DejaVuSerif-Italic-47" x="275.195312"/>
     <use xlink:href="#DejaVuSerif-Italic-75" x="355.078125"/>
     <use xlink:href="#DejaVuSerif-Italic-61" x="419.482422"/>
     <use xlink:href="#DejaVuSerif-Italic-72" x="479.101562"/>
     <use xlink:href="#DejaVuSerif-Italic-64" x="526.904297"/>
    </g>
   </g>
   <g id="text_23">
    <!-- MSE -->
    <g transform="translate(146.97279 216.320751) scale(0.132 -0.132)">
     <use xlink:href="#DejaVuSerif-Bold-4d"/>
     <use xlink:href="#DejaVuSerif-Bold-53" x="110.693359"/>
     <use xlink:href="#DejaVuSerif-Bold-45" x="182.910156"/>
    </g>
   </g>
   <g id="text_24">
    <!-- 4.104 -->
    <g style="fill: #ff1f1f" transform="translate(201.580203 216.375939) scale(0.134 -0.134)">
     <use xlink:href="#DejaVuSerif-Bold-34"/>
     <use xlink:href="#DejaVuSerif-Bold-2e" x="69.580078"/>
     <use xlink:href="#DejaVuSerif-Bold-31" x="104.394531"/>
     <use xlink:href="#DejaVuSerif-Bold-30" x="173.974609"/>
     <use xlink:href="#DejaVuSerif-Bold-34" x="243.554688"/>
    </g>
   </g>
   <g id="text_25">
    <!-- 6.110 -->
    <g style="fill: #ff1f1f" transform="translate(261.258303 216.375939) scale(0.134 -0.134)">
     <use xlink:href="#DejaVuSerif-Bold-36"/>
     <use xlink:href="#DejaVuSerif-Bold-2e" x="69.580078"/>
     <use xlink:href="#DejaVuSerif-Bold-31" x="104.394531"/>
     <use xlink:href="#DejaVuSerif-Bold-31" x="173.974609"/>
     <use xlink:href="#DejaVuSerif-Bold-30" x="243.554688"/>
    </g>
   </g>
   <g id="text_26">
    <!-- 7.136 -->
    <g style="fill: #ff1f1f" transform="translate(320.936403 216.375939) scale(0.134 -0.134)">
     <use xlink:href="#DejaVuSerif-Bold-37"/>
     <use xlink:href="#DejaVuSerif-Bold-2e" x="69.580078"/>
     <use xlink:href="#DejaVuSerif-Bold-31" x="104.394531"/>
     <use xlink:href="#DejaVuSerif-Bold-33" x="173.974609"/>
     <use xlink:href="#DejaVuSerif-Bold-36" x="243.554688"/>
    </g>
   </g>
   <g id="text_27">
    <!-- 10.517 -->
    <g style="fill: #ff1f1f" transform="translate(375.952769 216.375939) scale(0.134 -0.134)">
     <use xlink:href="#DejaVuSerif-Bold-31"/>
     <use xlink:href="#DejaVuSerif-Bold-30" x="69.580078"/>
     <use xlink:href="#DejaVuSerif-Bold-2e" x="139.160156"/>
     <use xlink:href="#DejaVuSerif-Bold-35" x="173.974609"/>
     <use xlink:href="#DejaVuSerif-Bold-31" x="243.554688"/>
     <use xlink:href="#DejaVuSerif-Bold-37" x="313.134766"/>
    </g>
   </g>
   <g id="text_28">
    <!-- 6.967 -->
    <g style="fill: #ff1f1f" transform="translate(443.873289 216.375939) scale(0.134 -0.134)">
     <use xlink:href="#DejaVuSerif-Bold-36"/>
     <use xlink:href="#DejaVuSerif-Bold-2e" x="69.580078"/>
     <use xlink:href="#DejaVuSerif-Bold-39" x="104.394531"/>
     <use xlink:href="#DejaVuSerif-Bold-36" x="173.974609"/>
     <use xlink:href="#DejaVuSerif-Bold-37" x="243.554688"/>
    </g>
   </g>
   <g id="text_29">
    <!-- MAE -->
    <g transform="translate(146.61804 251.185548) scale(0.132 -0.132)">
     <use xlink:href="#DejaVuSerif-Bold-4d"/>
     <use xlink:href="#DejaVuSerif-Bold-41" x="110.693359"/>
     <use xlink:href="#DejaVuSerif-Bold-45" x="188.28125"/>
    </g>
   </g>
   <g id="text_30">
    <!-- 1.496 -->
    <g style="fill: #ff1f1f" transform="translate(201.580203 251.240736) scale(0.134 -0.134)">
     <use xlink:href="#DejaVuSerif-Bold-31"/>
     <use xlink:href="#DejaVuSerif-Bold-2e" x="69.580078"/>
     <use xlink:href="#DejaVuSerif-Bold-34" x="104.394531"/>
     <use xlink:href="#DejaVuSerif-Bold-39" x="173.974609"/>
     <use xlink:href="#DejaVuSerif-Bold-36" x="243.554688"/>
    </g>
   </g>
   <g id="text_31">
    <!-- 1.866 -->
    <g style="fill: #ff1f1f" transform="translate(261.258303 251.240736) scale(0.134 -0.134)">
     <use xlink:href="#DejaVuSerif-Bold-31"/>
     <use xlink:href="#DejaVuSerif-Bold-2e" x="69.580078"/>
     <use xlink:href="#DejaVuSerif-Bold-38" x="104.394531"/>
     <use xlink:href="#DejaVuSerif-Bold-36" x="173.974609"/>
     <use xlink:href="#DejaVuSerif-Bold-36" x="243.554688"/>
    </g>
   </g>
   <g id="text_32">
    <!-- 2.044 -->
    <g style="fill: #ff1f1f" transform="translate(320.936403 251.240736) scale(0.134 -0.134)">
     <use xlink:href="#DejaVuSerif-Bold-32"/>
     <use xlink:href="#DejaVuSerif-Bold-2e" x="69.580078"/>
     <use xlink:href="#DejaVuSerif-Bold-30" x="104.394531"/>
     <use xlink:href="#DejaVuSerif-Bold-34" x="173.974609"/>
     <use xlink:href="#DejaVuSerif-Bold-34" x="243.554688"/>
    </g>
   </g>
   <g id="text_33">
    <!-- 2.497 -->
    <g style="fill: #ff1f1f" transform="translate(380.614503 251.240736) scale(0.134 -0.134)">
     <use xlink:href="#DejaVuSerif-Bold-32"/>
     <use xlink:href="#DejaVuSerif-Bold-2e" x="69.580078"/>
     <use xlink:href="#DejaVuSerif-Bold-34" x="104.394531"/>
     <use xlink:href="#DejaVuSerif-Bold-39" x="173.974609"/>
     <use xlink:href="#DejaVuSerif-Bold-37" x="243.554688"/>
    </g>
   </g>
   <g id="text_34">
    <!-- 1.976 -->
    <g style="fill: #ff1f1f" transform="translate(443.873289 251.240736) scale(0.134 -0.134)">
     <use xlink:href="#DejaVuSerif-Bold-31"/>
     <use xlink:href="#DejaVuSerif-Bold-2e" x="69.580078"/>
     <use xlink:href="#DejaVuSerif-Bold-39" x="104.394531"/>
     <use xlink:href="#DejaVuSerif-Bold-37" x="173.974609"/>
     <use xlink:href="#DejaVuSerif-Bold-36" x="243.554688"/>
    </g>
   </g>
   <g id="text_35">
    <!-- Dynamics -->
    <g transform="translate(46.964404 296.322753) scale(0.126 -0.126)">
     <defs>
      <path id="DejaVuSerif-Italic-44" d="M 1194 331 
L 1775 331 
Q 2684 331 3271 850 
Q 3859 1369 4048 2337 
Q 4238 3306 3852 3818 
Q 3466 4331 2553 4331 
L 1972 4331 
L 1194 331 
z
M -97 0 
L -34 331 
L 559 331 
L 1338 4331 
L 744 4331 
L 809 4666 
L 2666 4666 
Q 3872 4666 4426 4050 
Q 4981 3434 4766 2338 
Q 4553 1238 3758 619 
Q 2963 0 1759 0 
L -97 0 
z
" transform="scale(0.015625)"/>
      <path id="DejaVuSerif-Italic-79" d="M 3681 3294 
Q 3372 1506 2828 563 
Q 2031 -822 1391 -1238 
Q 1106 -1422 356 -1422 
Q 209 -1422 60 -1397 
Q -88 -1372 -238 -1325 
L -113 -691 
L 181 -691 
Q 175 -741 175 -788 
Q 175 -919 231 -994 
Q 309 -1100 513 -1100 
Q 1063 -1100 1541 -622 
L 756 2988 
L 378 2988 
L 444 3322 
L 1303 3322 
L 2041 25 
Q 2544 778 2666 1088 
Q 3059 2059 3138 2959 
L 2759 2959 
L 2825 3294 
L 3681 3294 
z
" transform="scale(0.015625)"/>
     </defs>
     <use xlink:href="#DejaVuSerif-Italic-44"/>
     <use xlink:href="#DejaVuSerif-Italic-79" x="80.175781"/>
     <use xlink:href="#DejaVuSerif-Italic-6e" x="136.669922"/>
     <use xlink:href="#DejaVuSerif-Italic-61" x="201.074219"/>
     <use xlink:href="#DejaVuSerif-Italic-6d" x="260.693359"/>
     <use xlink:href="#DejaVuSerif-Italic-69" x="355.517578"/>
     <use xlink:href="#DejaVuSerif-Italic-63" x="387.5"/>
     <use xlink:href="#DejaVuSerif-Italic-73" x="443.505859"/>
    </g>
    <!-- version -->
    <g transform="translate(54.740967 310.132452) scale(0.126 -0.126)">
     <defs>
      <path id="DejaVuSerif-Italic-76" d="M 1681 0 
L 1259 0 
L 619 2988 
L 241 2988 
L 303 3322 
L 1163 3322 
L 1725 703 
Q 2084 1016 2325 1413 
Q 2825 2238 3003 2988 
L 2622 2988 
L 2688 3322 
L 3547 3322 
Q 3206 2034 2775 1313 
Q 2400 688 1681 0 
z
" transform="scale(0.015625)"/>
     </defs>
     <use xlink:href="#DejaVuSerif-Italic-76"/>
     <use xlink:href="#DejaVuSerif-Italic-65" x="56.494141"/>
     <use xlink:href="#DejaVuSerif-Italic-72" x="115.673828"/>
     <use xlink:href="#DejaVuSerif-Italic-73" x="163.476562"/>
     <use xlink:href="#DejaVuSerif-Italic-69" x="214.794922"/>
     <use xlink:href="#DejaVuSerif-Italic-6f" x="246.777344"/>
     <use xlink:href="#DejaVuSerif-Italic-6e" x="306.982422"/>
    </g>
   </g>
   <g id="text_36">
    <!-- MSE -->
    <g transform="translate(146.97279 286.050345) scale(0.132 -0.132)">
     <use xlink:href="#DejaVuSerif-Bold-4d"/>
     <use xlink:href="#DejaVuSerif-Bold-53" x="110.693359"/>
     <use xlink:href="#DejaVuSerif-Bold-45" x="182.910156"/>
    </g>
   </g>
   <g id="text_37">
    <!-- 4.066 -->
    <g style="fill: #ff1f1f" transform="translate(201.580203 286.105532) scale(0.134 -0.134)">
     <use xlink:href="#DejaVuSerif-Bold-34"/>
     <use xlink:href="#DejaVuSerif-Bold-2e" x="69.580078"/>
     <use xlink:href="#DejaVuSerif-Bold-30" x="104.394531"/>
     <use xlink:href="#DejaVuSerif-Bold-36" x="173.974609"/>
     <use xlink:href="#DejaVuSerif-Bold-36" x="243.554688"/>
    </g>
   </g>
   <g id="text_38">
    <!-- 6.056 -->
    <g style="fill: #ff1f1f" transform="translate(261.258303 286.105532) scale(0.134 -0.134)">
     <use xlink:href="#DejaVuSerif-Bold-36"/>
     <use xlink:href="#DejaVuSerif-Bold-2e" x="69.580078"/>
     <use xlink:href="#DejaVuSerif-Bold-30" x="104.394531"/>
     <use xlink:href="#DejaVuSerif-Bold-35" x="173.974609"/>
     <use xlink:href="#DejaVuSerif-Bold-36" x="243.554688"/>
    </g>
   </g>
   <g id="text_39">
    <!-- 7.114 -->
    <g style="fill: #ff1f1f" transform="translate(320.936403 286.105532) scale(0.134 -0.134)">
     <use xlink:href="#DejaVuSerif-Bold-37"/>
     <use xlink:href="#DejaVuSerif-Bold-2e" x="69.580078"/>
     <use xlink:href="#DejaVuSerif-Bold-31" x="104.394531"/>
     <use xlink:href="#DejaVuSerif-Bold-31" x="173.974609"/>
     <use xlink:href="#DejaVuSerif-Bold-34" x="243.554688"/>
    </g>
   </g>
   <g id="text_40">
    <!-- 10.503 -->
    <g style="fill: #ff1f1f" transform="translate(375.952769 286.105532) scale(0.134 -0.134)">
     <use xlink:href="#DejaVuSerif-Bold-31"/>
     <use xlink:href="#DejaVuSerif-Bold-30" x="69.580078"/>
     <use xlink:href="#DejaVuSerif-Bold-2e" x="139.160156"/>
     <use xlink:href="#DejaVuSerif-Bold-35" x="173.974609"/>
     <use xlink:href="#DejaVuSerif-Bold-30" x="243.554688"/>
     <use xlink:href="#DejaVuSerif-Bold-33" x="313.134766"/>
    </g>
   </g>
   <g id="text_41">
    <!-- 6.935 -->
    <g style="fill: #ff1f1f" transform="translate(443.873289 286.105532) scale(0.134 -0.134)">
     <use xlink:href="#DejaVuSerif-Bold-36"/>
     <use xlink:href="#DejaVuSerif-Bold-2e" x="69.580078"/>
     <use xlink:href="#DejaVuSerif-Bold-39" x="104.394531"/>
     <use xlink:href="#DejaVuSerif-Bold-33" x="173.974609"/>
     <use xlink:href="#DejaVuSerif-Bold-35" x="243.554688"/>
    </g>
   </g>
   <g id="text_42">
    <!-- MAE -->
    <g transform="translate(146.61804 320.915142) scale(0.132 -0.132)">
     <use xlink:href="#DejaVuSerif-Bold-4d"/>
     <use xlink:href="#DejaVuSerif-Bold-41" x="110.693359"/>
     <use xlink:href="#DejaVuSerif-Bold-45" x="188.28125"/>
    </g>
   </g>
   <g id="text_43">
    <!-- 1.485 -->
    <g style="fill: #ff1f1f" transform="translate(201.580203 320.970329) scale(0.134 -0.134)">
     <use xlink:href="#DejaVuSerif-Bold-31"/>
     <use xlink:href="#DejaVuSerif-Bold-2e" x="69.580078"/>
     <use xlink:href="#DejaVuSerif-Bold-34" x="104.394531"/>
     <use xlink:href="#DejaVuSerif-Bold-38" x="173.974609"/>
     <use xlink:href="#DejaVuSerif-Bold-35" x="243.554688"/>
    </g>
   </g>
   <g id="text_44">
    <!-- 1.852 -->
    <g style="fill: #ff1f1f" transform="translate(261.258303 320.970329) scale(0.134 -0.134)">
     <use xlink:href="#DejaVuSerif-Bold-31"/>
     <use xlink:href="#DejaVuSerif-Bold-2e" x="69.580078"/>
     <use xlink:href="#DejaVuSerif-Bold-38" x="104.394531"/>
     <use xlink:href="#DejaVuSerif-Bold-35" x="173.974609"/>
     <use xlink:href="#DejaVuSerif-Bold-32" x="243.554688"/>
    </g>
   </g>
   <g id="text_45">
    <!-- 2.038 -->
    <g style="fill: #ff1f1f" transform="translate(320.936403 320.970329) scale(0.134 -0.134)">
     <use xlink:href="#DejaVuSerif-Bold-32"/>
     <use xlink:href="#DejaVuSerif-Bold-2e" x="69.580078"/>
     <use xlink:href="#DejaVuSerif-Bold-30" x="104.394531"/>
     <use xlink:href="#DejaVuSerif-Bold-33" x="173.974609"/>
     <use xlink:href="#DejaVuSerif-Bold-38" x="243.554688"/>
    </g>
   </g>
   <g id="text_46">
    <!-- 2.494 -->
    <g style="fill: #ff1f1f" transform="translate(380.614503 320.970329) scale(0.134 -0.134)">
     <use xlink:href="#DejaVuSerif-Bold-32"/>
     <use xlink:href="#DejaVuSerif-Bold-2e" x="69.580078"/>
     <use xlink:href="#DejaVuSerif-Bold-34" x="104.394531"/>
     <use xlink:href="#DejaVuSerif-Bold-39" x="173.974609"/>
     <use xlink:href="#DejaVuSerif-Bold-34" x="243.554688"/>
    </g>
   </g>
   <g id="text_47">
    <!-- 1.967 -->
    <g style="fill: #ff1f1f" transform="translate(443.873289 320.970329) scale(0.134 -0.134)">
     <use xlink:href="#DejaVuSerif-Bold-31"/>
     <use xlink:href="#DejaVuSerif-Bold-2e" x="69.580078"/>
     <use xlink:href="#DejaVuSerif-Bold-39" x="104.394531"/>
     <use xlink:href="#DejaVuSerif-Bold-36" x="173.974609"/>
     <use xlink:href="#DejaVuSerif-Bold-37" x="243.554688"/>
    </g>
   </g>
   <g id="text_48">
    <!-- Base + -->
    <g transform="translate(55.509764 366.231503) scale(0.126 -0.126)">
     <defs>
      <path id="DejaVuSerif-Italic-20" transform="scale(0.015625)"/>
      <path id="DejaVuSerif-Italic-2b" d="M 2931 4013 
L 2931 2259 
L 4684 2259 
L 4684 1753 
L 2931 1753 
L 2931 0 
L 2431 0 
L 2431 1753 
L 678 1753 
L 678 2259 
L 2431 2259 
L 2431 4013 
L 2931 4013 
z
" transform="scale(0.015625)"/>
     </defs>
     <use xlink:href="#DejaVuSerif-Italic-42"/>
     <use xlink:href="#DejaVuSerif-Italic-61" x="73.486328"/>
     <use xlink:href="#DejaVuSerif-Italic-73" x="133.105469"/>
     <use xlink:href="#DejaVuSerif-Italic-65" x="184.423828"/>
     <use xlink:href="#DejaVuSerif-Italic-20" x="243.603516"/>
     <use xlink:href="#DejaVuSerif-Italic-2b" x="275.390625"/>
    </g>
    <!-- Router -->
    <g transform="translate(56.272654 379.862045) scale(0.126 -0.126)">
     <defs>
      <path id="DejaVuSerif-Italic-52" d="M 3066 2316 
Q 3272 2256 3403 2114 
Q 3534 1972 3609 1716 
L 4016 331 
L 4584 331 
L 4522 0 
L 3422 0 
L 2981 1484 
Q 2856 1916 2706 2042 
Q 2556 2169 2250 2169 
L 1553 2169 
L 1194 331 
L 1853 331 
L 1791 0 
L -97 0 
L -34 331 
L 559 331 
L 1338 4331 
L 744 4331 
L 809 4666 
L 3175 4666 
Q 3856 4666 4164 4341 
Q 4472 4016 4356 3419 
Q 4263 2938 3938 2661 
Q 3613 2384 3066 2316 
z
M 1619 2503 
L 2541 2503 
Q 3013 2503 3280 2726 
Q 3547 2950 3639 3419 
Q 3731 3888 3548 4109 
Q 3366 4331 2894 4331 
L 1972 4331 
L 1619 2503 
z
" transform="scale(0.015625)"/>
     </defs>
     <use xlink:href="#DejaVuSerif-Italic-52"/>
     <use xlink:href="#DejaVuSerif-Italic-6f" x="75.292969"/>
     <use xlink:href="#DejaVuSerif-Italic-75" x="135.498047"/>
     <use xlink:href="#DejaVuSerif-Italic-74" x="199.902344"/>
     <use xlink:href="#DejaVuSerif-Italic-65" x="240.087891"/>
     <use xlink:href="#DejaVuSerif-Italic-72" x="299.267578"/>
    </g>
   </g>
   <g id="text_49">
    <!-- MSE -->
    <g transform="translate(146.97279 355.779938) scale(0.132 -0.132)">
     <use xlink:href="#DejaVuSerif-Bold-4d"/>
     <use xlink:href="#DejaVuSerif-Bold-53" x="110.693359"/>
     <use xlink:href="#DejaVuSerif-Bold-45" x="182.910156"/>
    </g>
   </g>
   <g id="text_50">
    <!-- 4.056 -->
    <g style="fill: #ff1f1f" transform="translate(201.580203 355.835126) scale(0.134 -0.134)">
     <use xlink:href="#DejaVuSerif-Bold-34"/>
     <use xlink:href="#DejaVuSerif-Bold-2e" x="69.580078"/>
     <use xlink:href="#DejaVuSerif-Bold-30" x="104.394531"/>
     <use xlink:href="#DejaVuSerif-Bold-35" x="173.974609"/>
     <use xlink:href="#DejaVuSerif-Bold-36" x="243.554688"/>
    </g>
   </g>
   <g id="text_51">
    <!-- 6.000 -->
    <g style="fill: #ff1f1f" transform="translate(261.258303 355.835126) scale(0.134 -0.134)">
     <use xlink:href="#DejaVuSerif-Bold-36"/>
     <use xlink:href="#DejaVuSerif-Bold-2e" x="69.580078"/>
     <use xlink:href="#DejaVuSerif-Bold-30" x="104.394531"/>
     <use xlink:href="#DejaVuSerif-Bold-30" x="173.974609"/>
     <use xlink:href="#DejaVuSerif-Bold-30" x="243.554688"/>
    </g>
   </g>
   <g id="text_52">
    <!-- 7.072 -->
    <g style="fill: #ff1f1f" transform="translate(320.936403 355.835126) scale(0.134 -0.134)">
     <use xlink:href="#DejaVuSerif-Bold-37"/>
     <use xlink:href="#DejaVuSerif-Bold-2e" x="69.580078"/>
     <use xlink:href="#DejaVuSerif-Bold-30" x="104.394531"/>
     <use xlink:href="#DejaVuSerif-Bold-37" x="173.974609"/>
     <use xlink:href="#DejaVuSerif-Bold-32" x="243.554688"/>
    </g>
   </g>
   <g id="text_53">
    <!-- 10.325 -->
    <g style="fill: #ff1f1f" transform="translate(375.952769 355.835126) scale(0.134 -0.134)">
     <use xlink:href="#DejaVuSerif-Bold-31"/>
     <use xlink:href="#DejaVuSerif-Bold-30" x="69.580078"/>
     <use xlink:href="#DejaVuSerif-Bold-2e" x="139.160156"/>
     <use xlink:href="#DejaVuSerif-Bold-33" x="173.974609"/>
     <use xlink:href="#DejaVuSerif-Bold-32" x="243.554688"/>
     <use xlink:href="#DejaVuSerif-Bold-35" x="313.134766"/>
    </g>
   </g>
   <g id="text_54">
    <!-- 6.863 -->
    <g style="fill: #ff1f1f" transform="translate(443.873289 355.835126) scale(0.134 -0.134)">
     <use xlink:href="#DejaVuSerif-Bold-36"/>
     <use xlink:href="#DejaVuSerif-Bold-2e" x="69.580078"/>
     <use xlink:href="#DejaVuSerif-Bold-38" x="104.394531"/>
     <use xlink:href="#DejaVuSerif-Bold-36" x="173.974609"/>
     <use xlink:href="#DejaVuSerif-Bold-33" x="243.554688"/>
    </g>
   </g>
   <g id="text_55">
    <!-- MAE -->
    <g transform="translate(146.61804 390.644735) scale(0.132 -0.132)">
     <use xlink:href="#DejaVuSerif-Bold-4d"/>
     <use xlink:href="#DejaVuSerif-Bold-41" x="110.693359"/>
     <use xlink:href="#DejaVuSerif-Bold-45" x="188.28125"/>
    </g>
   </g>
   <g id="text_56">
    <!-- 1.483 -->
    <g style="fill: #ff1f1f" transform="translate(201.580203 390.699923) scale(0.134 -0.134)">
     <use xlink:href="#DejaVuSerif-Bold-31"/>
     <use xlink:href="#DejaVuSerif-Bold-2e" x="69.580078"/>
     <use xlink:href="#DejaVuSerif-Bold-34" x="104.394531"/>
     <use xlink:href="#DejaVuSerif-Bold-38" x="173.974609"/>
     <use xlink:href="#DejaVuSerif-Bold-33" x="243.554688"/>
    </g>
   </g>
   <g id="text_57">
    <!-- 1.845 -->
    <g style="fill: #ff1f1f" transform="translate(261.258303 390.699923) scale(0.134 -0.134)">
     <use xlink:href="#DejaVuSerif-Bold-31"/>
     <use xlink:href="#DejaVuSerif-Bold-2e" x="69.580078"/>
     <use xlink:href="#DejaVuSerif-Bold-38" x="104.394531"/>
     <use xlink:href="#DejaVuSerif-Bold-34" x="173.974609"/>
     <use xlink:href="#DejaVuSerif-Bold-35" x="243.554688"/>
    </g>
   </g>
   <g id="text_58">
    <!-- 2.032 -->
    <g style="fill: #ff1f1f" transform="translate(320.936403 390.699923) scale(0.134 -0.134)">
     <use xlink:href="#DejaVuSerif-Bold-32"/>
     <use xlink:href="#DejaVuSerif-Bold-2e" x="69.580078"/>
     <use xlink:href="#DejaVuSerif-Bold-30" x="104.394531"/>
     <use xlink:href="#DejaVuSerif-Bold-33" x="173.974609"/>
     <use xlink:href="#DejaVuSerif-Bold-32" x="243.554688"/>
    </g>
   </g>
   <g id="text_59">
    <!-- 2.478 -->
    <g style="fill: #ff1f1f" transform="translate(380.614503 390.699923) scale(0.134 -0.134)">
     <use xlink:href="#DejaVuSerif-Bold-32"/>
     <use xlink:href="#DejaVuSerif-Bold-2e" x="69.580078"/>
     <use xlink:href="#DejaVuSerif-Bold-34" x="104.394531"/>
     <use xlink:href="#DejaVuSerif-Bold-37" x="173.974609"/>
     <use xlink:href="#DejaVuSerif-Bold-38" x="243.554688"/>
    </g>
   </g>
   <g id="text_60">
    <!-- 1.960 -->
    <g style="fill: #ff1f1f" transform="translate(443.873289 390.699923) scale(0.134 -0.134)">
     <use xlink:href="#DejaVuSerif-Bold-31"/>
     <use xlink:href="#DejaVuSerif-Bold-2e" x="69.580078"/>
     <use xlink:href="#DejaVuSerif-Bold-39" x="104.394531"/>
     <use xlink:href="#DejaVuSerif-Bold-36" x="173.974609"/>
     <use xlink:href="#DejaVuSerif-Bold-30" x="243.554688"/>
    </g>
   </g>
   <g id="text_61">
    <!-- Final -->
    <g transform="translate(61.922967 435.961097) scale(0.126 -0.126)">
     <defs>
      <path id="DejaVuSerif-Italic-46" d="M -97 0 
L -34 331 
L 559 331 
L 1338 4331 
L 744 4331 
L 809 4666 
L 4628 4666 
L 4428 3628 
L 4044 3628 
L 4169 4281 
L 1963 4281 
L 1659 2719 
L 3253 2719 
L 3366 3303 
L 3750 3303 
L 3450 1753 
L 3066 1753 
L 3178 2338 
L 1584 2338 
L 1194 331 
L 1941 331 
L 1878 0 
L -97 0 
z
" transform="scale(0.015625)"/>
     </defs>
     <use xlink:href="#DejaVuSerif-Italic-46"/>
     <use xlink:href="#DejaVuSerif-Italic-69" x="69.384766"/>
     <use xlink:href="#DejaVuSerif-Italic-6e" x="101.367188"/>
     <use xlink:href="#DejaVuSerif-Italic-61" x="165.771484"/>
     <use xlink:href="#DejaVuSerif-Italic-6c" x="225.390625"/>
    </g>
    <!-- HalluGuard -->
    <g transform="translate(40.909514 449.591639) scale(0.126 -0.126)">
     <use xlink:href="#DejaVuSerif-Italic-48"/>
     <use xlink:href="#DejaVuSerif-Italic-61" x="87.207031"/>
     <use xlink:href="#DejaVuSerif-Italic-6c" x="146.826172"/>
     <use xlink:href="#DejaVuSerif-Italic-6c" x="178.808594"/>
     <use xlink:href="#DejaVuSerif-Italic-75" x="210.791016"/>
     <use xlink:href="#DejaVuSerif-Italic-47" x="275.195312"/>
     <use xlink:href="#DejaVuSerif-Italic-75" x="355.078125"/>
     <use xlink:href="#DejaVuSerif-Italic-61" x="419.482422"/>
     <use xlink:href="#DejaVuSerif-Italic-72" x="479.101562"/>
     <use xlink:href="#DejaVuSerif-Italic-64" x="526.904297"/>
    </g>
   </g>
   <g id="text_62">
    <!-- MSE -->
    <g transform="translate(146.97279 425.509532) scale(0.132 -0.132)">
     <use xlink:href="#DejaVuSerif-Bold-4d"/>
     <use xlink:href="#DejaVuSerif-Bold-53" x="110.693359"/>
     <use xlink:href="#DejaVuSerif-Bold-45" x="182.910156"/>
    </g>
   </g>
   <g id="text_63">
    <!-- 3.995 -->
    <g style="fill: #ff1f1f" transform="translate(201.580203 425.564719) scale(0.134 -0.134)">
     <use xlink:href="#DejaVuSerif-Bold-33"/>
     <use xlink:href="#DejaVuSerif-Bold-2e" x="69.580078"/>
     <use xlink:href="#DejaVuSerif-Bold-39" x="104.394531"/>
     <use xlink:href="#DejaVuSerif-Bold-39" x="173.974609"/>
     <use xlink:href="#DejaVuSerif-Bold-35" x="243.554688"/>
    </g>
   </g>
   <g id="text_64">
    <!-- 5.929 -->
    <g style="fill: #ff1f1f" transform="translate(261.258303 425.564719) scale(0.134 -0.134)">
     <use xlink:href="#DejaVuSerif-Bold-35"/>
     <use xlink:href="#DejaVuSerif-Bold-2e" x="69.580078"/>
     <use xlink:href="#DejaVuSerif-Bold-39" x="104.394531"/>
     <use xlink:href="#DejaVuSerif-Bold-32" x="173.974609"/>
     <use xlink:href="#DejaVuSerif-Bold-39" x="243.554688"/>
    </g>
   </g>
   <g id="text_65">
    <!-- 7.034 -->
    <g style="fill: #ff1f1f" transform="translate(320.936403 425.564719) scale(0.134 -0.134)">
     <use xlink:href="#DejaVuSerif-Bold-37"/>
     <use xlink:href="#DejaVuSerif-Bold-2e" x="69.580078"/>
     <use xlink:href="#DejaVuSerif-Bold-30" x="104.394531"/>
     <use xlink:href="#DejaVuSerif-Bold-33" x="173.974609"/>
     <use xlink:href="#DejaVuSerif-Bold-34" x="243.554688"/>
    </g>
   </g>
   <g id="text_66">
    <!-- 10.296 -->
    <g style="fill: #ff1f1f" transform="translate(375.952769 425.564719) scale(0.134 -0.134)">
     <use xlink:href="#DejaVuSerif-Bold-31"/>
     <use xlink:href="#DejaVuSerif-Bold-30" x="69.580078"/>
     <use xlink:href="#DejaVuSerif-Bold-2e" x="139.160156"/>
     <use xlink:href="#DejaVuSerif-Bold-32" x="173.974609"/>
     <use xlink:href="#DejaVuSerif-Bold-39" x="243.554688"/>
     <use xlink:href="#DejaVuSerif-Bold-36" x="313.134766"/>
    </g>
   </g>
   <g id="text_67">
    <!-- 6.813 -->
    <g style="fill: #ff1f1f" transform="translate(443.873289 425.564719) scale(0.134 -0.134)">
     <use xlink:href="#DejaVuSerif-Bold-36"/>
     <use xlink:href="#DejaVuSerif-Bold-2e" x="69.580078"/>
     <use xlink:href="#DejaVuSerif-Bold-38" x="104.394531"/>
     <use xlink:href="#DejaVuSerif-Bold-31" x="173.974609"/>
     <use xlink:href="#DejaVuSerif-Bold-33" x="243.554688"/>
    </g>
   </g>
   <g id="text_68">
    <!-- MAE -->
    <g transform="translate(146.61804 460.374329) scale(0.132 -0.132)">
     <use xlink:href="#DejaVuSerif-Bold-4d"/>
     <use xlink:href="#DejaVuSerif-Bold-41" x="110.693359"/>
     <use xlink:href="#DejaVuSerif-Bold-45" x="188.28125"/>
    </g>
   </g>
   <g id="text_69">
    <!-- 1.466 -->
    <g style="fill: #ff1f1f" transform="translate(201.580203 460.429516) scale(0.134 -0.134)">
     <use xlink:href="#DejaVuSerif-Bold-31"/>
     <use xlink:href="#DejaVuSerif-Bold-2e" x="69.580078"/>
     <use xlink:href="#DejaVuSerif-Bold-34" x="104.394531"/>
     <use xlink:href="#DejaVuSerif-Bold-36" x="173.974609"/>
     <use xlink:href="#DejaVuSerif-Bold-36" x="243.554688"/>
    </g>
   </g>
   <g id="text_70">
    <!-- 1.830 -->
    <g style="fill: #ff1f1f" transform="translate(261.258303 460.429516) scale(0.134 -0.134)">
     <use xlink:href="#DejaVuSerif-Bold-31"/>
     <use xlink:href="#DejaVuSerif-Bold-2e" x="69.580078"/>
     <use xlink:href="#DejaVuSerif-Bold-38" x="104.394531"/>
     <use xlink:href="#DejaVuSerif-Bold-33" x="173.974609"/>
     <use xlink:href="#DejaVuSerif-Bold-30" x="243.554688"/>
    </g>
   </g>
   <g id="text_71">
    <!-- 2.025 -->
    <g style="fill: #ff1f1f" transform="translate(320.936403 460.429516) scale(0.134 -0.134)">
     <use xlink:href="#DejaVuSerif-Bold-32"/>
     <use xlink:href="#DejaVuSerif-Bold-2e" x="69.580078"/>
     <use xlink:href="#DejaVuSerif-Bold-30" x="104.394531"/>
     <use xlink:href="#DejaVuSerif-Bold-32" x="173.974609"/>
     <use xlink:href="#DejaVuSerif-Bold-35" x="243.554688"/>
    </g>
   </g>
   <g id="text_72">
    <!-- 2.472 -->
    <g style="fill: #ff1f1f" transform="translate(380.614503 460.429516) scale(0.134 -0.134)">
     <use xlink:href="#DejaVuSerif-Bold-32"/>
     <use xlink:href="#DejaVuSerif-Bold-2e" x="69.580078"/>
     <use xlink:href="#DejaVuSerif-Bold-34" x="104.394531"/>
     <use xlink:href="#DejaVuSerif-Bold-37" x="173.974609"/>
     <use xlink:href="#DejaVuSerif-Bold-32" x="243.554688"/>
    </g>
   </g>
   <g id="text_73">
    <!-- 1.948 -->
    <g style="fill: #ff1f1f" transform="translate(443.873289 460.429516) scale(0.134 -0.134)">
     <use xlink:href="#DejaVuSerif-Bold-31"/>
     <use xlink:href="#DejaVuSerif-Bold-2e" x="69.580078"/>
     <use xlink:href="#DejaVuSerif-Bold-39" x="104.394531"/>
     <use xlink:href="#DejaVuSerif-Bold-34" x="173.974609"/>
     <use xlink:href="#DejaVuSerif-Bold-38" x="243.554688"/>
    </g>
   </g>
   <g id="text_74">
    <!-- Clean benchmark; values are averaged over datasets and forecasting backbones. Lower MSE/MAE is better. -->
    <g style="fill: #555555" transform="translate(20.8476 498.891351) scale(0.086 -0.086)">
     <defs>
      <path id="DejaVuSerif-43" d="M 4513 1234 
Q 4306 581 3820 245 
Q 3334 -91 2591 -91 
Q 2134 -91 1743 65 
Q 1353 222 1050 525 
Q 700 875 529 1320 
Q 359 1766 359 2328 
Q 359 3416 987 4083 
Q 1616 4750 2644 4750 
Q 3025 4750 3456 4650 
Q 3888 4550 4384 4347 
L 4384 3272 
L 4031 3272 
Q 3916 3859 3567 4137 
Q 3219 4416 2591 4416 
Q 1844 4416 1459 3886 
Q 1075 3356 1075 2328 
Q 1075 1303 1459 773 
Q 1844 244 2591 244 
Q 3113 244 3450 492 
Q 3788 741 3938 1234 
L 4513 1234 
z
" transform="scale(0.015625)"/>
      <path id="DejaVuSerif-62" d="M 738 331 
L 738 4531 
L 184 4531 
L 184 4863 
L 1313 4863 
L 1313 2803 
Q 1481 3116 1742 3264 
Q 2003 3413 2388 3413 
Q 3000 3413 3387 2928 
Q 3775 2444 3775 1663 
Q 3775 881 3387 395 
Q 3000 -91 2388 -91 
Q 2003 -91 1742 57 
Q 1481 206 1313 519 
L 1313 0 
L 184 0 
L 184 331 
L 738 331 
z
M 1313 1497 
Q 1313 897 1542 583 
Q 1772 269 2209 269 
Q 2650 269 2876 622 
Q 3103 975 3103 1663 
Q 3103 2353 2876 2703 
Q 2650 3053 2209 3053 
Q 1772 3053 1542 2737 
Q 1313 2422 1313 1825 
L 1313 1497 
z
" transform="scale(0.015625)"/>
      <path id="DejaVuSerif-6b" d="M 1831 0 
L 219 0 
L 219 331 
L 738 331 
L 738 4531 
L 184 4531 
L 184 4863 
L 1313 4863 
L 1313 1697 
L 2713 2988 
L 2234 2988 
L 2234 3322 
L 3738 3322 
L 3738 2988 
L 3169 2988 
L 2181 2075 
L 3444 331 
L 3922 331 
L 3922 0 
L 2284 0 
L 2284 331 
L 2759 331 
L 1766 1697 
L 1313 1275 
L 1313 331 
L 1831 331 
L 1831 0 
z
" transform="scale(0.015625)"/>
      <path id="DejaVuSerif-3b" d="M 231 -622 
Q 525 -406 662 -114 
Q 800 178 800 594 
L 800 709 
L 1416 709 
Q 1391 175 1164 -208 
Q 938 -591 481 -872 
L 231 -622 
z
M 678 2363 
Q 678 2538 798 2658 
Q 919 2778 1094 2778 
Q 1269 2778 1389 2656 
Q 1509 2534 1509 2363 
Q 1509 2188 1389 2067 
Q 1269 1947 1094 1947 
Q 919 1947 798 2067 
Q 678 2188 678 2363 
z
" transform="scale(0.015625)"/>
      <path id="DejaVuSerif-66" d="M 2753 4078 
L 2450 4078 
Q 2447 4313 2317 4434 
Q 2188 4556 1941 4556 
Q 1619 4556 1487 4379 
Q 1356 4203 1356 3750 
L 1356 3322 
L 2284 3322 
L 2284 2988 
L 1356 2988 
L 1356 331 
L 2094 331 
L 2094 0 
L 231 0 
L 231 331 
L 781 331 
L 781 2988 
L 231 2988 
L 231 3322 
L 781 3322 
L 781 3738 
Q 781 4294 1070 4578 
Q 1359 4863 1919 4863 
Q 2128 4863 2337 4825 
Q 2547 4788 2753 4709 
L 2753 4078 
z
" transform="scale(0.015625)"/>
      <path id="DejaVuSerif-4c" d="M 353 0 
L 353 331 
L 947 331 
L 947 4331 
L 353 4331 
L 353 4666 
L 2175 4666 
L 2175 4331 
L 1581 4331 
L 1581 384 
L 3713 384 
L 3713 1166 
L 4097 1166 
L 4097 0 
L 353 0 
z
" transform="scale(0.015625)"/>
      <path id="DejaVuSerif-77" d="M 3072 3322 
L 3922 728 
L 4672 2988 
L 4191 2988 
L 4191 3322 
L 5394 3322 
L 5394 2988 
L 5025 2988 
L 4038 0 
L 3559 0 
L 2741 2484 
L 1919 0 
L 1459 0 
L 475 2988 
L 103 2988 
L 103 3322 
L 1606 3322 
L 1606 2988 
L 1069 2988 
L 1813 728 
L 2669 3322 
L 3072 3322 
z
" transform="scale(0.015625)"/>
      <path id="DejaVuSerif-4d" d="M 353 0 
L 353 331 
L 947 331 
L 947 4331 
L 319 4331 
L 319 4666 
L 1678 4666 
L 3316 1344 
L 4953 4666 
L 6228 4666 
L 6228 4331 
L 5606 4331 
L 5606 331 
L 6203 331 
L 6203 0 
L 4378 0 
L 4378 331 
L 4972 331 
L 4972 3938 
L 3372 684 
L 2931 684 
L 1331 3938 
L 1331 331 
L 1925 331 
L 1925 0 
L 353 0 
z
" transform="scale(0.015625)"/>
      <path id="DejaVuSerif-53" d="M 594 225 
L 594 1288 
L 953 1284 
Q 969 753 1261 498 
Q 1553 244 2150 244 
Q 2706 244 2998 464 
Q 3291 684 3291 1106 
Q 3291 1444 3114 1625 
Q 2938 1806 2369 1978 
L 1753 2163 
Q 1084 2366 811 2669 
Q 538 2972 538 3500 
Q 538 4094 959 4422 
Q 1381 4750 2144 4750 
Q 2469 4750 2856 4679 
Q 3244 4609 3681 4475 
L 3681 3481 
L 3328 3481 
Q 3275 3975 2998 4195 
Q 2722 4416 2156 4416 
Q 1663 4416 1405 4214 
Q 1147 4013 1147 3628 
Q 1147 3294 1340 3103 
Q 1534 2913 2163 2725 
L 2741 2553 
Q 3375 2363 3645 2067 
Q 3916 1772 3916 1275 
Q 3916 597 3481 253 
Q 3047 -91 2188 -91 
Q 1803 -91 1404 -12 
Q 1006 66 594 225 
z
" transform="scale(0.015625)"/>
      <path id="DejaVuSerif-45" d="M 353 0 
L 353 331 
L 947 331 
L 947 4331 
L 353 4331 
L 353 4666 
L 4109 4666 
L 4109 3628 
L 3725 3628 
L 3725 4281 
L 1581 4281 
L 1581 2719 
L 3109 2719 
L 3109 3303 
L 3494 3303 
L 3494 1753 
L 3109 1753 
L 3109 2338 
L 1581 2338 
L 1581 384 
L 3775 384 
L 3775 1038 
L 4159 1038 
L 4159 0 
L 353 0 
z
" transform="scale(0.015625)"/>
      <path id="DejaVuSerif-2f" d="M 1656 4666 
L 2156 4666 
L 500 -594 
L 0 -594 
L 1656 4666 
z
" transform="scale(0.015625)"/>
      <path id="DejaVuSerif-41" d="M 1281 1691 
L 2994 1691 
L 2138 3909 
L 1281 1691 
z
M -38 0 
L -38 331 
L 372 331 
L 2034 4666 
L 2559 4666 
L 4225 331 
L 4684 331 
L 4684 0 
L 2988 0 
L 2988 331 
L 3506 331 
L 3116 1356 
L 1153 1356 
L 763 331 
L 1275 331 
L 1275 0 
L -38 0 
z
" transform="scale(0.015625)"/>
     </defs>
     <use xlink:href="#DejaVuSerif-43"/>
     <use xlink:href="#DejaVuSerif-6c" x="76.513672"/>
     <use xlink:href="#DejaVuSerif-65" x="108.496094"/>
     <use xlink:href="#DejaVuSerif-61" x="167.675781"/>
     <use xlink:href="#DejaVuSerif-6e" x="227.294922"/>
     <use xlink:href="#DejaVuSerif-20" x="291.699219"/>
     <use xlink:href="#DejaVuSerif-62" x="323.486328"/>
     <use xlink:href="#DejaVuSerif-65" x="387.5"/>
     <use xlink:href="#DejaVuSerif-6e" x="446.679688"/>
     <use xlink:href="#DejaVuSerif-63" x="511.083984"/>
     <use xlink:href="#DejaVuSerif-68" x="567.089844"/>
     <use xlink:href="#DejaVuSerif-6d" x="631.494141"/>
     <use xlink:href="#DejaVuSerif-61" x="726.318359"/>
     <use xlink:href="#DejaVuSerif-72" x="785.9375"/>
     <use xlink:href="#DejaVuSerif-6b" x="833.740234"/>
     <use xlink:href="#DejaVuSerif-3b" x="894.335938"/>
     <use xlink:href="#DejaVuSerif-20" x="928.027344"/>
     <use xlink:href="#DejaVuSerif-76" x="959.814453"/>
     <use xlink:href="#DejaVuSerif-61" x="1016.308594"/>
     <use xlink:href="#DejaVuSerif-6c" x="1075.927734"/>
     <use xlink:href="#DejaVuSerif-75" x="1107.910156"/>
     <use xlink:href="#DejaVuSerif-65" x="1172.314453"/>
     <use xlink:href="#DejaVuSerif-73" x="1231.494141"/>
     <use xlink:href="#DejaVuSerif-20" x="1282.8125"/>
     <use xlink:href="#DejaVuSerif-61" x="1314.599609"/>
     <use xlink:href="#DejaVuSerif-72" x="1374.21875"/>
     <use xlink:href="#DejaVuSerif-65" x="1422.021484"/>
     <use xlink:href="#DejaVuSerif-20" x="1481.201172"/>
     <use xlink:href="#DejaVuSerif-61" x="1512.988281"/>
     <use xlink:href="#DejaVuSerif-76" x="1572.607422"/>
     <use xlink:href="#DejaVuSerif-65" x="1629.101562"/>
     <use xlink:href="#DejaVuSerif-72" x="1688.28125"/>
     <use xlink:href="#DejaVuSerif-61" x="1736.083984"/>
     <use xlink:href="#DejaVuSerif-67" x="1795.703125"/>
     <use xlink:href="#DejaVuSerif-65" x="1859.716797"/>
     <use xlink:href="#DejaVuSerif-64" x="1918.896484"/>
     <use xlink:href="#DejaVuSerif-20" x="1982.910156"/>
     <use xlink:href="#DejaVuSerif-6f" x="2014.697266"/>
     <use xlink:href="#DejaVuSerif-76" x="2074.902344"/>
     <use xlink:href="#DejaVuSerif-65" x="2131.396484"/>
     <use xlink:href="#DejaVuSerif-72" x="2190.576172"/>
     <use xlink:href="#DejaVuSerif-20" x="2238.378906"/>
     <use xlink:href="#DejaVuSerif-64" x="2270.166016"/>
     <use xlink:href="#DejaVuSerif-61" x="2334.179688"/>
     <use xlink:href="#DejaVuSerif-74" x="2393.798828"/>
     <use xlink:href="#DejaVuSerif-61" x="2433.984375"/>
     <use xlink:href="#DejaVuSerif-73" x="2493.603516"/>
     <use xlink:href="#DejaVuSerif-65" x="2544.921875"/>
     <use xlink:href="#DejaVuSerif-74" x="2604.101562"/>
     <use xlink:href="#DejaVuSerif-73" x="2644.287109"/>
     <use xlink:href="#DejaVuSerif-20" x="2695.605469"/>
     <use xlink:href="#DejaVuSerif-61" x="2727.392578"/>
     <use xlink:href="#DejaVuSerif-6e" x="2787.011719"/>
     <use xlink:href="#DejaVuSerif-64" x="2851.416016"/>
     <use xlink:href="#DejaVuSerif-20" x="2915.429688"/>
     <use xlink:href="#DejaVuSerif-66" x="2947.216797"/>
     <use xlink:href="#DejaVuSerif-6f" x="2984.228516"/>
     <use xlink:href="#DejaVuSerif-72" x="3044.433594"/>
     <use xlink:href="#DejaVuSerif-65" x="3092.236328"/>
     <use xlink:href="#DejaVuSerif-63" x="3151.416016"/>
     <use xlink:href="#DejaVuSerif-61" x="3207.421875"/>
     <use xlink:href="#DejaVuSerif-73" x="3267.041016"/>
     <use xlink:href="#DejaVuSerif-74" x="3318.359375"/>
     <use xlink:href="#DejaVuSerif-69" x="3358.544922"/>
     <use xlink:href="#DejaVuSerif-6e" x="3390.527344"/>
     <use xlink:href="#DejaVuSerif-67" x="3454.931641"/>
     <use xlink:href="#DejaVuSerif-20" x="3518.945312"/>
     <use xlink:href="#DejaVuSerif-62" x="3550.732422"/>
     <use xlink:href="#DejaVuSerif-61" x="3614.746094"/>
     <use xlink:href="#DejaVuSerif-63" x="3674.365234"/>
     <use xlink:href="#DejaVuSerif-6b" x="3730.371094"/>
     <use xlink:href="#DejaVuSerif-62" x="3790.966797"/>
     <use xlink:href="#DejaVuSerif-6f" x="3854.980469"/>
     <use xlink:href="#DejaVuSerif-6e" x="3915.185547"/>
     <use xlink:href="#DejaVuSerif-65" x="3979.589844"/>
     <use xlink:href="#DejaVuSerif-73" x="4038.769531"/>
     <use xlink:href="#DejaVuSerif-2e" x="4090.087891"/>
     <use xlink:href="#DejaVuSerif-20" x="4121.875"/>
     <use xlink:href="#DejaVuSerif-4c" x="4153.662109"/>
     <use xlink:href="#DejaVuSerif-6f" x="4220.068359"/>
     <use xlink:href="#DejaVuSerif-77" x="4280.273438"/>
     <use xlink:href="#DejaVuSerif-65" x="4365.869141"/>
     <use xlink:href="#DejaVuSerif-72" x="4425.048828"/>
     <use xlink:href="#DejaVuSerif-20" x="4472.851562"/>
     <use xlink:href="#DejaVuSerif-4d" x="4504.638672"/>
     <use xlink:href="#DejaVuSerif-53" x="4607.03125"/>
     <use xlink:href="#DejaVuSerif-45" x="4675.537109"/>
     <use xlink:href="#DejaVuSerif-2f" x="4748.535156"/>
     <use xlink:href="#DejaVuSerif-4d" x="4782.226562"/>
     <use xlink:href="#DejaVuSerif-41" x="4884.619141"/>
     <use xlink:href="#DejaVuSerif-45" x="4956.835938"/>
     <use xlink:href="#DejaVuSerif-20" x="5029.833984"/>
     <use xlink:href="#DejaVuSerif-69" x="5061.621094"/>
     <use xlink:href="#DejaVuSerif-73" x="5093.603516"/>
     <use xlink:href="#DejaVuSerif-20" x="5144.921875"/>
     <use xlink:href="#DejaVuSerif-62" x="5176.708984"/>
     <use xlink:href="#DejaVuSerif-65" x="5240.722656"/>
     <use xlink:href="#DejaVuSerif-74" x="5299.902344"/>
     <use xlink:href="#DejaVuSerif-74" x="5340.087891"/>
     <use xlink:href="#DejaVuSerif-65" x="5380.273438"/>
     <use xlink:href="#DejaVuSerif-72" x="5439.453125"/>
     <use xlink:href="#DejaVuSerif-2e" x="5476.255859"/>
    </g>
   </g>
  </g>
 </g>
 <defs>
  <clipPath id="p45a5594c33">
   <rect x="2.88" y="2.88" width="513.36" height="512.2656"/>
  </clipPath>
 </defs>
</svg>
